<?xml version="1.0" encoding="UTF-8"?>
<svg width="64px" height="64px" viewBox="0 0 64 64" version="1.1" xmlns="http://www.w3.org/2000/svg" xmlns:xlink="http://www.w3.org/1999/xlink">
    <title>icon-componentdriven-64x64</title>
    <g id="icon-componentdriven-64x64" stroke="none" stroke-width="1" fill="none" fill-rule="evenodd">
        <g id="Group" transform="translate(32.143439, 32.173359) rotate(-315.000000) translate(-32.143439, -32.173359) translate(13.643439, 5.173359)">
            <path d="M3,-6.83304238e-13 L15.2590199,-6.83304238e-13 C16.9158741,-6.85080179e-13 18.2590199,1.34314575 18.2590199,3 L18.2590199,17.8855073 L18.2590199,17.8855073 L-1.28312787e-12,17.8855073 L-1.28312787e-12,3 C-1.28333077e-12,1.34314575 1.34314575,-6.82999879e-13 3,-6.83304238e-13 Z" id="Rectangle" fill="#1EA7FD"></path>
            <path d="M-1.28312787e-12,17.8855073 L18.2590199,17.8855073 L18.2590199,35.7710145 L3,35.7710145 C1.34314575,35.7710145 -1.28218917e-12,34.4278688 -1.28312787e-12,32.7710145 L-1.28312787e-12,17.8855073 L-1.28312787e-12,17.8855073 Z" id="Rectangle-Copy" fill="#37D5D3"></path>
            <path d="M18.2590199,17.8855073 L33.5180398,17.8855073 C35.174894,17.8855073 36.5180398,19.228653 36.5180398,20.8855073 L36.5180398,35.7710145 L36.5180398,35.7710145 L18.2590199,35.7710145 L18.2590199,17.8855073 Z" id="Rectangle-Copy-2" fill="#FFAE00"></path>
            <path d="M18.2590199,35.7710145 L36.5180398,35.7710145 L36.5180398,50.6565218 C36.5180398,52.3133761 35.174894,53.6565218 33.5180398,53.6565218 L21.2590199,53.6565218 C19.6021656,53.6565218 18.2590199,52.3133761 18.2590199,50.6565218 L18.2590199,35.7710145 L18.2590199,35.7710145 Z" id="Rectangle-Copy-3" fill="#FF4785"></path>
        </g>
    </g>
</svg>