<svg width="240" height="213" xmlns="http://www.w3.org/2000/svg" xmlns:xlink="http://www.w3.org/1999/xlink">
  <defs>
    <linearGradient x1="79.185%" y1="47.435%" x2="12.562%" y2="62.206%" id="a">
      <stop stop-color="#FF4785" offset="0%"/>
      <stop stop-color="#6F2CAC" offset="100%"/>
    </linearGradient>
    <linearGradient x1="100%" y1="50%" x2="0%" y2="54.368%" id="d">
      <stop stop-color="gold" offset="0%"/>
      <stop stop-color="#FF7300" offset="100%"/>
    </linearGradient>
    <linearGradient x1="50%" y1="0%" x2="50%" y2="100%" id="g">
      <stop stop-color="#0FF" offset="0%"/>
      <stop stop-color="#CFFF59" offset="100%"/>
    </linearGradient>
    <filter x="-15.9%" y="-22.1%" width="131.8%" height="152.3%" filterUnits="objectBoundingBox" id="b">
      <feOffset dy="5" in="SourceAlpha" result="shadowOffsetOuter1"/>
      <feGaussianBlur stdDeviation="10" in="shadowOffsetOuter1" result="shadowBlurOuter1"/>
      <feColorMatrix values="0 0 0 0 0 0 0 0 0 0 0 0 0 0 0 0 0 0 0.5 0" in="shadowBlurOuter1"/>
    </filter>
    <filter x="-15.9%" y="-22.1%" width="131.8%" height="152.3%" filterUnits="objectBoundingBox" id="e">
      <feOffset dy="5" in="SourceAlpha" result="shadowOffsetOuter1"/>
      <feGaussianBlur stdDeviation="10" in="shadowOffsetOuter1" result="shadowBlurOuter1"/>
      <feColorMatrix values="0 0 0 0 0 0 0 0 0 0 0 0 0 0 0 0 0 0 0.5 0" in="shadowBlurOuter1"/>
    </filter>
    <path id="c" d="M104.1 125.524L1.925 63.348 104.1 1.17l102.177 62.177z"/>
    <path id="f" d="M102.6 126.429L.425 64.252 102.6 2.075l102.177 62.177z"/>
  </defs>
  <g fill="none" fill-rule="evenodd">
    <path fill="#111033" d="M120.1 199.854L17.925 137.677 120.1 75.5l102.177 62.177z"/>
    <path d="M104.1 0l104.101 63.348-104.1 63.347L0 63.348 104.1 0zm0 107.806l-14.651 8.802 14.652 8.916 14.65-8.916-14.65-8.802zm-12.405-7.454l-14.573 8.755 11.362 6.914 14.646-8.798-11.435-6.871zm24.81 0l-11.434 6.871 14.645 8.798 11.362-6.914-14.572-8.755zM78.79 92.597l-14.491 8.706 11.859 7.217 14.568-8.751-11.936-7.172zm50.622.001l-11.934 7.171 14.566 8.751 11.858-7.216-14.49-8.706zm-25.31.3l-11.435 6.871 11.435 6.871 11.435-6.871-11.435-6.871zm-38.084-7.975l-14.41 8.658 11.726 7.136 14.485-8.703-11.801-7.091zm76.167 0l-11.801 7.091 14.483 8.703 11.727-7.136-14.41-8.658zm-50.99.22L79.76 92.014l11.935 7.172 11.435-6.871-11.935-7.172zm25.812.001l-11.935 7.171 11.435 6.871 11.935-7.171-11.435-6.871zm38.584-8.276l-12.435 7.472 14.403 8.654 12.356-7.519-14.324-8.607zm-102.98 0l-14.324 8.606 12.356 7.519 14.405-8.653-12.436-7.472zm51.49.521L92.165 84.56l11.935 7.171 11.935-7.171-11.935-7.171zm25.678.08l-11.801 7.091 11.435 6.871 11.8-7.091-11.434-6.871zm-51.355 0L66.988 84.34l11.8 7.091 11.436-6.871-11.801-7.091zm-38.217-8.055l-14.247 8.559 11.363 6.915 14.319-8.603-11.435-6.871zm127.789 0l-11.435 6.871 14.318 8.603 11.362-6.914-14.245-8.56zm-51.122.301l-11.802 7.091 11.936 7.171 11.8-7.091-11.934-7.171zm-25.545 0l-11.935 7.171 11.802 7.091 11.934-7.171-11.801-7.091zm-26.311-.301l-11.435 6.871 12.435 7.472 11.435-6.871-12.435-7.472zm78.167 0l-12.435 7.472 11.435 6.871 12.435-7.472-11.435-6.871zM27.3 61.66l-14.165 8.51 11.858 7.217 14.242-8.556L27.3 61.66zm153.599 0l-11.934 7.171 14.239 8.556 11.86-7.217-14.165-8.51zm-102.978 0l-11.934 7.171 12.435 7.472 11.935-7.171-12.436-7.472zm52.357 0l-12.435 7.472 11.935 7.171 12.435-7.472-11.935-7.171zm-26.18.38l-11.8 7.091 11.802 7.091 11.8-7.091L104.1 62.04zm51.49-.08l-11.434 6.871 11.435 6.871 11.435-6.871-11.435-6.871zm-102.977 0l-11.435 6.871 11.435 6.871 11.435-6.871-11.435-6.871zm-36.685-7.135L1.924 63.348l10.247 6.235 14.158-8.507-10.402-6.251zm176.346 0l-10.401 6.251 14.157 8.507 10.249-6.235-14.005-8.523zm-74.767-.84l-12.435 7.472 11.8 7.091 12.436-7.472-11.801-7.091zm-26.812 0l-11.801 7.091 12.436 7.472 11.8-7.091-12.435-7.472zm51.99.221l-11.435 6.871 11.935 7.171 11.435-6.871-11.935-7.171zm-102.978 0L28.27 61.077l11.935 7.171 11.435-6.871-11.935-7.171zm128.789 0l-11.935 7.171 11.435 6.871 11.935-7.171-11.435-6.871zm-102.978 0l-11.935 7.171 11.435 6.871 11.935-7.171-11.435-6.871zM104.1 45.93l-12.435 7.472 12.436 7.472 12.435-7.472L104.1 45.93zm51.489.521l-11.935 7.171 11.936 7.172 11.934-7.171-11.935-7.172zm-102.978 0l-11.935 7.171 11.936 7.172 11.934-7.171-11.935-7.172zm77.3.08l-11.434 6.871 11.8 7.091 11.436-6.871-11.801-7.091zm-51.622 0l-11.801 7.091 11.435 6.871 11.8-7.091-11.434-6.871zm-50.035.793l-11.363 6.914L27.3 60.493l11.435-6.871-10.481-6.298zm151.692 0l-10.48 6.298 11.435 6.871 10.408-6.255-11.363-6.914zM41.078 39.52l-11.859 7.217 10.486 6.302 11.935-7.171-10.562-6.348zm126.044 0l-10.561 6.348 11.935 7.171 10.485-6.302-11.859-7.217zm-24.305-.743l-11.935 7.171 11.802 7.091 11.935-7.171-11.802-7.091zm-77.433 0l-11.802 7.091 11.935 7.171 11.8-7.091-11.933-7.171zm26.31-.301L79.26 45.948l11.436 6.871 12.435-7.472-11.435-6.871zm24.812 0l-11.435 6.871 12.436 7.472 11.435-6.871-12.436-7.472zM78.79 30.722l-12.436 7.472 11.935 7.171 12.435-7.472-11.934-7.171zm50.62 0l-11.934 7.171 12.436 7.472 11.935-7.171-12.436-7.472zM53.77 31.798l-11.727 7.135 10.569 6.352 11.802-7.091-10.644-6.396zm100.663 0l-10.643 6.396 11.8 7.091 10.569-6.352-11.726-7.135zm-50.331-.776l-11.435 6.871 11.435 6.871 11.435-6.871-11.435-6.871zm-37.012-7.33l-12.356 7.519 10.65 6.4 12.436-7.472-10.73-6.447zm74.021-.001l-10.728 6.447 12.436 7.472 10.648-6.399-12.356-7.52zm-49.915-.423L79.76 30.139l11.935 7.171 11.435-6.871-11.935-7.171zm25.81 0l-11.934 7.171 11.435 6.871 11.935-7.171-11.435-6.871zm-12.904-7.755l-11.935 7.172 11.935 7.171 11.934-7.171-11.934-7.172zm-24.684.677l-11.363 6.915 10.736 6.45 11.434-6.87-10.807-6.495zm49.366 0l-10.806 6.494 11.435 6.871 10.734-6.45-11.363-6.915zM92.24 8.387l-11.859 7.216 10.814 6.498 11.935-7.171-10.89-6.543zm23.72 0l-10.89 6.543 11.936 7.171 10.813-6.498-11.859-7.216zM104.1 1.171L93.206 7.8l10.896 6.547L114.995 7.8l-10.894-6.63z" fill="url(#a)" transform="translate(16 74.5)"/>
    <g transform="translate(16 44.33)">
      <use fill="#000" filter="url(#b)" xlink:href="#c"/>
      <use fill="#111033" xlink:href="#c"/>
    </g>
    <path d="M104.1 0l104.101 63.348-104.1 63.347L0 63.348 104.1 0zm0 1.17L11.589 57.468c3.123.764 7.157 1.757 9.097 2.2 4.974 1.134 9.492 2.001 13.765 2.59l1.068.142c13.771 1.76 22.957.21 26.062-5.666l.518-.989c1.83-3.529 2.447-5.216 4.386-11.54l.55-1.8c2.05-6.731 4.036-9.933 9.292-13.49.264-.179.535-.356.813-.533 12.975-8.248 24.521-11.957 41.02-12.07l1.582-.008c2.422-.03 4.614-.205 8.06-.71l1.33.81c-4.307.668-6.757.877-9.584.902l-.598.002c-16.724 0-28.247 3.637-41.273 11.917-.271.172-.534.345-.79.518-4.929 3.336-6.823 6.29-8.766 12.532l-1.058 3.45c-1.83 5.913-2.452 7.415-4.598 11.476-3.463 6.554-13.384 8.081-28.15 6.047-3.999-.55-8.203-1.342-12.786-2.365l-1.717-.391c-2.36-.552-6.525-1.58-9.429-2.29l1.156-.705-9.614 5.852L27.038 78.63l.564-.012c1.525-.029 3.216-.042 5.095-.044h3.215l2.184-.008c4.28-.025 7-.11 10.172-.33 11.669-.806 20.158-3.327 25.95-8.558 6.91-6.24 9.244-9.804 12.584-17.505l.733-1.69c.363-.817.664-1.457 1-2.117 2.241-4.414 5.323-7.918 11.05-11.981 10.542-7.48 27.552-9.768 51.035-6.906l2.097 1.276c-24.41-3.255-41.929-1.092-52.553 6.445-5.598 3.972-8.571 7.352-10.738 11.618l-.32.646c-.246.51-.491 1.047-.78 1.706l-.815 1.878c-3.285 7.498-5.736 11.153-12.622 17.372-5.885 5.315-14.36 7.897-25.895 8.767l-1.416.098c-3.386.215-6.422.28-11.659.289h-3.226c-1.465.002-2.813.011-4.055.03L48.26 91.545l2.858-.865c2.718-.833 5.29-1.63 6.679-2.086l1.327-.44c13.112-4.404 21.458-8.736 25.378-14.047 3.323-4.501 4.661-7.73 6.492-14.636l.4-1.538c2.063-8.036 3.794-11.763 8.553-16.23a34.142 34.142 0 012.043-1.766c6.077-4.86 17.994-7.198 32.213-7.111l1.096.011c11.67.179 22.856 2.05 26.43 4.405 8.176 5.39 4.46 15.107-20.105 48.26-12.002 16.198-24.54 29.521-37.615 39.968l.09.054 29.38-17.877c2.775-5.24 6.53-10.197 11.88-16.248l.702-.79 4.457-4.978c.41-.463.791-.895 1.165-1.323l.224-.256c7.258-8.33 11.994-15.32 15.955-24.567 3.238-7.557 3.978-13.425 2.728-17.853l1.2.731c.945 4.523.077 10.314-3.008 17.516-3.897 9.095-8.534 16.032-15.517 24.132l-1.284 1.474c-.461.524-.946 1.07-1.492 1.683l-3.872 4.32-1.003 1.135c-4.527 5.159-7.863 9.516-10.416 13.978l-1.167.709 15.191-9.244-.065.04a96.023 96.023 0 011.606-2.989l.27-.48c1.168-2.07 2.507-4.309 4.165-6.981l1.942-3.097 5.82-9.148c1.762-2.78 3.2-5.088 4.541-7.3l.868-1.44c4.398-7.347 7.466-13.289 9.441-18.567.22-.585.415-1.16.586-1.722l.88.536a29.95 29.95 0 01-.529 1.537c-2.065 5.517-5.293 11.72-9.95 19.447l-.44.728a407.98 407.98 0 01-3.76 6.063l-7.155 11.26-1.058 1.69c-1.695 2.72-3.061 4.991-4.246 7.072l-.234.413c-.382.677-.744 1.332-1.085 1.967l-.523.317 11.571-7.04c1.884-7.013 5.302-14.112 11.162-24.277l4.66-8.021.876-1.537c1.344-2.374 2.42-4.37 3.36-6.255.229-.458.449-.908.66-1.352l-62.451-38.002-.573.027-1.737.069-6.447.22c-3.335.117-6.444.241-9.881.401-10.427.486-18.266 2.563-24.32 5.91l6.32-3.845c4.99-1.682 10.896-2.735 17.953-3.064l2.883-.129c1.885-.081 3.714-.154 5.591-.222l8.167-.282.508-.02-14.498-8.822zm-1.485 39.548a33.143 33.143 0 00-1.983 1.714c-4.491 4.216-6.176 7.73-8.14 15.253l-.4 1.55c-1.93 7.362-3.29 10.732-6.784 15.466-4.083 5.53-12.554 9.93-25.852 14.396l-1.916.632a657.568 657.568 0 01-8.127 2.517l-.041-.025 9.444 5.747 1.362-.713c2.768-1.437 6.48-3.349 7.22-3.735l1.84-.967c4.216-2.227 7.883-4.263 11.423-6.371 6.307-3.757 11.618-7.414 15.867-11.051 3.194-2.734 4.886-6.085 6.646-11.987l.863-2.952c1.782-6.002 3.088-8.72 5.865-11.12 3.774-3.263 9.614-4.382 18.546-3.184 13.755 1.845 18.548 7.354 15.752 15.653-2.011 5.968-7.605 12.78-16.029 20.723l-.499.468c-2.639 2.47-4.889 5.083-8.424 9.605l-2.592 3.333-.835 1.064c-4.787 6.063-8.116 9.622-12.376 12.838-4.244 3.203-8.912 5.5-14.28 6.864l-1.21-.737c5.647-1.295 10.498-3.612 14.888-6.925 4.296-3.243 7.645-6.863 12.607-13.186l2.638-3.39 1.093-1.396c3.161-4.007 5.307-6.46 7.808-8.8 8.584-8.034 14.283-14.905 16.263-20.78 2.567-7.62-1.741-12.573-14.937-14.343-8.674-1.164-14.235-.098-17.76 2.95-2.648 2.289-3.892 4.956-5.686 11.079l-.665 2.28-.072.241c-1.81 6.072-3.577 9.571-6.954 12.461-4.298 3.68-9.653 7.367-16.005 11.15l-1.533.905c-3.086 1.801-6.308 3.576-9.933 5.492l-3.353 1.75c-1.76.909-4.569 2.358-6.544 3.386l7.417 4.513.3-.386c3.083-3.903 8.332-8.653 13.907-12.465l.423-.287c9.08-6.114 16.502-8.188 19.45-4.224 4.125 5.547-1.532 14.814-16.723 27.924l-.899-.547.115-.097c14.884-12.822 20.368-21.757 16.704-26.683-2.464-3.314-9.446-1.363-18.089 4.456-5.8 3.906-11.306 8.903-14.331 12.83l26.68 16.236.892-.589c11.532-7.65 20.72-15.077 27.565-22.278l2.263-2.392c11.188-11.886 17.61-19.68 21.95-27.589l.38-.706c5.876-11.107 4.502-18.555-5.847-21.97-24.68-8.144-33.415-4.773-45.967 19.765l-.381.75c-6.256 12.365-16.499 20.77-30.697 27.02-3.092 1.36-6.253 2.577-9.868 3.824l-1.111-.676c3.922-1.334 7.29-2.617 10.576-4.064 13.778-6.063 23.744-14.157 29.907-25.971l.3-.585C107.71 38.72 116.883 34.988 142.28 43.37c11.168 3.685 12.575 11.963 6.225 23.749l-.194.358c-4.682 8.531-11.704 16.867-24.365 30.189-6.999 7.363-16.41 14.946-28.237 22.753l-.505-.308 7.896 4.805.874-.699c12.522-10.1 24.557-22.87 36.102-38.308l.745-1.001c24.18-32.634 27.747-41.96 20.358-46.83-3.472-2.288-15.106-4.179-26.98-4.251-14.008-.086-25.736 2.214-31.584 6.892zm80.83 8.734c-.2.42-.409.845-.624 1.277l-.448.886a152.4 152.4 0 01-3.252 5.971l-4.843 8.347-.754 1.307c-5.31 9.259-8.536 15.929-10.404 22.37l18.38-11.184c2.896-4.981 5.206-10.42 6.973-16.066l.226-.736a88.652 88.652 0 001.966-7.777l.038.023-3.49-2.124-.323.656c-.328.662-.668 1.343-1.021 2.044l-1.725 3.388-1.75 3.412c-5.761 11.28-8.601 17.546-9.708 22.543l-1.17.712c.959-5.186 3.738-11.45 9.704-23.155l2.566-5.008a357.339 357.339 0 002.57-5.114l-2.911-1.772zm-50.578 9.135c1.24 6.417-3.253 13.265-10.773 18.19-6.957 4.556-14.483 6.065-17.462 3.013-2.134-2.186-2.411-3.206-.978-4.08.028-.018.068-.04.117-.067l.08-.044 1.496-.775a9.755 9.755 0 002.089-1.5c1.852-1.757 3.182-4.465 3.86-8.584l.07-.447.063-.391c1.173-7.017 5.375-12.225 10.42-13.603 5.217-1.425 9.74 1.673 11.018 8.288zm-10.754-7.324c-4.646 1.27-8.584 6.15-9.697 12.8l-.06.378-.074.469c-.713 4.322-2.14 7.226-4.158 9.14a10.737 10.737 0 01-2.296 1.65c-.218.12-.92.473-1.346.696l-.131.07-.176.097c-.6.366-.588.67.696 2.033l.148.156.329.34c2.483 2.544 9.362 1.216 15.863-2.934l.336-.217.364-.242c6.996-4.706 11.1-11.09 9.974-16.922-1.171-6.062-5.137-8.78-9.772-7.514zm69.459 3.135a89.333 89.333 0 01-2.145 8.26c-1.604 5.129-3.653 10.09-6.178 14.703l8.14-4.953c.154-.531.308-1.074.462-1.627l.28-1.025c1.394-5.154 2.475-10.009 2.934-13.231l-3.493-2.127zm-52.143-31.729l1.626.99c-13.134.056-25.001.84-35.084 2.765-14.162 2.704-22.636 7.371-23.819 14.285-3.043 17.783-12.062 27.749-31.62 32.154-7.779 1.752-13.313 1.323-22.009-.853l-3.87-.98c-2.024-.501-2.785-.65-4.165-.868-2.648-.419-5.067-.463-7.447-.05l-1.258-.767c2.696-.622 5.41-.667 8.377-.244l.934.145c1.341.22 2.224.415 4.775 1.059l2.26.574c8.93 2.28 14.4 2.761 22.182 1.008 19.154-4.314 27.88-13.954 30.856-31.347 1.28-7.478 10.073-12.321 24.616-15.098 9.738-1.86 21.1-2.66 33.646-2.773zm56.56 34.417c-.59 3.868-1.93 9.554-3.342 14.556l7.765-4.726.069-.42c.28-1.853.346-4.039.192-6.558l-4.684-2.852zm-61.938-37.689l1.618.984-1.603.016c-11.626.148-16.553.408-22.148 1.132l-1.1.148c-4.303.602-8.799 1.506-15.51 3.082-8.16 1.918-14.161 6.242-18.447 12.414-2.9 4.175-4.582 8.303-6.078 13.68l-.572 2.088a35.36 35.36 0 01-.524 1.729c-2.68 8.113-8.655 12.299-23.337 13.297-12.953.88-26.84-1.221-41.66-6.301l1.115-.678c14.402 4.844 27.894 6.837 40.478 5.981l.994-.073c13.562-1.086 18.974-5.014 21.46-12.54l.23-.72c.074-.24.147-.491.232-.79l.448-1.63c1.566-5.785 3.302-10.164 6.392-14.614 4.422-6.367 10.63-10.84 19.041-12.816l1.957-.455c5.684-1.307 9.74-2.099 13.644-2.644l1.35-.18c5.544-.707 10.52-.964 22.02-1.11zm67.235 40.913l.422.257c.098 2.117.039 4.007-.18 5.67l4.75-2.89-4.992-3.037zm-78.439-47.73l1.31.797c-2.543.454-5.257.697-8.141.728l-1.982.01C96.27 14.27 84.222 17.6 73.704 27.58c-3.436 3.26-6.087 6.59-8.365 10.306a65.958 65.958 0 00-2.314 4.12l-.54 1.054c-.624 1.241-1.874 3.773-2.024 4.072-2.528 5.027-4.443 7.782-7.53 10.21-5.712 4.493-18.05 3.637-37.09-2.462l1.131-.69c18.26 5.76 30.064 6.516 35.34 2.366 2.756-2.167 4.546-4.626 6.785-8.951l.628-1.24c.448-.903 1.646-3.324 2.071-4.158.923-1.805 1.768-3.338 2.69-4.844 2.323-3.788 5.028-7.186 8.53-10.508 10.741-10.192 23.017-13.584 41.017-13.742l1.344-.005c2.637 0 5.127-.177 7.47-.53zm-48.19 6.509c-.326.216-.645.438-.958.663a34.933 34.933 0 00-4.416 3.778l-.596.612c-.852.888-2.072 2.19-2.296 2.415-.513.515-.997.945-1.51 1.355l-.203.16-.584.44-.444.33c-.287.213-.5.38-.707.554-1.673 1.41-3.197 3.817-5.898 9.817l-.715 1.612c-2.667 6.077-5.862 10.046-9.289 12.066-2.625 1.547-5.281 1.828-7.122 1.04l-.201-.092c-1.654-.806-7.203-1.43-16.516-1.833l-2.131-.086.008-.229 1.19-.724 1.008.041c9.294.403 14.844 1.018 16.774 1.883l.105.05c1.526.743 3.93.531 6.377-.911 3.135-1.848 6.112-5.488 8.651-11.092l.96-2.157c2.755-6.118 4.344-8.623 6.155-10.15l.275-.225c.095-.075.195-.153.305-.236l1.112-.835c.75-.57 1.013-.806 1.575-1.367l.223-.226c.489-.51 2.14-2.27 2.787-2.919l.088-.088 5.992-3.646zM55.107 30.984c-1.454 2.4-3.802 6.336-4.584 7.602l-.605.974c-.198.316-.393.625-.585.926l-.566.884c-1.39 2.148-2.585 3.843-3.583 5.054-1.595 1.934-4.804 2.752-9.206 2.772-1.819.008-3.726-.12-5.75-.351l-.893-.108-2.777-.38 1.355-.824c.639.088 1.304.181 1.674.228 2.272.284 4.39.444 6.387.435 4.126-.019 7.091-.775 8.438-2.408 1.1-1.334 2.462-3.299 4.077-5.839l.581-.92.602-.968c.607-.983 2.215-3.672 3.59-5.954l1.845-1.123zm-11.402 6.94c-1.384 2.25-2.372 3.71-2.976 4.398-1.524 1.732-7.075 4.16-10.595 4.28l-.266.004v-.263l1.414-.86c3.22-.507 7.512-2.476 8.696-3.822l.16-.19c.396-.486.949-1.283 1.657-2.385l1.91-1.162zm69.768-31.049l.02.013.207.962-.58.12c-4.787.947-12.63 1.625-23.544 2.04l1.76-1.071c10.147-.427 17.442-1.097 21.872-2.007l.265-.057zm-3.983-2.423l1.188.724C103.63 7.05 98.345 7.61 94.795 6.835l1.3-.792c3.169.402 7.64-.124 13.396-1.591zm-3.446-2.098l1.177.719c-1.967.632-4.113.668-6.428.113l1.255-.767c1.415.23 2.746.207 3.996-.065z" fill="url(#d)" fill-rule="nonzero" transform="translate(16 44.33)"/>
    <g>
      <g transform="translate(17.5 11)">
        <use fill="#000" filter="url(#e)" xlink:href="#f"/>
        <use fill="#111033" xlink:href="#f"/>
      </g>
      <path d="M52.564 62.436L78.218 78.53l24.158-15.148 25.293 15.72-24.065 15.24 25.694 15.952-26.861 16.8-25.757-16.036-50.916-31.856 26.8-16.766zM178.771 46.86l25.783 16.11-75.303 47.21-25.517-15.994L178.77 46.86zM52.75 30.566L78.184 46.47l23.113-14.452 1.081-.677 11.96 7.473 38.929 24.301-25.52 15.997-25.339-15.818-23.91 14.95-25.182-15.378-26.083-16.302 25.52-15.997zM27.22 46.593l25.366 15.85L26.163 78.97l-25.1-15.733L27.22 46.593zM102.373-.59l76.462 47.767-25.52 15.997-50.941-31.835-24.16 15.15-25.577-15.981L102.373-.59z" stroke="url(#g)" transform="translate(17.5 11)"/>
    </g>
  </g>
</svg>
