<svg width="240" height="213" xmlns="http://www.w3.org/2000/svg" xmlns:xlink="http://www.w3.org/1999/xlink">
  <defs>
    <linearGradient x1="37.741%" y1="30.314%" x2="41.16%" y2="69.686%" id="c">
      <stop stop-color="#2E2CFA" offset="0%"/>
      <stop stop-color="#9D4DFF" offset="100%"/>
    </linearGradient>
  </defs>
  <g>
    <path transform="translate(-1 -0.5)" d="M120.807 11.5893L196.043 58.5908L171.564 74.03L120.807 42.3388L117.97 44.118L96.6174 57.47L72.128 42.1566L72.3499 42.0174L72.2142 41.9722L120.807 11.5893Z M46.6088 58.153L71.1761 42.7533L96.6174 58.6494L96.6479 58.6685L118.5 44.9659L120.811 43.5206L170.602 74.6368L146.122 90.076L120.841 74.2941L96.9283 89.2459L72.0144 74.0317L72.01 74.0289L46.6088 58.153Z M120.87 138.094L95.3786 122.224L45.1542 90.8005L71.0136 74.626L96.6514 90.7099L120.811 75.5611L145.151 90.6889L121.228 105.777L121.288 105.814L121.096 105.936L146.786 121.885L120.87 138.094Z M222.045 74.5604L147.684 121.18L123.164 105.81L146.135 91.2628L146.181 91.2914L171.678 75.309L171.749 75.3535L197.49 59.2178L222.045 74.5604Z M20.4328 74.8235L45.6558 58.7738L70.0597 74.0225L44.5826 89.9609L20.4328 74.8235Z" fill="url(#c)" />
  </g>
</svg>