<?xml version="1.0" encoding="UTF-8"?>
<svg width="32px" height="32px" viewBox="0 0 50 50" version="1.1" xmlns="http://www.w3.org/2000/svg" xmlns:xlink="http://www.w3.org/1999/xlink">
    <title>icon-learnstorybook</title>
    <g id="icon-learnstorybook" stroke="none" stroke-width="1" fill="none" fill-rule="evenodd">
        <path d="M11.5,47.5 C7.081722,47.5 3.5,43.918278 3.5,39.5 C3.5,35.081722 7.081722,31.5 11.5,31.5 C15.918278,31.5 19.5,35.081722 19.5,39.5 C19.5,43.918278 15.918278,47.5 11.5,47.5 Z M11.5,42.7 C13.2673112,42.7 14.7,41.2673112 14.7,39.5 C14.7,37.7326888 13.2673112,36.3 11.5,36.3 C9.7326888,36.3 8.3,37.7326888 8.3,39.5 C8.3,41.2673112 9.7326888,42.7 11.5,42.7 Z" id="Shape" fill="#37D5D3"></path>
        <path d="M45.25,4.5 L45.25,20.5 L29.25,20.5 C29.25,11.663444 36.413444,4.5 45.25,4.5 Z" id="Combined-Shape-Copy-4" fill="#FFAE00"></path>
        <path d="M39.5236989,31.3402882 L47.187047,44.3679799 C47.4670665,44.844013 47.308166,45.4569147 46.8321329,45.7369342 C46.6784562,45.8273322 46.5034055,45.875 46.3251128,45.875 L30.9984166,45.875 C30.4461319,45.875 29.9984166,45.4272847 29.9984166,44.875 C29.9984166,44.6967072 30.0460844,44.5216565 30.1364824,44.3679799 L37.7998305,31.3402882 C38.07985,30.864255 38.6927517,30.7053546 39.1687848,30.9853741 C39.3153385,31.0715821 39.4374909,31.1937345 39.5236989,31.3402882 Z" id="Triangle-3-Copy-2" fill="#1EA7FD"></path>
        <path d="M7.5,4.5 L15.5,4.5 C17.709139,4.5 19.5,6.290861 19.5,8.5 L19.5,16.5 C19.5,18.709139 17.709139,20.5 15.5,20.5 L7.5,20.5 C5.290861,20.5 3.5,18.709139 3.5,16.5 L3.5,8.5 C3.5,6.290861 5.290861,4.5 7.5,4.5 Z" id="Rectangle-19-Copy-2" fill="#FF4785"></path>
    </g>
</svg>