<?xml version="1.0" encoding="UTF-8"?>
<svg width="10px" height="63px" viewBox="0 0 10 63" version="1.1" xmlns="http://www.w3.org/2000/svg" xmlns:xlink="http://www.w3.org/1999/xlink">
    <title>Line Copy 7</title>
    <defs>
        <linearGradient x1="50%" y1="0%" x2="50%" y2="100%" id="linearGradient-1">
            <stop stop-color="#C94063" offset="0%"></stop>
            <stop stop-color="#824CD0" offset="100%"></stop>
        </linearGradient>
    </defs>
    <g id="Commercial" stroke="none" stroke-width="1" fill="none" fill-rule="evenodd">
        <path id="Line-Copy-7" d="M9.50244141,54.0787104 L5.00244141,63.0787104 L0.502441406,54.0787104 L9.50244141,54.0787104 Z M5.50244141,50.5787104 L5.50244141,52.5787104 L4.50244141,52.5787104 L4.50244141,50.5787104 L5.50244141,50.5787104 Z M5.50244141,45.5787104 L5.50244141,47.5787104 L4.50244141,47.5787104 L4.50244141,45.5787104 L5.50244141,45.5787104 Z M5.50244141,40.5787104 L5.50244141,42.5787104 L4.50244141,42.5787104 L4.50244141,40.5787104 L5.50244141,40.5787104 Z M5.50244141,35.5787104 L5.50244141,37.5787104 L4.50244141,37.5787104 L4.50244141,35.5787104 L5.50244141,35.5787104 Z M5.50244141,30.5787104 L5.50244141,32.5787104 L4.50244141,32.5787104 L4.50244141,30.5787104 L5.50244141,30.5787104 Z M5.50244141,25.5787104 L5.50244141,27.5787104 L4.50244141,27.5787104 L4.50244141,25.5787104 L5.50244141,25.5787104 Z M5.50244141,20.5787104 L5.50244141,22.5787104 L4.50244141,22.5787104 L4.50244141,20.5787104 L5.50244141,20.5787104 Z M5.50244141,15.5787104 L5.50244141,17.5787104 L4.50244141,17.5787104 L4.50244141,15.5787104 L5.50244141,15.5787104 Z M5.50244141,10.5787104 L5.50244141,12.5787104 L4.50244141,12.5787104 L4.50244141,10.5787104 L5.50244141,10.5787104 Z M5.50244141,5.57871035 L5.50244141,7.57871035 L4.50244141,7.57871035 L4.50244141,5.57871035 L5.50244141,5.57871035 Z M5.50244141,0.578710352 L5.50244141,2.57871035 L4.50244141,2.57871035 L4.50244141,0.578710352 L5.50244141,0.578710352 Z" fill="url(#linearGradient-1)" fill-rule="nonzero"></path>
    </g>
</svg>