<?xml version="1.0" encoding="UTF-8"?>
<svg width="210px" height="210px" viewBox="0 0 210 210" version="1.1" xmlns="http://www.w3.org/2000/svg" xmlns:xlink="http://www.w3.org/1999/xlink">
    <title>histogram</title>
    <defs>
        <rect id="path-1" x="0" y="0" width="210" height="210" rx="4"></rect>
        <linearGradient x1="65.0880715%" y1="3.60822483e-14%" x2="65.0880694%" y2="100%" id="linearGradient-3">
            <stop stop-color="#5677FE" offset="0%"></stop>
            <stop stop-color="#9FB8F0" offset="100%"></stop>
        </linearGradient>
    </defs>
    <g id="Commercial" stroke="none" stroke-width="1" fill="none" fill-rule="evenodd">
        <g id="histogram">
            <g id="canvas">
                <mask id="mask-2" fill="white">
                    <use xlink:href="#path-1"></use>
                </mask>
                <use id="Rectangle" fill="#FFFFFF" xlink:href="#path-1"></use>
                <path d="M29.172407,1.35367839 L29.172,28.7736784 L66.502,28.7736784 L66.5028702,1.35367839 L67.6695368,1.35367839 L67.669,28.7736784 L105,28.7736784 L105,1.35367839 L106.166667,1.35367839 L106.166,28.7736784 L143.5,28.7736784 L143.5,1.35367839 L144.666667,1.35367839 L144.666,28.7736784 L181.997,28.7736784 L181.99713,1.35367839 L183.163797,1.35367839 L183.163,28.7736784 L210,28.7746503 L210,29.9413169 L183.163,29.9406784 L183.163,67.2716784 L210,67.2717801 L210,68.4384468 L183.163,68.4376784 L183.163,105.771678 L210,105.77178 L210,106.938447 L183.163,106.937678 L183.163,144.268678 L210,144.26891 L210,145.435577 L183.163,145.434678 L183.163,182.765678 L210,182.76604 L210,183.932706 L183.163,183.932678 L183.163797,211.353678 L181.99713,211.353678 L181.997,183.932678 L144.666,183.932678 L144.666667,211.353678 L143.5,211.353678 L143.5,183.932678 L106.166,183.932678 L106.166667,211.353678 L105,211.353678 L105,183.932678 L67.669,183.932678 L67.6695368,211.353678 L66.5028702,211.353678 L66.502,183.932678 L29.172,183.932678 L29.172407,211.353678 L28.0057403,211.353678 L28.005,183.932678 L-1.75646164e-11,183.932706 L-1.7564545e-11,182.76604 L28.005,182.765678 L28.005,145.434678 L-1.75622592e-11,145.435577 L-1.75621877e-11,144.26891 L28.005,144.268678 L28.005,106.937678 L-1.75599019e-11,106.938447 L-1.75598305e-11,105.77178 L28.005,105.771678 L28.005,68.4376784 L-1.75575444e-11,68.4384468 L-1.7557473e-11,67.2717801 L28.005,67.2716784 L28.005,29.9406784 L-1.75551872e-11,29.9413169 L-1.75551157e-11,28.7746503 L28.005,28.7736784 L28.0057403,1.35367839 L29.172407,1.35367839 Z M66.502,145.434678 L29.172,145.434678 L29.172,182.765678 L66.502,182.765678 L66.502,145.434678 Z M105,145.434678 L67.669,145.434678 L67.669,182.765678 L105,182.765678 L105,145.434678 Z M143.5,145.434678 L106.166,145.434678 L106.166,182.765678 L143.5,182.765678 L143.5,145.434678 Z M181.997,145.434678 L144.666,145.434678 L144.666,182.765678 L181.997,182.765678 L181.997,145.434678 Z M66.502,106.937678 L29.172,106.937678 L29.172,144.268678 L66.502,144.268678 L66.502,106.937678 Z M105,106.937678 L67.669,106.937678 L67.669,144.268678 L105,144.268678 L105,106.937678 Z M143.5,106.937678 L106.166,106.937678 L106.166,144.268678 L143.5,144.268678 L143.5,106.937678 Z M181.997,106.937678 L144.666,106.937678 L144.666,144.268678 L181.997,144.268678 L181.997,106.937678 Z M66.502,68.4376784 L29.172,68.4376784 L29.172,105.771678 L66.502,105.771678 L66.502,68.4376784 Z M105,68.4376784 L67.669,68.4376784 L67.669,105.771678 L105,105.771678 L105,68.4376784 Z M143.5,68.4376784 L106.166,68.4376784 L106.166,105.771678 L143.5,105.771678 L143.5,68.4376784 Z M181.997,68.4376784 L144.666,68.4376784 L144.666,105.771678 L181.997,105.771678 L181.997,68.4376784 Z M66.502,29.9406784 L29.172,29.9406784 L29.172,67.2716784 L66.502,67.2716784 L66.502,29.9406784 Z M105,29.9406784 L67.669,29.9406784 L67.669,67.2716784 L105,67.2716784 L105,29.9406784 Z M143.5,29.9406784 L106.166,29.9406784 L106.166,67.2716784 L143.5,67.2716784 L143.5,29.9406784 Z M181.997,29.9406784 L144.666,29.9406784 L144.666,67.2716784 L181.997,67.2716784 L181.997,29.9406784 Z" id="grid" fill="#FC521F" opacity="0.049999997" mask="url(#mask-2)"></path>
            </g>
            <g id="histogram" transform="translate(6.630952, 14.482580)">
                <path d="M58.6125963,127.882028 L58.6125963,150.261383 L36.2332413,150.261383 L36.2332413,127.882028 L58.6125963,127.882028 Z M82.0576348,86.3203691 L82.0576348,150.261383 L59.6782798,150.261383 L59.6782798,86.3203691 L82.0576348,86.3203691 Z M105.502673,77.7949005 L105.502673,150.261383 L83.1233184,150.261383 L83.1233184,77.7949005 L105.502673,77.7949005 Z M128.947712,43.6930263 L128.947712,150.261383 L106.568357,150.261383 L106.568357,43.6930263 L128.947712,43.6930263 Z M152.39275,19.1823042 L152.39275,150.261383 L130.013395,150.261383 L130.013395,19.1823042 L152.39275,19.1823042 Z M175.837789,77.7949005 L175.837789,150.261383 L153.458434,150.261383 L153.458434,77.7949005 L175.837789,77.7949005 Z" id="bars" fill="url(#linearGradient-3)"></path>
                <g id="xaxis" transform="translate(40.495976, 157.721168)" fill="#666666">
                    <path d="M5.82928912,9.54852477 L5.82928912,10.6568357 L0.777949005,10.6568357 L0.777949005,9.6444363 L3.33558957,6.89497269 C3.63398246,6.56816143 3.85244541,6.26799689 3.99098496,5.99447007 C4.12952452,5.72094326 4.19879326,5.44919666 4.19879326,5.17922214 C4.19879326,4.8382017 4.10110658,4.58066408 3.90573028,4.40660156 C3.71035398,4.23253904 3.42439842,4.14550908 3.04785501,4.14550908 C2.3729187,4.14550908 1.69444028,4.40482282 1.01239939,4.92345809 L0.554155456,3.92171553 C0.852548347,3.6588456 1.23441447,3.44748714 1.69976529,3.28763381 C2.16511611,3.12778047 2.63223607,3.04785501 3.10113918,3.04785501 C3.85422601,3.04785501 4.45100284,3.23257164 4.89148758,3.60201046 C5.33197232,3.97144928 5.55221139,4.46876331 5.55221139,5.09396746 C5.55221139,5.52734761 5.45985307,5.93407944 5.27513366,6.31417514 C5.09041426,6.69427085 4.77781687,7.11876389 4.33733212,7.58766701 L2.49369955,9.54852477 L5.82928912,9.54852477 Z M9.60180895,10.7527472 C8.71373487,10.7527472 8.03525645,10.4241647 7.56635334,9.76698991 C7.09745022,9.10981509 6.86300218,8.15248559 6.86300218,6.89497269 C6.86300218,5.65166898 7.09745022,4.70322008 7.56635334,4.04959756 C8.03525645,3.39597504 8.71373487,3.06916868 9.60180895,3.06916868 C10.489883,3.06916868 11.1683615,3.39597504 11.6372646,4.04959756 C12.1061677,4.70322008 12.3406157,5.65166898 12.3406157,6.89497269 C12.3406157,8.14538099 12.1061677,9.10093437 11.6372646,9.76166149 C11.1683615,10.4223886 10.489883,10.7527472 9.60180895,10.7527472 Z M9.60180895,9.6764068 C10.0849213,9.6764068 10.4365933,9.45439161 10.6568357,9.01035457 C10.8770781,8.56631753 10.9871976,7.86119729 10.9871976,6.89497269 C10.9871976,5.93585268 10.8770781,5.23783692 10.6568357,4.80090448 C10.4365933,4.36397203 10.0849213,4.14550908 9.60180895,4.14550908 C9.11869665,4.14550908 8.76702459,4.36397203 8.54678222,4.80090448 C8.32653985,5.23783692 8.21642031,5.93585268 8.21642031,6.89497269 C8.21642031,7.86119729 8.32653985,8.56631753 8.54678222,9.01035457 C8.76702459,9.45439161 9.11869665,9.6764068 9.60180895,9.6764068 Z M19.6831755,5.31776101 C20.2728567,5.31776101 20.7133348,5.49359704 21.0046231,5.84527437 C21.2959114,6.19695171 21.4415534,6.73511653 21.4415534,7.45978498 L21.4415534,10.6568357 L20.1094489,10.6568357 L20.1094489,7.51306916 C20.1094489,7.11521197 20.0419563,6.82570416 19.9069691,6.64453705 C19.7719818,6.46336994 19.555295,6.37278774 19.2569021,6.37278774 C18.9016725,6.37278774 18.6245975,6.493564 18.4256689,6.73512015 C18.2267403,6.9766763 18.1272775,7.31413939 18.1272775,7.74751954 L18.1272775,10.6568357 L16.795173,10.6568357 L16.795173,7.51306916 C16.795173,7.11521197 16.7294565,6.82570416 16.5980216,6.64453705 C16.4665866,6.46336994 16.2481237,6.37278774 15.9426262,6.37278774 C15.5945011,6.37278774 15.3209784,6.493564 15.1220498,6.73512015 C14.9231212,6.9766763 14.8236584,7.31413939 14.8236584,7.74751954 L14.8236584,10.6568357 L13.491554,10.6568357 L13.491554,5.44564304 L14.7916879,5.44564304 L14.7916879,6.1809647 C14.947989,5.89678099 15.1646758,5.68187029 15.4417549,5.53622614 C15.718834,5.39058199 16.0349837,5.31776101 16.3902133,5.31776101 C17.1788231,5.31776101 17.7010028,5.64456737 17.9567681,6.29818989 C18.1201738,5.99269241 18.3546218,5.752916 18.6601193,5.57885348 C18.9656168,5.40479096 19.3066321,5.31776101 19.6831755,5.31776101 Z M24.713202,10.7420904 C24.2514034,10.7420904 23.8269104,10.6852545 23.4397101,10.571581 C23.0525098,10.4579075 22.7239273,10.2945043 22.4539528,10.0813666 L22.826942,9.15422185 C23.3811003,9.55918364 24.0169518,9.76166149 24.7345156,9.76166149 C25.0400131,9.76166149 25.272685,9.71193009 25.4325384,9.61246579 C25.5923917,9.51300149 25.6723172,9.37091177 25.6723172,9.18619236 C25.6723172,9.02989132 25.6172574,8.90911506 25.5071362,8.82385995 C25.397015,8.73860484 25.1998655,8.66045549 24.9156818,8.58940956 L24.063135,8.39758652 C23.5800227,8.29101763 23.2212461,8.11695772 22.9867946,7.87540157 C22.752343,7.63384542 22.635119,7.32124803 22.635119,6.93760003 C22.635119,6.61789336 22.7257012,6.33549004 22.9068683,6.09038159 C23.0880354,5.84527315 23.3402447,5.65522815 23.6635036,5.52024089 C23.9867626,5.38525363 24.3615242,5.31776101 24.7877998,5.31776101 C25.1572386,5.31776101 25.514239,5.3745969 25.8588118,5.48827038 C26.2033845,5.60194386 26.5071013,5.7617948 26.7699712,5.96782798 L26.396982,6.87365902 C25.857033,6.48290642 25.317092,6.28753305 24.777143,6.28753305 C24.4858547,6.28753305 24.2585111,6.3408167 24.0951055,6.44738559 C23.9316999,6.55395448 23.8499983,6.70314869 23.8499983,6.89497269 C23.8499983,7.03706454 23.9015058,7.15428856 24.0045224,7.24664827 C24.107539,7.33900797 24.2727183,7.41005283 24.5000652,7.45978498 L25.3845826,7.66226486 C25.9032179,7.77593834 26.2833079,7.95532661 26.524864,8.20043506 C26.7664202,8.44554351 26.8871964,8.7670215 26.8871964,9.16487869 C26.8871964,9.64799099 26.6918231,10.0316332 26.3010705,10.3158169 C25.9103179,10.6000007 25.3810337,10.7420904 24.713202,10.7420904 Z" id="20ms"></path>
                    <path d="M55.1118258,6.79906117 C55.5523105,6.91273465 55.8915497,7.12764535 56.1295536,7.44379973 C56.3675574,7.7599541 56.4865576,8.15247696 56.4865576,8.62138007 C56.4865576,9.27500259 56.2467811,9.79185396 55.7672211,10.1719497 C55.2876611,10.5520454 54.6358245,10.7420904 53.8116918,10.7420904 C53.3072657,10.7420904 52.8223845,10.663941 52.3570337,10.50764 C51.8916829,10.3513389 51.5062645,10.1382044 51.2007671,9.86822985 L51.659011,8.86648729 C52.3126335,9.38512255 53.0124254,9.6444363 53.7584076,9.6444363 C54.2344153,9.6444363 54.5896396,9.55030186 54.8240912,9.36203015 C55.0585427,9.17375845 55.1757668,8.88780288 55.1757668,8.50415488 C55.1757668,8.12761147 55.0567666,7.84876039 54.8187628,7.66759328 C54.5807589,7.48642616 54.2131018,7.39584397 53.7157803,7.39584397 L52.7246946,7.39584397 L52.7246946,6.30884673 L53.5346141,6.30884673 C54.5079433,6.30884673 54.9946006,5.94296569 54.9946006,5.21119265 C54.9946006,4.8701722 54.8898094,4.60730622 54.6802239,4.42258681 C54.4706384,4.2378674 54.1740261,4.14550908 53.7903781,4.14550908 C53.4564623,4.14550908 53.1172231,4.21122558 52.7726503,4.34266054 C52.4280776,4.47409551 52.0923906,4.66769275 51.7655793,4.92345809 L51.3073354,3.92171553 C51.6057283,3.65174101 51.9875944,3.43860643 52.4529452,3.28230539 C52.9182961,3.12600435 53.3925205,3.04785501 53.8756328,3.04785501 C54.6145104,3.04785501 55.2041828,3.22724328 55.6446675,3.58602521 C56.0851523,3.94480714 56.3053913,4.42968831 56.3053913,5.04068328 C56.2982868,5.45985425 56.1899433,5.82395916 55.9803579,6.13300894 C55.7707724,6.44205872 55.4812646,6.66407391 55.1118258,6.79906117 Z M60.3443321,10.7527472 C59.456258,10.7527472 58.7777796,10.4241647 58.3088765,9.76698991 C57.8399733,9.10981509 57.6055253,8.15248559 57.6055253,6.89497269 C57.6055253,5.65166898 57.8399733,4.70322008 58.3088765,4.04959756 C58.7777796,3.39597504 59.456258,3.06916868 60.3443321,3.06916868 C61.2324062,3.06916868 61.9108846,3.39597504 62.3797877,4.04959756 C62.8486908,4.70322008 63.0831388,5.65166898 63.0831388,6.89497269 C63.0831388,8.14538099 62.8486908,9.10093437 62.3797877,9.76166149 C61.9108846,10.4223886 61.2324062,10.7527472 60.3443321,10.7527472 Z M60.3443321,9.6764068 C60.8274444,9.6764068 61.1791164,9.45439161 61.3993588,9.01035457 C61.6196012,8.56631753 61.7297207,7.86119729 61.7297207,6.89497269 C61.7297207,5.93585268 61.6196012,5.23783692 61.3993588,4.80090448 C61.1791164,4.36397203 60.8274444,4.14550908 60.3443321,4.14550908 C59.8612198,4.14550908 59.5095477,4.36397203 59.2893053,4.80090448 C59.069063,5.23783692 58.9589434,5.93585268 58.9589434,6.89497269 C58.9589434,7.86119729 59.069063,8.56631753 59.2893053,9.01035457 C59.5095477,9.45439161 59.8612198,9.6764068 60.3443321,9.6764068 Z M70.4256986,5.31776101 C71.0153798,5.31776101 71.455858,5.49359704 71.7471463,5.84527437 C72.0384346,6.19695171 72.1840765,6.73511653 72.1840765,7.45978498 L72.1840765,10.6568357 L70.8519721,10.6568357 L70.8519721,7.51306916 C70.8519721,7.11521197 70.7844794,6.82570416 70.6494922,6.64453705 C70.5145049,6.46336994 70.2978181,6.37278774 69.9994252,6.37278774 C69.6441956,6.37278774 69.3671206,6.493564 69.168192,6.73512015 C68.9692634,6.9766763 68.8698006,7.31413939 68.8698006,7.74751954 L68.8698006,10.6568357 L67.5376962,10.6568357 L67.5376962,7.51306916 C67.5376962,7.11521197 67.4719797,6.82570416 67.3405447,6.64453705 C67.2091097,6.46336994 66.9906468,6.37278774 66.6851493,6.37278774 C66.3370243,6.37278774 66.0635016,6.493564 65.864573,6.73512015 C65.6656444,6.9766763 65.5661816,7.31413939 65.5661816,7.74751954 L65.5661816,10.6568357 L64.2340771,10.6568357 L64.2340771,5.44564304 L65.5342111,5.44564304 L65.5342111,6.1809647 C65.6905121,5.89678099 65.9071989,5.68187029 66.184278,5.53622614 C66.4613571,5.39058199 66.7775068,5.31776101 67.1327364,5.31776101 C67.9213462,5.31776101 68.4435259,5.64456737 68.6992913,6.29818989 C68.8626969,5.99269241 69.0971449,5.752916 69.4026424,5.57885348 C69.7081399,5.40479096 70.0491552,5.31776101 70.4256986,5.31776101 Z M75.4557251,10.7420904 C74.9939266,10.7420904 74.5694335,10.6852545 74.1822332,10.571581 C73.7950329,10.4579075 73.4664504,10.2945043 73.1964759,10.0813666 L73.5694652,9.15422185 C74.1236234,9.55918364 74.7594749,9.76166149 75.4770387,9.76166149 C75.7825362,9.76166149 76.0152081,9.71193009 76.1750615,9.61246579 C76.3349148,9.51300149 76.4148403,9.37091177 76.4148403,9.18619236 C76.4148403,9.02989132 76.3597805,8.90911506 76.2496593,8.82385995 C76.1395381,8.73860484 75.9423887,8.66045549 75.658205,8.58940956 L74.8056581,8.39758652 C74.3225458,8.29101763 73.9637693,8.11695772 73.7293177,7.87540157 C73.4948661,7.63384542 73.3776421,7.32124803 73.3776421,6.93760003 C73.3776421,6.61789336 73.4682243,6.33549004 73.6493914,6.09038159 C73.8305585,5.84527315 74.0827678,5.65522815 74.4060268,5.52024089 C74.7292857,5.38525363 75.1040474,5.31776101 75.5303229,5.31776101 C75.8997617,5.31776101 76.2567622,5.3745969 76.6013349,5.48827038 C76.9459077,5.60194386 77.2496244,5.7617948 77.5124944,5.96782798 L77.1395051,6.87365902 C76.5995561,6.48290642 76.0596151,6.28753305 75.5196661,6.28753305 C75.2283778,6.28753305 75.0010342,6.3408167 74.8376286,6.44738559 C74.674223,6.55395448 74.5925214,6.70314869 74.5925214,6.89497269 C74.5925214,7.03706454 74.6440289,7.15428856 74.7470455,7.24664827 C74.8500621,7.33900797 75.0152414,7.41005283 75.2425884,7.45978498 L76.1271057,7.66226486 C76.645741,7.77593834 77.025831,7.95532661 77.2673871,8.20043506 C77.5089433,8.44554351 77.6297196,8.7670215 77.6297196,9.16487869 C77.6297196,9.64799099 77.4343462,10.0316332 77.0435936,10.3158169 C76.652841,10.6000007 76.1235568,10.7420904 75.4557251,10.7420904 Z" id="30ms"></path>
                    <path d="M107.612727,8.12050879 L107.612727,9.18619236 L106.5577,9.18619236 L106.5577,10.6568357 L105.214939,10.6568357 L105.214939,9.18619236 L101.953947,9.18619236 L101.953947,8.17379297 L105.449389,3.14376653 L106.5577,3.14376653 L106.5577,8.12050879 L107.612727,8.12050879 Z M103.232767,8.12050879 L105.214939,8.12050879 L105.214939,5.25381999 L103.232767,8.12050879 Z M111.097512,10.7527472 C110.209438,10.7527472 109.53096,10.4241647 109.062056,9.76698991 C108.593153,9.10981509 108.358705,8.15248559 108.358705,6.89497269 C108.358705,5.65166898 108.593153,4.70322008 109.062056,4.04959756 C109.53096,3.39597504 110.209438,3.06916868 111.097512,3.06916868 C111.985586,3.06916868 112.664065,3.39597504 113.132968,4.04959756 C113.601871,4.70322008 113.836319,5.65166898 113.836319,6.89497269 C113.836319,8.14538099 113.601871,9.10093437 113.132968,9.76166149 C112.664065,10.4223886 111.985586,10.7527472 111.097512,10.7527472 Z M111.097512,9.6764068 C111.580624,9.6764068 111.932296,9.45439161 112.152539,9.01035457 C112.372781,8.56631753 112.482901,7.86119729 112.482901,6.89497269 C112.482901,5.93585268 112.372781,5.23783692 112.152539,4.80090448 C111.932296,4.36397203 111.580624,4.14550908 111.097512,4.14550908 C110.6144,4.14550908 110.262728,4.36397203 110.042485,4.80090448 C109.822243,5.23783692 109.712123,5.93585268 109.712123,6.89497269 C109.712123,7.86119729 109.822243,8.56631753 110.042485,9.01035457 C110.262728,9.45439161 110.6144,9.6764068 111.097512,9.6764068 Z M121.178879,5.31776101 C121.76856,5.31776101 122.209038,5.49359704 122.500326,5.84527437 C122.791615,6.19695171 122.937256,6.73511653 122.937256,7.45978498 L122.937256,10.6568357 L121.605152,10.6568357 L121.605152,7.51306916 C121.605152,7.11521197 121.537659,6.82570416 121.402672,6.64453705 C121.267685,6.46336994 121.050998,6.37278774 120.752605,6.37278774 C120.397376,6.37278774 120.120301,6.493564 119.921372,6.73512015 C119.722443,6.9766763 119.622981,7.31413939 119.622981,7.74751954 L119.622981,10.6568357 L118.290876,10.6568357 L118.290876,7.51306916 C118.290876,7.11521197 118.22516,6.82570416 118.093725,6.64453705 C117.96229,6.46336994 117.743827,6.37278774 117.438329,6.37278774 C117.090204,6.37278774 116.816682,6.493564 116.617753,6.73512015 C116.418824,6.9766763 116.319362,7.31413939 116.319362,7.74751954 L116.319362,10.6568357 L114.987257,10.6568357 L114.987257,5.44564304 L116.287391,5.44564304 L116.287391,6.1809647 C116.443692,5.89678099 116.660379,5.68187029 116.937458,5.53622614 C117.214537,5.39058199 117.530687,5.31776101 117.885916,5.31776101 C118.674526,5.31776101 119.196706,5.64456737 119.452471,6.29818989 C119.615877,5.99269241 119.850325,5.752916 120.155822,5.57885348 C120.46132,5.40479096 120.802335,5.31776101 121.178879,5.31776101 Z M126.208905,10.7420904 C125.747107,10.7420904 125.322613,10.6852545 124.935413,10.571581 C124.548213,10.4579075 124.21963,10.2945043 123.949656,10.0813666 L124.322645,9.15422185 C124.876803,9.55918364 125.512655,9.76166149 126.230219,9.76166149 C126.535716,9.76166149 126.768388,9.71193009 126.928241,9.61246579 C127.088095,9.51300149 127.16802,9.37091177 127.16802,9.18619236 C127.16802,9.02989132 127.11296,8.90911506 127.002839,8.82385995 C126.892718,8.73860484 126.695569,8.66045549 126.411385,8.58940956 L125.558838,8.39758652 C125.075726,8.29101763 124.716949,8.11695772 124.482498,7.87540157 C124.248046,7.63384542 124.130822,7.32124803 124.130822,6.93760003 C124.130822,6.61789336 124.221404,6.33549004 124.402571,6.09038159 C124.583738,5.84527315 124.835948,5.65522815 125.159207,5.52024089 C125.482466,5.38525363 125.857227,5.31776101 126.283503,5.31776101 C126.652942,5.31776101 127.009942,5.3745969 127.354515,5.48827038 C127.699088,5.60194386 128.002804,5.7617948 128.265674,5.96782798 L127.892685,6.87365902 C127.352736,6.48290642 126.812795,6.28753305 126.272846,6.28753305 C125.981558,6.28753305 125.754214,6.3408167 125.590809,6.44738559 C125.427403,6.55395448 125.345701,6.70314869 125.345701,6.89497269 C125.345701,7.03706454 125.397209,7.15428856 125.500225,7.24664827 C125.603242,7.33900797 125.768421,7.41005283 125.995768,7.45978498 L126.880286,7.66226486 C127.398921,7.77593834 127.779011,7.95532661 128.020567,8.20043506 C128.262123,8.44554351 128.3829,8.7670215 128.3829,9.16487869 C128.3829,9.64799099 128.187526,10.0316332 127.796774,10.3158169 C127.406021,10.6000007 126.876737,10.7420904 126.208905,10.7420904 Z" id="40ms"></path>
                </g>
                <g id="yaxis" transform="translate(6.394101, 30.904823)" fill="#666666">
                    <path d="M5.82928912,9.54852477 L5.82928912,10.6568357 L0.777949005,10.6568357 L0.777949005,9.6444363 L3.33558957,6.89497269 C3.63398246,6.56816143 3.85244541,6.26799689 3.99098496,5.99447007 C4.12952452,5.72094326 4.19879326,5.44919666 4.19879326,5.17922214 C4.19879326,4.8382017 4.10110658,4.58066408 3.90573028,4.40660156 C3.71035398,4.23253904 3.42439842,4.14550908 3.04785501,4.14550908 C2.3729187,4.14550908 1.69444028,4.40482282 1.01239939,4.92345809 L0.554155456,3.92171553 C0.852548347,3.6588456 1.23441447,3.44748714 1.69976529,3.28763381 C2.16511611,3.12778047 2.63223607,3.04785501 3.10113918,3.04785501 C3.85422601,3.04785501 4.45100284,3.23257164 4.89148758,3.60201046 C5.33197232,3.97144928 5.55221139,4.46876331 5.55221139,5.09396746 C5.55221139,5.52734761 5.45985307,5.93407944 5.27513366,6.31417514 C5.09041426,6.69427085 4.77781687,7.11876389 4.33733212,7.58766701 L2.49369955,9.54852477 L5.82928912,9.54852477 Z M9.60180895,10.7527472 C8.71373487,10.7527472 8.03525645,10.4241647 7.56635334,9.76698991 C7.09745022,9.10981509 6.86300218,8.15248559 6.86300218,6.89497269 C6.86300218,5.65166898 7.09745022,4.70322008 7.56635334,4.04959756 C8.03525645,3.39597504 8.71373487,3.06916868 9.60180895,3.06916868 C10.489883,3.06916868 11.1683615,3.39597504 11.6372646,4.04959756 C12.1061677,4.70322008 12.3406157,5.65166898 12.3406157,6.89497269 C12.3406157,8.14538099 12.1061677,9.10093437 11.6372646,9.76166149 C11.1683615,10.4223886 10.489883,10.7527472 9.60180895,10.7527472 Z M9.60180895,9.6764068 C10.0849213,9.6764068 10.4365933,9.45439161 10.6568357,9.01035457 C10.8770781,8.56631753 10.9871976,7.86119729 10.9871976,6.89497269 C10.9871976,5.93585268 10.8770781,5.23783692 10.6568357,4.80090448 C10.4365933,4.36397203 10.0849213,4.14550908 9.60180895,4.14550908 C9.11869665,4.14550908 8.76702459,4.36397203 8.54678222,4.80090448 C8.32653985,5.23783692 8.21642031,5.93585268 8.21642031,6.89497269 C8.21642031,7.86119729 8.32653985,8.56631753 8.54678222,9.01035457 C8.76702459,9.45439161 9.11869665,9.6764068 9.60180895,9.6764068 Z M18.7134035,10.6568357 L17.0615939,10.6568357 L14.8236584,8.28036133 L14.8236584,10.6568357 L13.491554,10.6568357 L13.491554,3.14376653 L14.8236584,3.14376653 L14.8236584,7.72620587 L16.9230551,5.45629987 L18.5428941,5.45629987 L16.1983902,7.94999942 L18.7134035,10.6568357 Z" id="20k"></path>
                    <path d="M4.22010693,53.2415511 L5.85060279,53.2415511 L5.85060279,54.349862 L1.21487927,54.349862 L1.21487927,53.2415511 L2.84537513,53.2415511 L2.84537513,48.4033477 L1.55589801,49.1812967 L1.01239939,48.1795541 L3.23967805,46.8367928 L4.22010693,46.8367928 L4.22010693,53.2415511 Z M9.99611187,49.5436291 C10.465015,49.5436291 10.8788513,49.644868 11.2376332,49.8473489 C11.5964152,50.0498298 11.8734901,50.3322331 12.0688664,50.6945674 C12.2642427,51.0569016 12.3619294,51.472514 12.3619294,51.9414171 C12.3619294,52.4387386 12.2482576,52.8756645 12.0209107,53.2522079 C11.7935637,53.6287513 11.4720857,53.9200353 11.056467,54.1260684 C10.6408484,54.3321016 10.1524149,54.4351167 9.59115212,54.4351167 C9.122249,54.4351167 8.65868129,54.3551912 8.20043506,54.1953379 C7.74218883,54.0354845 7.36387495,53.8241261 7.06548206,53.5612562 L7.52372599,52.5595136 C8.20576689,53.0781489 8.90200652,53.3374626 9.61246579,53.3374626 C10.0813689,53.3374626 10.4401455,53.2202386 10.6888062,52.985787 C10.9374669,52.7513355 11.0617954,52.4174246 11.0617954,51.9840445 C11.0617954,51.5648735 10.9356908,51.2327388 10.6834778,50.9876303 C10.4312647,50.7425219 10.0884733,50.6199695 9.65509313,50.6199695 C9.36380483,50.6199695 9.088506,50.6750293 8.82918837,50.7851505 C8.56987073,50.8952716 8.33719882,51.0533465 8.13116563,51.2593797 L7.31058928,51.2593797 L7.31058928,46.8367928 L12.0209107,46.8367928 L12.0209107,47.9024764 L8.65335058,47.9024764 L8.65335058,49.9272752 C9.0156848,49.6715099 9.46326743,49.5436291 9.99611187,49.5436291 Z M18.7027466,54.349862 L17.0509371,54.349862 L14.8130016,51.9733876 L14.8130016,54.349862 L13.4808971,54.349862 L13.4808971,46.8367928 L14.8130016,46.8367928 L14.8130016,51.4192322 L16.9123982,49.1493262 L18.5322373,49.1493262 L16.1877334,51.6430257 L18.7027466,54.349862 Z" id="15k"></path>
                    <path d="M9.99611187,93.2366554 C10.465015,93.2366554 10.8788513,93.3378943 11.2376332,93.5403752 C11.5964152,93.7428561 11.8734901,94.0252594 12.0688664,94.3875937 C12.2642427,94.7499279 12.3619294,95.1655403 12.3619294,95.6344434 C12.3619294,96.1317649 12.2482576,96.5686908 12.0209107,96.9452342 C11.7935637,97.3217776 11.4720857,97.6130616 11.056467,97.8190948 C10.6408484,98.0251279 10.1524149,98.128143 9.59115212,98.128143 C9.122249,98.128143 8.65868129,98.0482175 8.20043506,97.8883642 C7.74218883,97.7285109 7.36387495,97.5171524 7.06548206,97.2542825 L7.52372599,96.2525399 C8.20576689,96.7711752 8.90200652,97.0304889 9.61246579,97.0304889 C10.0813689,97.0304889 10.4401455,96.9132649 10.6888062,96.6788133 C10.9374669,96.4443618 11.0617954,96.1104509 11.0617954,95.6770708 C11.0617954,95.2578998 10.9356908,94.9257651 10.6834778,94.6806567 C10.4312647,94.4355482 10.0884733,94.3129958 9.65509313,94.3129958 C9.36380483,94.3129958 9.088506,94.3680556 8.82918837,94.4781768 C8.56987073,94.588298 8.33719882,94.7463728 8.13116563,94.952406 L7.31058928,94.952406 L7.31058928,90.5298192 L12.0209107,90.5298192 L12.0209107,91.5955027 L8.65335058,91.5955027 L8.65335058,93.6203015 C9.0156848,93.3645362 9.46326743,93.2366554 9.99611187,93.2366554 Z M18.7027466,98.0428883 L17.0509371,98.0428883 L14.8130016,95.666414 L14.8130016,98.0428883 L13.4808971,98.0428883 L13.4808971,90.5298192 L14.8130016,90.5298192 L14.8130016,95.1122585 L16.9123982,92.8423525 L18.5322373,92.8423525 L16.1877334,95.336052 L18.7027466,98.0428883 Z" id="5k"></path>
                </g>
            </g>
        </g>
    </g>
</svg>