<svg width="180" height="180" viewBox="0 0 180 180" fill="none" xmlns="http://www.w3.org/2000/svg">
<path d="M180 0H0V180H180V0Z" fill="white"/>
<g clip-path="url(#clip0)">
<path d="M95.5189 86.944V86.8878C95.5189 84.8605 94.8978 83.3966 93.7133 82.2139C92.3309 80.8345 90.102 79.9617 86.6035 79.9617H76.9544V99.6688H83.5565V94.0384H84.9671L88.691 99.669H96.2238L91.6253 92.9689C94.0232 91.8144 95.5189 89.8154 95.5189 86.944ZM88.9452 87.4225C88.9452 88.6333 87.9859 89.3368 86.4058 89.3368H83.5565V85.4795H86.4346C87.9579 85.4795 88.9452 86.0993 88.9452 87.3663V87.4225ZM99.7193 99.6688H106.321V79.9616H99.7195L99.7193 99.6688ZM120.961 79.5393C114.868 79.5393 110.156 84.1001 110.156 89.8154V89.8716C110.156 95.5866 114.811 100.091 120.905 100.091C126.999 100.091 131.71 95.5304 131.71 89.8154V89.7592C131.71 84.0438 127.056 79.5393 120.961 79.5393ZM125.053 89.8716C125.053 92.1804 123.473 94.2634 120.961 94.2632C118.422 94.2632 116.814 92.1517 116.814 89.8154V89.7591C116.814 87.4506 118.394 85.3671 120.905 85.3671C123.444 85.3671 125.053 87.4787 125.053 89.8154V89.8716ZM133.597 79.9617V85.5364H139.409V99.6688H146.01V85.5364H151.822V79.9616L133.597 79.9617Z" fill="#ED1846"/>
<path d="M29 73.3124C29 73.1399 29.1394 73 29.3114 73H52.4545C58.5904 73 63.2532 77.991 63.2532 84.1476V85.2466C63.2532 86.0072 62.6366 86.6238 61.8759 86.6238H56.8465C56.4662 86.6238 56.1579 86.3156 56.1579 85.9353C56.1579 85.2872 56.1579 84.3821 56.1579 84.1476C56.1579 82.0954 54.4998 80.4317 52.4545 80.4317H36.7181C36.5461 80.4317 36.4067 80.5716 36.4067 80.7442V106.13C36.4067 106.303 36.2669 106.443 36.095 106.436C32.149 106.272 29 103.011 29 99.0111V73.3124Z" fill="#ED1846"/>
<path d="M42.8903 87.8635C42.7183 87.8635 42.5783 88.0038 42.5854 88.1762C42.7487 92.1356 45.9994 95.2952 49.9856 95.2952H54.9234C55.6052 95.2952 56.1579 95.8498 56.1579 96.5338V106.13C56.1579 106.303 56.2977 106.443 56.4695 106.436C60.4156 106.272 63.5646 103.011 63.5646 99.0111V96.5338C63.5646 91.7453 59.6958 87.8635 54.9234 87.8635H42.8903Z" fill="#ED1846"/>
</g>
<defs>
<clipPath id="clip0">
<rect width="123" height="33.5454" fill="white" transform="translate(29 73)"/>
</clipPath>
</defs>
</svg>
