<svg width="180" height="180" viewBox="0 0 180 180" fill="none" xmlns="http://www.w3.org/2000/svg">
<path d="M180 0H0V180H180V0Z" fill="white"/>
<g clip-path="url(#clip0_2_2)">
<path d="M36.2059 73.9995H63.7642C63.7989 73.999 63.8331 74.0073 63.8636 74.0237C63.8941 74.0401 63.9199 74.064 63.9384 74.0932C63.9571 74.1225 63.9679 74.1559 63.9699 74.1905C63.9718 74.2251 63.9651 74.2596 63.9498 74.2907C61.5741 79.0883 57.993 83.1865 53.5574 86.1841C46.3925 91.0182 39.1776 91.5174 36.208 91.5441C36.1809 91.5446 36.1539 91.5398 36.1287 91.5299C36.1035 91.5199 36.0805 91.5049 36.0612 91.486C36.0418 91.467 36.0264 91.4444 36.0159 91.4193C36.0054 91.3943 36 91.3674 36 91.3403V74.2033C36 74.1763 36.0053 74.1497 36.0157 74.1248C36.0261 74.1 36.0413 74.0774 36.0604 74.0585C36.0796 74.0395 36.1023 74.0245 36.1272 74.0144C36.1522 74.0043 36.1789 73.9993 36.2059 73.9995Z" fill="#FF6250"/>
<path d="M42.1536 105.999C45.5521 105.999 48.3072 103.244 48.3072 99.8455C48.3072 96.447 45.5521 93.6919 42.1536 93.6919C38.7551 93.6919 36 96.447 36 99.8455C36 103.244 38.7551 105.999 42.1536 105.999Z" fill="#FFDF90"/>
<path d="M54.7327 105.635C52.9919 104.97 52.0659 103.054 52.6559 101.358L57.3011 88.1019C57.8963 86.4059 59.7897 85.5707 61.5305 86.2352C63.2713 86.9009 64.1971 88.8155 63.6073 90.5125L58.9619 103.769C58.3667 105.465 56.4735 106.301 54.7327 105.635Z" fill="#3366FF"/>
<path d="M79.5048 97.4522C78.4061 97.4522 77.4422 97.194 76.613 96.6778C75.7697 96.1434 75.1021 95.3729 74.693 94.4623C74.2408 93.5023 74.0157 92.3744 74.0178 91.0788C74.02 89.7832 74.2496 88.6472 74.7069 87.6708C75.1232 86.745 75.7934 85.9561 76.6397 85.3956C77.4936 84.8464 78.4916 84.5634 79.5069 84.5828C80.6056 84.5828 81.5453 84.8491 82.3261 85.3817C83.1069 85.9144 83.6352 86.6738 83.9112 87.6602L83.6168 87.8564V84.8783H86.0776V97.2846H83.6178V94.2564L83.9122 94.3802C83.6328 95.3644 83.104 96.1228 82.3261 96.6554C81.5482 97.188 80.6077 97.4536 79.5048 97.4522ZM80.0946 95.4831C81.2118 95.4831 82.0772 95.0973 82.6909 94.3258C83.3046 93.5542 83.6118 92.4548 83.6125 91.0276C83.6125 89.6004 83.3053 88.501 82.6909 87.7295C82.0765 86.958 81.211 86.5721 80.0946 86.5721C78.9632 86.5721 78.0812 86.9696 77.4482 87.7646C76.8154 88.5597 76.4996 89.662 76.501 91.0714C76.501 92.4836 76.8168 93.5712 77.4482 94.3342C78.0797 95.0973 78.9618 95.4802 80.0946 95.4831Z" fill="black"/>
<path d="M89.6943 97.2789V88.3679C89.6943 87.7929 89.6837 87.2105 89.6571 86.6196C89.6303 86.0287 89.5781 85.4463 89.4981 84.8724H91.8607L92.0827 87.3833L91.8363 87.5305C92.1967 86.562 92.7749 85.8282 93.5707 85.329C94.3945 84.8218 95.3469 84.5626 96.3141 84.5823C99.2837 84.5823 100.769 86.2481 100.77 89.5797V97.2842H98.2831V89.6745C98.2831 88.6079 98.0699 87.8285 97.6431 87.3365C97.2165 86.8443 96.5601 86.598 95.6741 86.5972C94.6075 86.5972 93.7587 86.9255 93.1279 87.5817C92.4973 88.2381 92.1815 89.1163 92.1807 90.2165V97.281H89.6943V97.2789Z" fill="black"/>
<path d="M104.12 79.4581H107V82.0672H104.12V79.4581ZM104.292 97.28V84.8736H106.778V97.28H104.292Z" fill="black"/>
<path d="M110.396 97.2797V88.3689C110.396 87.7939 110.386 87.2115 110.361 86.6206C110.337 86.0358 110.283 85.4527 110.2 84.8734H112.563L112.785 87.3843L112.538 87.4825C112.848 86.563 113.365 85.849 114.089 85.3406C114.813 84.8321 115.675 84.5779 116.674 84.5779C117.855 84.5779 118.779 84.8687 119.447 85.4504C120.115 86.0321 120.544 86.9291 120.734 88.1417L120.145 87.7235C120.397 86.792 120.968 85.9782 121.757 85.4227C122.555 84.8538 123.494 84.5694 124.574 84.5694C125.953 84.5694 126.987 84.9832 127.676 85.811C128.365 86.6387 128.71 87.8895 128.71 89.5635V97.2691H126.225V89.6713C126.225 88.6045 126.038 87.8249 125.671 87.3321C125.304 86.8393 124.711 86.5939 123.885 86.5939C122.935 86.5939 122.184 86.9221 121.635 87.5785C121.085 88.2347 120.81 89.1293 120.809 90.2621V97.2777H118.323V89.6713C118.323 88.6045 118.134 87.8249 117.756 87.3321C117.379 86.8393 116.788 86.5932 115.985 86.5939C115.015 86.5939 114.257 86.9221 113.708 87.5785C113.16 88.2347 112.885 89.1293 112.883 90.2621V97.2777H110.396V97.2797Z" fill="black"/>
<path d="M137.055 97.4515C135.957 97.4515 134.993 97.1933 134.165 96.6771C133.321 96.1427 132.654 95.3724 132.245 94.4617C131.792 93.5017 131.566 92.3739 131.566 91.0781C131.566 89.7825 131.796 88.6465 132.255 87.6701C132.672 86.7451 133.342 85.9565 134.187 85.395C135.041 84.8455 136.04 84.5626 137.055 84.5822C138.155 84.5822 139.094 84.8485 139.873 85.3811C140.653 85.9137 141.182 86.6732 141.46 87.6595L141.164 87.8557V84.8777H143.626V97.2841H141.164V94.2557L141.46 94.3795C141.18 95.3637 140.651 96.1221 139.873 96.6547C139.096 97.1873 138.156 97.4529 137.055 97.4515ZM137.644 95.4825C138.761 95.4825 139.627 95.0967 140.243 94.3251C140.858 93.5535 141.165 92.4541 141.164 91.0269C141.164 89.5997 140.857 88.5005 140.243 87.7289C139.628 86.9573 138.762 86.5715 137.644 86.5715C136.513 86.5715 135.63 86.9691 134.997 87.7641C134.363 88.5591 134.048 89.6613 134.051 91.0707C134.051 92.4829 134.366 93.5707 134.997 94.3337C135.627 95.0967 136.51 95.4797 137.644 95.4825Z" fill="black"/>
</g>
<defs>
<clipPath id="clip0_2_2">
<rect width="108.8" height="32" fill="white" transform="translate(36 74)"/>
</clipPath>
</defs>
</svg>
