<svg width="180" height="180" viewBox="0 0 180 180" fill="none" xmlns="http://www.w3.org/2000/svg">
<rect width="180" height="180" fill="white"/>
<path d="M67.6893 98.8112C66.3008 98.8462 64.9342 98.4601 63.7693 97.7037C62.6809 96.9859 61.8727 95.9154 61.4805 94.672L63.8666 93.795C64.1966 94.5593 64.7375 95.213 65.424 95.6822C66.122 96.1498 66.9466 96.3919 67.7866 96.3759C68.5937 96.4181 69.3902 96.1771 70.0386 95.6945C70.3206 95.4577 70.5434 95.1583 70.6893 94.8202C70.8352 94.482 70.9 94.1145 70.8787 93.7468C70.8818 93.4045 70.8024 93.0664 70.6472 92.7612C70.5121 92.4877 70.3355 92.2368 70.1236 92.0174C69.8555 91.7735 69.5514 91.5724 69.222 91.4211C68.8918 91.2532 68.5548 91.099 68.2118 90.959C67.8212 90.8092 67.4277 90.6671 67.0315 90.5328C66.5409 90.3641 66.0538 90.1855 65.5705 89.997C65.1299 89.8105 64.7037 89.5943 64.2918 89.3515C63.8491 89.1165 63.4465 88.8125 63.0993 88.4509C62.7987 88.0978 62.5562 87.699 62.381 87.2696C62.0452 86.4512 61.975 85.5481 62.1804 84.6877C62.3857 83.8272 62.8563 83.0531 63.5255 82.4747C64.4988 81.614 65.8225 81.1837 67.4936 81.1837C68.8901 81.1837 70.0386 81.4911 70.9392 82.1089C71.8135 82.6903 72.4555 83.5607 72.7526 84.5678L70.4166 85.3465C70.1816 84.8188 69.7847 84.3796 69.2835 84.0924C68.6775 83.7565 67.9913 83.5925 67.2989 83.6181C66.6201 83.5793 65.9478 83.7679 65.3881 84.1539C65.1596 84.3311 64.9772 84.5608 64.8565 84.8236C64.7357 85.0863 64.6802 85.3743 64.6945 85.6631C64.6986 86.1108 64.8933 86.536 65.2293 86.8311C65.5531 87.1507 65.9332 87.4069 66.3492 87.5872C66.7385 87.7491 67.3327 87.9683 68.1268 88.2439C68.6134 88.4232 68.9751 88.5564 69.2097 88.6456C69.4454 88.7347 69.7906 88.8853 70.2445 89.0964C70.6089 89.2574 70.9591 89.4486 71.2916 89.6681C71.5887 89.8832 71.8746 90.1148 72.1441 90.3627C72.4381 90.6168 72.6881 90.917 72.8869 91.251C73.0764 91.5973 73.2229 91.9651 73.3254 92.3473C73.4493 92.794 73.5108 93.2571 73.5077 93.7223C73.5077 95.3134 72.9647 96.5593 71.8766 97.4598C70.7886 98.3615 69.3931 98.8112 67.6893 98.8112V98.8112ZM83.2953 98.5192L77.4523 81.4757H80.1786L84.0504 93.3575C84.2646 93.9958 84.4428 94.6464 84.5863 95.3042C84.7287 94.6464 84.907 93.9958 85.1211 93.3575L88.9437 81.4757H91.6465L85.827 98.5192H83.2964H83.2953ZM96.8082 98.5192V81.4757H107.376V83.8619H99.3399V88.5359H104.526V90.9232H99.3399V96.133H107.91V98.5192H96.8082V98.5192ZM114.362 98.5192V81.4757H116.895V96.0839H125.221V98.5192H114.362ZM134.765 83.9101V98.5192H132.233V83.909H127.413V81.4757H139.587V83.9101H134.765V83.9101ZM144.821 98.5192V81.4757H155.387V83.8619H147.353V88.5359H152.539V90.9232H147.353V96.133H155.923V98.5192H144.821Z" fill="#4A4A55"/>
<path d="M49.9296 78.233C46.9584 73.9811 41.0897 72.7209 36.846 75.4236L29.3944 80.1735C28.3876 80.8069 27.524 81.6435 26.8589 82.6297C26.1938 83.6158 25.7418 84.73 25.5318 85.9008C25.1767 87.8725 25.4892 89.9063 26.4201 91.6803C25.7819 92.648 25.3465 93.7351 25.1404 94.8759C24.9283 96.0702 24.9568 97.2949 25.2242 98.478C25.4916 99.6612 25.9926 100.779 26.6977 101.766C29.669 106.019 35.5376 107.279 39.7813 104.576L47.233 99.8266C48.2398 99.1932 49.1035 98.3567 49.7686 97.3705C50.4337 96.3843 50.8856 95.2701 51.0955 94.0993C51.4509 92.1274 51.1387 90.0933 50.2083 88.3187C50.8457 87.3512 51.2803 86.2644 51.4859 85.1242C51.6983 83.9299 51.6701 82.7053 51.4029 81.5221C51.1356 80.3389 50.6347 79.221 49.9296 78.234" fill="#FF3E00"/>
<path d="M36.1186 102.167C34.9458 102.471 33.7078 102.409 32.5716 101.988C31.4354 101.567 30.4559 100.807 29.7653 99.8111C29.3412 99.2176 29.0399 98.5454 28.8791 97.8339C28.7183 97.1225 28.7012 96.386 28.8288 95.6678C28.8719 95.4322 28.9313 95.1996 29.0071 94.9711L29.1475 94.5439L29.5296 94.8236C30.4113 95.4716 31.3971 95.9643 32.4445 96.2805L32.7211 96.3645L32.6955 96.6412C32.6617 97.0346 32.7683 97.427 32.9967 97.7487C33.2046 98.0486 33.4995 98.2775 33.8415 98.4044C34.1836 98.5314 34.5564 98.5504 34.9096 98.4587C35.0715 98.4157 35.2262 98.3481 35.3676 98.2579L42.8192 93.5091C43.188 93.2765 43.4421 92.9005 43.52 92.4712C43.5581 92.2547 43.5528 92.0327 43.5042 91.8183C43.4557 91.6039 43.3649 91.4012 43.2372 91.2223C43.0292 90.9223 42.7341 90.6934 42.3919 90.5664C42.0496 90.4395 41.6767 90.4205 41.3233 90.5123C41.1617 90.5555 41.0076 90.6232 40.8664 90.7131L38.0232 92.5265C37.555 92.8237 37.0448 93.047 36.5099 93.1904C35.337 93.4955 34.0988 93.4332 32.9624 93.0119C31.826 92.5907 30.8463 91.8308 30.1556 90.835C29.7317 90.2414 29.4307 89.5692 29.27 88.8577C29.1094 88.1462 29.0925 87.4098 29.2202 86.6917C29.3466 85.9879 29.6185 85.3182 30.0184 84.7254C30.4184 84.1327 30.9376 83.6299 31.5429 83.2492L38.9945 78.4993C39.4623 78.2013 39.973 77.9767 40.5088 77.8334C41.6818 77.5284 42.9202 77.5909 44.0565 78.0123C45.1929 78.4338 46.1725 79.1938 46.8631 80.1898C47.2872 80.7833 47.5884 81.4555 47.7493 82.167C47.9101 82.8785 47.9272 83.615 47.7996 84.3331C47.7555 84.5688 47.6971 84.8014 47.6213 85.0298L47.4809 85.4571L47.0998 85.1774C46.2179 84.5292 45.2318 84.0364 44.1839 83.7205L43.9073 83.6364L43.9329 83.3598C43.9664 82.9663 43.8597 82.5736 43.6317 82.2512C43.4238 81.9514 43.1289 81.7225 42.7868 81.5955C42.4448 81.4685 42.072 81.4496 41.7188 81.5412C41.5567 81.5847 41.4023 81.6528 41.2608 81.7431L33.8082 86.4909C33.4393 86.7234 33.1853 87.0995 33.1084 87.5287C33.0306 87.9662 33.132 88.416 33.3902 88.7777C33.8154 89.3924 34.5797 89.6752 35.303 89.4877C35.4649 89.4447 35.6196 89.377 35.761 89.2869L38.6052 87.4744C39.0734 87.1773 39.5836 86.9519 40.1184 86.8095C41.2912 86.5047 42.5293 86.5671 43.6654 86.9884C44.8016 87.4096 45.7811 88.1693 46.4717 89.165C46.8958 89.7585 47.1971 90.4307 47.3579 91.1422C47.5187 91.8536 47.5358 92.5901 47.4082 93.3083C47.2817 94.0122 47.0098 94.682 46.6099 95.2749C46.21 95.8679 45.6908 96.3709 45.0855 96.7518L37.6318 101.501C37.164 101.799 36.6534 102.023 36.1175 102.167" fill="white"/>
</svg>
