<svg width="180" height="180" viewBox="0 0 180 180" fill="none" xmlns="http://www.w3.org/2000/svg">
<rect width="180" height="180" fill="white"/>
<path d="M62.752 74L58.479 81.4004L54.206 74H40L58.479 106L76.962 74H62.752Z" fill="#4DBA87"/>
<path d="M62.752 74L58.479 81.4004L54.206 74H47.3934L58.479 93.199L69.5646 74H62.752Z" fill="#435466"/>
<path d="M94.1241 77.596C93.9585 77.5832 93.7932 77.6249 93.6535 77.7148C93.5137 77.8046 93.4072 77.9377 93.35 78.0937L88.8337 93.4453L84.2783 78.0937C84.1761 77.7582 83.8647 77.603 83.4781 77.603C82.9133 77.603 82.1513 77.9635 82.1513 78.5063C82.1531 78.5773 82.1674 78.6474 82.1933 78.7135L87.4878 95.8937C87.643 96.4014 88.2078 96.6418 88.7996 96.6418C89.4215 96.6418 89.9863 96.3874 90.1696 95.8937L95.4209 78.6995C95.4269 78.6374 95.437 78.5764 95.449 78.5163C95.449 77.9935 94.729 77.585 94.1081 77.585L94.1241 77.597V77.596ZM105.548 84.2313C104.955 84.2313 104.462 84.5928 104.462 84.9804V91.7278C104.462 93.28 103.145 94.7491 101.518 94.7491C99.8622 94.7491 98.5523 93.252 98.5523 91.7278V85.0114C98.5523 84.6229 98.0356 84.2343 97.4939 84.2343C96.873 84.2343 96.4063 84.6249 96.4063 85.0114V91.7309C96.4063 94.3425 98.7076 96.6928 101.526 96.6928C104.292 96.6928 106.616 94.3666 106.616 91.7309V84.9864C106.616 84.5988 106.178 84.2373 105.557 84.2373L105.548 84.2303V84.2313ZM116.894 90.9768C118.058 90.9768 119.195 90.8987 119.195 88.8308C119.195 86.0669 116.866 84.0781 114.231 84.0781C111.388 84.0781 109.089 86.3222 109.089 88.962V91.6728C109.089 94.665 111.475 96.6838 114.834 96.6838C117.348 96.6838 118.928 95.5122 118.928 94.8492C118.928 94.4537 118.575 93.8608 118.053 93.8608C117.415 93.8608 116.867 94.8623 114.933 94.8623C112.787 94.8623 111.263 93.6486 111.263 91.7289V90.9528L116.894 90.9768V90.9768ZM111.233 88.5995C111.233 87.0222 112.579 85.7755 114.206 85.7755C114.984 85.7736 115.731 86.0802 116.284 86.6282C116.836 87.1761 117.148 87.9206 117.152 88.6986C117.152 89.3695 116.919 89.5238 116.023 89.5238H111.233V88.5995V88.5995ZM122.348 93.9219C122.17 93.9219 121.994 93.957 121.829 94.0251C121.665 94.0932 121.516 94.193 121.39 94.3188C121.264 94.4446 121.164 94.594 121.096 94.7583C121.028 94.9227 120.993 95.0989 120.993 95.2768C120.993 95.4548 121.028 95.631 121.096 95.7953C121.164 95.9597 121.264 96.1091 121.39 96.2349C121.516 96.3607 121.665 96.4605 121.829 96.5286C121.994 96.5967 122.17 96.6317 122.348 96.6317C122.707 96.6317 123.052 96.489 123.306 96.2349C123.56 95.9808 123.703 95.6362 123.703 95.2768C123.703 94.9175 123.56 94.5729 123.306 94.3188C123.052 94.0647 122.707 93.9219 122.348 93.9219V93.9219ZM127.207 84.2313C126.586 84.2313 126.148 84.5417 126.148 84.9804V97.516C126.148 99.2484 125.964 100.514 124.519 100.514C124.038 100.514 123.644 100.902 123.644 101.47C123.644 101.921 123.926 102.387 124.758 102.387C127.243 102.387 128.302 100.369 128.302 97.503V84.9824C128.302 84.5447 127.821 84.2343 127.215 84.2343L127.207 84.2313V84.2313ZM127.207 78.4161C126.459 78.4161 125.863 78.9799 125.863 79.6298C125.863 80.2787 126.456 80.8716 127.207 80.8716C127.931 80.8716 128.524 80.2787 128.524 79.6298C128.524 78.9799 127.918 78.4241 127.198 78.4241L127.207 78.4161ZM132.839 87.6171C132.839 86.841 133.459 85.8075 135.192 85.8075C136.692 85.8075 137.493 86.5556 137.959 86.5556C138.474 86.5556 138.806 85.8075 138.806 85.4711C138.806 84.747 136.971 84.0741 135.161 84.0741C132.056 84.0741 130.926 85.9878 130.926 87.6932C130.926 91.9842 137.232 90.2007 137.232 93.3261C137.232 94.1543 136.639 94.9544 134.776 94.9544C132.503 94.9544 131.952 93.7407 131.366 93.7407C130.929 93.7407 130.618 94.3335 130.618 94.7291C130.618 95.6043 132.375 96.6918 134.854 96.6918C137.618 96.6918 139.167 95.3469 139.167 93.228C139.167 88.5554 132.839 90.2638 132.839 87.6241V87.6171V87.6171Z" fill="#2C3E50"/>
</svg>
