<svg width="180" height="180" viewBox="0 0 180 180" fill="none" xmlns="http://www.w3.org/2000/svg">
<rect width="180" height="180" fill="white"/>
<path d="M30 76L43.6596 76V103.222H30L30 76Z" fill="black"/>
<path d="M57.3192 82.8056C57.3192 86.5642 54.2614 89.6111 50.4894 89.6111C46.7174 89.6111 43.6596 86.5642 43.6596 82.8056C43.6596 79.047 46.7174 76 50.4894 76C54.2614 76 57.3192 79.047 57.3192 82.8056Z" fill="black"/>
<path d="M65.4894 102.743V84.2823H68.3258L68.5412 87.5023C68.9122 86.5005 69.5765 85.6836 70.5339 85.0515C71.5033 84.4195 72.6882 84.1035 74.0884 84.1035V87.2518C72.5685 87.2518 71.3178 87.699 70.3364 88.5935C69.2593 89.5714 68.6968 91.0263 68.6489 92.9582V102.743H65.4894Z" fill="black"/>
<path d="M75.1663 93.5486C75.1663 90.7103 75.9861 88.4026 77.6257 86.6257C79.2893 84.7892 81.4435 83.8709 84.0885 83.8709C86.6616 83.8709 88.7082 84.6938 90.2281 86.3395C91.7481 87.9733 92.508 90.2809 92.508 93.2623V94.765H78.4336C78.5532 96.4465 79.1337 97.7762 80.1749 98.7541C81.2161 99.732 82.5446 100.221 84.1603 100.221C86.7334 100.221 88.403 99.2192 89.1689 97.2157H92.3285C91.7421 99.0999 90.7427 100.561 89.3305 101.598C87.9183 102.636 86.1709 103.155 84.0885 103.155C81.4435 103.155 79.3013 102.272 77.6616 100.507C75.9981 98.7183 75.1663 96.3988 75.1663 93.5486ZM78.4695 91.9386H89.3126C89.2886 90.3763 88.7979 89.1301 87.8405 88.1999C86.883 87.2697 85.6324 86.8046 84.0885 86.8046C82.5446 86.8046 81.27 87.2757 80.2647 88.2178C79.2594 89.1599 78.661 90.4002 78.4695 91.9386Z" fill="black"/>
<path d="M96.3685 102.743V76H99.528V102.743H96.3685Z" fill="black"/>
<path d="M103.388 97.9491C103.388 95.0393 105.118 93.2564 108.577 92.6005L114.232 91.5272V90.6148C114.232 88.0747 113.095 86.8046 110.821 86.8046C109.696 86.8046 108.78 87.1028 108.074 87.699C107.38 88.2953 107.033 89.1241 107.033 90.1855H103.909C103.957 88.3967 104.615 86.8941 105.884 85.6776C107.164 84.4732 108.81 83.8709 110.821 83.8709C112.903 83.8709 114.525 84.4493 115.686 85.6061C116.859 86.7509 117.445 88.3848 117.445 90.5075V102.743H114.573L114.429 100.221C113.914 101.127 113.166 101.843 112.185 102.368C111.204 102.892 110.073 103.155 108.792 103.155C107.152 103.155 105.842 102.684 104.861 101.741C103.879 100.799 103.388 99.5352 103.388 97.9491ZM106.584 97.9133C106.584 98.6408 106.829 99.2073 107.32 99.6127C107.811 100.018 108.511 100.221 109.42 100.221C111.036 100.221 112.287 99.6068 113.172 98.3784C113.878 97.4125 114.232 96.2795 114.232 94.9796V94.282L109.169 95.3732C108.307 95.5878 107.661 95.886 107.23 96.2676C106.799 96.6492 106.584 97.1978 106.584 97.9133Z" fill="black"/>
<path d="M119.456 87.216V84.2823H122.921L122.957 79.6671H126.152L126.117 84.2823H130.856V87.216H126.081L126.009 97.1083C126.009 98.2055 126.194 98.9807 126.565 99.4338C126.948 99.887 127.643 100.114 128.648 100.114C129.462 100.114 130.198 100 130.856 99.7737V102.6C130.198 102.862 129.33 102.994 128.253 102.994C128.205 102.994 128.157 102.994 128.109 102.994C126.314 102.994 124.986 102.564 124.124 101.706C123.274 100.871 122.849 99.577 122.849 97.8239C122.849 97.7762 122.849 97.7285 122.849 97.6808L122.921 87.216H119.456Z" fill="black"/>
<path d="M132.544 93.5486C132.544 90.7103 133.364 88.4026 135.004 86.6257C136.667 84.7892 138.821 83.8709 141.466 83.8709C144.04 83.8709 146.086 84.6938 147.606 86.3395C149.126 87.9733 149.886 90.2809 149.886 93.2623V94.765H135.811C135.931 96.4465 136.512 97.7762 137.553 98.7541C138.594 99.732 139.922 100.221 141.538 100.221C144.111 100.221 145.781 99.2192 146.547 97.2157H149.706C149.12 99.0999 148.121 100.561 146.708 101.598C145.296 102.636 143.549 103.155 141.466 103.155C138.821 103.155 136.679 102.272 135.039 100.507C133.376 98.7183 132.544 96.3988 132.544 93.5486ZM135.847 91.9386H146.69C146.666 90.3763 146.176 89.1301 145.218 88.1999C144.261 87.2697 143.01 86.8046 141.466 86.8046C139.922 86.8046 138.648 87.2757 137.643 88.2178C136.637 89.1599 136.039 90.4002 135.847 91.9386Z" fill="black"/>
</svg>
