<svg xmlns="http://www.w3.org/2000/svg" viewBox="0 0 47.625 47.625" height="180" width="180">
<rect width="180" height="180" fill="white"/>
<g transform="translate(0,-249.37501)">
<path d="m 8.567104,267.81176 -1.1305656,1.59234 v 0.90012 l -0.9838067,0.46794 -0.00883,-0.004 v 5.87236 l 3.8356743,1.81214 0.234407,0.11056 0.234383,-0.11056 3.835676,-1.81214 v -5.87238 l -0.0072,0.004 -0.984104,-0.46814 v -0.89917 l -0.03442,-0.0484 -1.096199,-1.54395 -1.13061,1.59234 v 8.8e-4 l -0.822712,-1.15865 -0.8162751,1.14971 -0.029185,-0.0411 z m 0.2000365,0.92492 0.4372696,0.61589 H 7.929795 l 0.4322174,-0.60864 z m 3.8949035,0 0.437339,0.61589 h -1.274614 l 0.432099,-0.60864 z m -1.953276,0.43538 0.437292,0.61577 H 9.8715843 l 0.4320777,-0.60863 z m -2.8997933,0.49086 h 0.6044761 v 2.03556 l -0.6045214,-0.28562 z m 0.9148824,0 h 0.6014895 v 2.46629 l -0.6015122,-0.28416 z m 2.9801349,0 h 0.604454 v 2.18004 l -0.604454,0.28556 z m 0.914769,0 h 0.601467 v 1.74927 l -0.601467,0.2841 z m -2.8680896,0.43527 h 0.6045226 v 2.51751 l -0.6045226,-0.28563 z m 0.9148826,0 h 0.601468 v 2.2368 l -0.601468,0.28418 z m 28.736029,0.22225 -0.003,1.13322 -0.607671,-0.004 v 0.46174 h 0.609463 v 2.43445 c 0,0.17731 0.0138,0.34176 0.04187,0.49332 l 2.59e-4,8.9e-4 2.61e-4,8.8e-4 c 0.03441,0.15483 0.09259,0.28982 0.175547,0.40245 0.08369,0.11359 0.195695,0.20086 0.330877,0.25984 0.137891,0.0656 0.305672,0.0962 0.502537,0.0962 0.08974,0 0.192457,-0.0147 0.310202,-0.0426 a 2.8185565,2.8185565 0 0 0 0.350702,-0.10841 l 0.06846,-0.0261 -0.147679,-0.44278 -0.07743,0.0356 c -0.150434,0.0652 -0.297859,0.11396 -0.45551,0.11484 -0.127001,0 -0.226826,-0.0183 -0.299953,-0.0496 -0.06976,-0.0378 -0.123691,-0.085 -0.164633,-0.14386 -0.04273,-0.0669 -0.07415,-0.14367 -0.09399,-0.23196 -0.01529,-0.0977 -0.02329,-0.20653 -0.02329,-0.32687 v -2.467 H 41.04809 V 271.449 h -1.129431 v -1.1295 z m -25.808989,0.44677 0.532246,0.21759 -0.532246,0.25143 z m -6.1560556,7e-4 v 0.46896 l -0.5321316,-0.2514 z m 24.9406746,0.58426 6.9e-5,6e-5 v 6e-5 c -0.256187,0 -0.504837,0.063 -0.7423,0.18748 l -3.54e-4,2.6e-4 -3.54e-4,1.6e-4 c -0.191834,0.10303 -0.351918,0.21039 -0.520229,0.33741 l -0.003,-0.42772 h -0.500152 v 5.81609 h 0.510122 v -2.07894 c 0.16716,0.11396 0.332301,0.21287 0.493994,0.28473 l 7.75e-4,2.7e-4 8.45e-4,5.4e-4 c 0.202886,0.0846 0.40274,0.12771 0.598159,0.12771 0.237785,0 0.46576,-0.0486 0.681166,-0.14478 l 4.33e-4,-1.7e-4 4.37e-4,-2.6e-4 c 0.220851,-0.10196 0.414088,-0.24695 0.577827,-0.4333 l -1.75e-4,7e-5 c 0.16955,-0.19219 0.301723,-0.42326 0.396626,-0.69125 0.09548,-0.26961 0.14249,-0.57368 0.14249,-0.91116 0,-0.61739 -0.132425,-1.11679 -0.404325,-1.49085 l -8.9e-5,-1.9e-4 c -0.274035,-0.3824 -0.694283,-0.5761 -1.231949,-0.5761 z m -12.353673,6e-5 v 6e-5 c -0.256211,0 -0.504838,0.063 -0.742301,0.18748 l -3.47e-4,2.6e-4 -3.48e-4,1.6e-4 c -0.191835,0.10303 -0.351921,0.21045 -0.520253,0.33748 l -0.003,-0.42779 h -0.50019 v 5.81615 h 0.510097 v -2.07897 c 0.16716,0.11396 0.332278,0.21286 0.493992,0.2847 l 7.76e-4,5.5e-4 8.47e-4,5.4e-4 c 0.202886,0.0846 0.40274,0.1277 0.598157,0.1277 0.237785,0 0.465759,-0.0486 0.681165,-0.14476 l 3.49e-4,-2.6e-4 4.34e-4,-1.8e-4 c 0.22083,-0.10196 0.414089,-0.24698 0.577827,-0.43329 l -1.75e-4,7e-5 c 0.169551,-0.19218 0.301722,-0.42326 0.396629,-0.69126 0.09548,-0.26958 0.142487,-0.57367 0.142487,-0.91117 0,-0.61739 -0.132424,-1.11679 -0.404323,-1.49086 l -8.8e-5,-1.6e-4 c -0.274037,-0.38241 -0.694237,-0.57613 -1.231906,-0.57613 z m 8.305647,0 v 6e-5 c -0.283274,0 -0.540035,0.0716 -0.763575,0.21476 -0.182531,0.11244 -0.359409,0.25553 -0.532774,0.41788 l 0.0035,-0.53508 H 26.54639 v 4.05283 h 0.510213 V 272.562 c 0.226365,-0.22919 0.430216,-0.4462 0.606223,-0.55685 l 5.98e-4,-5.4e-4 5.98e-4,-5.3e-4 c 0.17759,-0.11674 0.372551,-0.1744 0.591885,-0.1744 0.30363,0 0.499417,0.0897 0.619251,0.26704 l 7.03e-4,8.8e-4 7.05e-4,8.8e-4 c 0.125709,0.17407 0.196775,0.465 0.196775,0.87354 v 2.53015 h 0.510168 v -2.57894 c 0,-0.51865 -0.09503,-0.91215 -0.30046,-1.17628 -0.205827,-0.2646 -0.532497,-0.39517 -0.954031,-0.39517 z m -4.194764,6e-5 c -0.227859,0 -0.450756,0.0516 -0.665703,0.15325 -8.7e-5,7e-5 -1.72e-4,1.6e-4 -3.47e-4,1.6e-4 -0.210192,0.0967 -0.400121,0.23876 -0.568662,0.42414 l -4.4e-5,6e-5 c -0.164314,0.1813 -0.296255,0.40391 -0.396583,0.66587 l -2.61e-4,7e-4 -2.61e-4,7e-4 c -0.09557,0.26422 -0.142715,0.5603 -0.142715,0.88724 0,0.32692 0.04714,0.62304 0.142715,0.88725 l 2.61e-4,7.2e-4 4.37e-4,6.9e-4 c 0.10048,0.25682 0.235325,0.47925 0.404599,0.66545 l 4.34e-4,5.5e-4 3.48e-4,5.4e-4 c 0.169459,0.18076 0.368393,0.32003 0.594597,0.4162 l 2.6e-4,8e-5 3.49e-4,9e-5 c 0.23142,0.096 0.477568,0.14391 0.736142,0.14391 0.293957,0 0.53955,-0.0411 0.737016,-0.12796 l 3.52e-4,-2.7e-4 c 0.191998,-0.0822 0.368049,-0.17034 0.528135,-0.26418 l 0.06312,-0.0369 -0.222046,-0.41936 -0.07136,0.053 c -0.140373,0.10388 -0.278839,0.16862 -0.445518,0.23121 -0.158246,0.0561 -0.353436,0.0848 -0.55724,0.0848 -0.212329,0 -0.400902,-0.0201 -0.568546,-0.0962 -0.169367,-0.0822 -0.31461,-0.19192 -0.437661,-0.33006 -0.117868,-0.14376 -0.210812,-0.31351 -0.278448,-0.51114 -2.2e-5,-6e-5 -2.2e-5,-1.7e-4 -6.9e-5,-1.7e-4 -0.05998,-0.18012 -0.09154,-0.37517 -0.102534,-0.58143 h 2.812599 c 0,-0.0795 0.0076,-0.15586 0.0078,-0.22259 v -0.14624 c 0,-0.58597 -0.135939,-1.05019 -0.416158,-1.38189 -0.279643,-0.33099 -0.67218,-0.49831 -1.155193,-0.49831 z m 12.363299,0 c -0.242976,0 -0.476027,0.0485 -0.696718,0.14451 -0.220761,0.0962 -0.416663,0.23545 -0.585844,0.4159 l -4.37e-4,5.4e-4 -5.16e-4,5.3e-4 c -0.164563,0.18159 -0.296529,0.40711 -0.396811,0.67453 l -1.74e-4,5.4e-4 -1.74e-4,5.5e-4 c -0.09562,0.26438 -0.142669,0.56316 -0.142669,0.89533 0,0.33226 0.04705,0.63107 0.142669,0.89544 l 3.54e-4,7.1e-4 3.52e-4,7.1e-4 c 0.100395,0.25652 0.232341,0.47625 0.396378,0.65726 l 4.34e-4,5.4e-4 4.35e-4,5.6e-4 c 0.169159,0.18046 0.365016,0.31963 0.585774,0.41589 0.220692,0.0962 0.453835,0.14448 0.696812,0.14448 0.243,0 0.476096,-0.0485 0.696765,-0.14452 0.225976,-0.0962 0.422198,-0.23542 0.586259,-0.41629 0.169825,-0.18126 0.30218,-0.40161 0.397271,-0.65877 0.10125,-0.2646 0.151148,-0.56379 0.151148,-0.89622 0,-0.33232 -0.04986,-0.63135 -0.151033,-0.89589 -0.09495,-0.2677 -0.227215,-0.49364 -0.397456,-0.67536 -0.164037,-0.18084 -0.360237,-0.32019 -0.586189,-0.41634 -0.220645,-0.0962 -0.453743,-0.14447 -0.696695,-0.14447 z m -29.5851124,0.15553 3.3669294,1.59053 v 4.83552 l -3.3669294,-1.59052 z m 7.2026054,0 v 4.83551 l -3.366885,1.59055 v -4.83552 z m 10.027225,0.30585 h 7e-5 c 0.334093,0 0.585891,0.11333 0.77814,0.34607 l 1.74e-4,2.6e-4 2.6e-4,2.8e-4 c 0.178647,0.21155 0.275991,0.54418 0.286582,0.99574 H 22.89112 c 0.02422,-0.19113 0.06444,-0.36665 0.127416,-0.51975 0.07816,-0.1768 0.173618,-0.32595 0.286031,-0.44869 0.118082,-0.12303 0.247203,-0.2139 0.388657,-0.27452 l 9.73e-4,-5.6e-4 0.0011,-5.3e-4 c 0.141913,-0.0659 0.289982,-0.0986 0.447242,-0.0986 z m -4.175738,0.007 v 7e-5 c 0.212166,0 0.388126,0.0411 0.5319,0.12052 l 8.85e-4,5.3e-4 8.84e-4,5.7e-4 c 0.145612,0.0754 0.26193,0.18163 0.352701,0.32283 l 4.36e-4,5.4e-4 3.46e-4,5.5e-4 c 0.09125,0.13686 0.158383,0.3034 0.200107,0.50153 l 1.73e-4,8.8e-4 2.61e-4,6.9e-4 c 0.04723,0.19942 0.07107,0.4156 0.07107,0.64874 0,0.2587 -0.03431,0.49445 -0.102096,0.70818 l -2.59e-4,5.4e-4 -1.74e-4,5.4e-4 c -0.06277,0.20927 -0.150941,0.38751 -0.26393,0.53647 -0.112825,0.14873 -0.247135,0.2625 -0.404898,0.34393 -0.157215,0.0811 -0.325661,0.12152 -0.509367,0.12152 -0.138946,0 -0.30358,-0.0352 -0.492337,-0.10853 -0.176764,-0.0687 -0.373263,-0.23766 -0.585133,-0.40572 v -2.15884 c 0.224689,-0.19146 0.434308,-0.37314 0.625523,-0.47379 l 2.6e-4,-9e-5 3.48e-4,-2.5e-4 c 0.202633,-0.10904 0.393068,-0.16155 0.573209,-0.16155 z m 12.353672,0 7e-5,7e-5 c 0.212166,0 0.388127,0.0411 0.531899,0.12052 l 8.85e-4,5.3e-4 8.85e-4,5.7e-4 c 0.145589,0.0754 0.261907,0.18163 0.35268,0.32283 l 4.32e-4,5.4e-4 3.55e-4,5.5e-4 c 0.09119,0.13686 0.15836,0.3034 0.200082,0.50153 l 1.74e-4,8.8e-4 2.61e-4,6.9e-4 c 0.04723,0.19942 0.07107,0.4156 0.07107,0.64874 0,0.2587 -0.03431,0.49445 -0.102095,0.70818 l -2.59e-4,5.4e-4 -1.77e-4,5.4e-4 c -0.06279,0.20927 -0.15094,0.38751 -0.263951,0.53647 -0.112813,0.14873 -0.247112,0.2625 -0.404876,0.34393 -0.157235,0.0811 -0.325682,0.12152 -0.509386,0.12152 -0.138948,0 -0.30356,-0.0352 -0.492338,-0.10853 -0.176765,-0.0687 -0.373264,-0.23766 -0.585111,-0.40572 v -2.15884 c 0.22469,-0.19146 0.434285,-0.37314 0.625499,-0.47379 l 2.6e-4,-1.7e-4 3.54e-4,-1.7e-4 c 0.202634,-0.10904 0.393044,-0.16155 0.573209,-0.16155 z m 4.177419,0 v 7e-5 c 0.183679,0 0.352125,0.0403 0.509341,0.12153 l 0.0015,5.4e-4 0.0012,5.5e-4 c 0.162313,0.0761 0.298186,0.18662 0.410413,0.33454 l 8.48e-4,8.7e-4 8.85e-4,9e-4 c 0.118044,0.14372 0.211245,0.31649 0.279136,0.52014 0.06743,0.20234 0.101679,0.42962 0.101679,0.68277 0,0.24755 -0.03419,0.47211 -0.101711,0.67462 -0.06786,0.20363 -0.161073,0.37637 -0.279138,0.52007 l -5.15e-4,7e-4 -4.34e-4,7.2e-4 c -0.112333,0.14292 -0.248997,0.25424 -0.412457,0.33606 -0.157375,0.0762 -0.326488,0.11407 -0.510742,0.11407 -0.184025,0 -0.353,-0.038 -0.510237,-0.11383 -0.158063,-0.0818 -0.295335,-0.19348 -0.413469,-0.33717 -0.112776,-0.14371 -0.203506,-0.31675 -0.271442,-0.52059 -0.06753,-0.20253 -0.101785,-0.42705 -0.101785,-0.67463 0,-0.2531 0.03431,-0.48038 0.101785,-0.68275 0.068,-0.20409 0.158846,-0.37729 0.271788,-0.52111 l 8.6e-5,-7e-5 8.7e-5,-2.6e-4 c 0.118132,-0.14888 0.254831,-0.25995 0.41193,-0.33597 l 8.84e-4,-5.5e-4 8.46e-4,-5.4e-4 c 0.157212,-0.0812 0.325705,-0.12165 0.509408,-0.12165 z"/>
</g>
</svg>
