<svg width="180" height="180" viewBox="0 0 180 180" fill="none" xmlns="http://www.w3.org/2000/svg">
<rect width="180" height="180" fill="white"/>
<path fill-rule="evenodd" clip-rule="evenodd" d="M89 61.5677C73.2973 61.5677 60.5677 74.2973 60.5677 90C60.5677 105.703 73.2973 118.432 89 118.432C104.703 118.432 117.432 105.703 117.432 90C117.432 74.2973 104.703 61.5677 89 61.5677ZM55 90C55 71.2223 70.2223 56 89 56C107.778 56 123 71.2223 123 90C123 108.778 107.778 124 89 124C70.2223 124 55 108.778 55 90Z" fill="black"/>
<path d="M89 109.598C99.8238 109.598 108.598 100.824 108.598 90C108.598 79.1762 99.8238 70.4017 89 70.4017C78.1762 70.4017 69.4017 79.1762 69.4017 90C69.4017 100.824 78.1762 109.598 89 109.598Z" fill="#ABABAB"/>
<path fill-rule="evenodd" clip-rule="evenodd" d="M124.114 68.9171C124.114 73.5197 120.402 77.2315 115.799 77.2315C111.196 77.2315 107.485 73.5197 107.485 68.9171C107.485 64.3145 111.196 60.6027 115.799 60.6027C120.365 60.6027 124.114 64.3145 124.114 68.9171Z" fill="#ABABAB"/>
</svg>
