<svg width="180" height="180" viewBox="0 0 180 180" fill="none" xmlns="http://www.w3.org/2000/svg">
<rect width="180" height="180" fill="white"/>
<path d="M90 122C107.673 122 122 107.673 122 90C122 72.3269 107.673 58 90 58C72.3269 58 58 72.3269 58 90C58 107.673 72.3269 122 90 122Z" fill="url(#paint0_linear)"/>
<path d="M103.069 95.5894C102.87 95.5986 102.674 95.633 102.484 95.6918C102.228 95.7637 101.965 95.8067 101.699 95.8198C101.511 95.8372 101.321 95.7983 101.155 95.7079C100.989 95.6175 100.853 95.4797 100.765 95.3121C100.578 94.8212 100.501 94.2956 100.539 93.7718V89.9745H102.672C103.581 89.9745 104.037 89.5179 104.037 88.5579C104.037 87.5979 103.581 87.1414 102.672 87.1414H100.539V84.9142C100.539 84.0054 99.9797 83.5489 98.832 83.5489C97.6843 83.5489 97.1253 84.0054 97.1253 84.9142V87.1414H96.2635C95.3504 87.1414 94.8939 87.5979 94.8939 88.5579C94.8939 89.5179 95.3504 89.9745 96.2635 89.9745H97.1467V93.7718C97.1467 94.9323 97.1979 96.0203 97.7056 96.9334C98.2603 97.9446 99.3483 98.6785 101.17 98.6785C102.039 98.6953 102.899 98.499 103.675 98.1067C103.86 98.0186 104.016 97.8785 104.124 97.7036C104.231 97.5287 104.286 97.3264 104.281 97.1211C104.281 96.5793 104.003 95.5894 103.069 95.5894V95.5894ZM92.8075 88.2934C92.8075 87.3803 92.2528 86.9281 91.1008 86.9281C89.9488 86.9281 89.3941 87.3803 89.3941 88.2934V97.2534C89.3941 98.1622 89.9488 98.6187 91.1008 98.6187C92.2528 98.6187 92.8075 98.1622 92.8075 97.2534V88.2934ZM93.1104 83.5745C93.0866 83.0603 92.8657 82.575 92.4934 82.2196C92.1211 81.8641 91.6262 81.6658 91.1115 81.6658C90.5967 81.6658 90.1018 81.8641 89.7295 82.2196C89.3573 82.575 89.1363 83.0603 89.1125 83.5745C89.1363 84.0886 89.3573 84.5739 89.7295 84.9293C90.1018 85.2848 90.5967 85.4831 91.1115 85.4831C91.6262 85.4831 92.1211 85.2848 92.4934 84.9293C92.8657 84.5739 93.0866 84.0886 93.1104 83.5745V83.5745ZM81.5392 86.9153C80.6837 86.8782 79.8366 87.0981 79.1072 87.5467V82.687C79.1072 81.7782 78.5525 81.3217 77.4005 81.3217C76.2485 81.3217 75.6939 81.7782 75.6939 82.687V95.487C75.6939 96.3403 75.6939 97.1937 76.8544 97.8379C78.009 98.4397 79.2992 98.7336 80.6005 98.6913C84.5472 98.6913 86.7488 96.3105 86.7488 92.6198C86.7488 88.9291 84.624 86.9153 81.5392 86.9153V86.9153ZM80.6517 95.9435C80.1128 95.9568 79.5799 95.8273 79.1072 95.5681V90.1537C79.5684 89.8127 80.1295 89.6341 80.7029 89.6459C82.2688 89.6459 83.3099 90.8107 83.3099 92.8331C83.3099 94.8555 82.2944 95.9435 80.6517 95.9435V95.9435Z" fill="white"/>
<defs>
<linearGradient id="paint0_linear" x1="90" y1="122" x2="90" y2="58" gradientUnits="userSpaceOnUse">
<stop stop-color="#594B96"/>
<stop offset="1" stop-color="#743A8D"/>
</linearGradient>
</defs>
</svg>
