<svg width="180" height="180" viewBox="0 0 180 180" fill="none" xmlns="http://www.w3.org/2000/svg">
<rect width="180" height="180" fill="white"/>
<path d="M40.1057 74.5873L50.3915 80.3592C51.8268 81.1647 52.7143 82.6753 52.7143 84.3128V95.6873C52.7143 97.3247 51.8268 98.8353 50.3915 99.6408L40.1057 105.413C38.7103 106.196 37.004 106.196 35.6085 105.413L25.3228 99.6408C23.8876 98.8353 23 97.3247 23 95.6873V84.3128C23 82.6753 23.8876 81.1647 25.3228 80.3592L35.6085 74.5873C37.004 73.8042 38.7103 73.8042 40.1057 74.5873ZM24.7143 84.3588V95.6873C24.7143 96.7038 25.2663 97.6433 26.1618 98.1458L36.3014 103.836C36.4327 103.887 36.5727 103.913 36.7143 103.913C37.3455 103.913 37.8572 103.401 37.8572 102.77V93.6137C37.8572 92.1214 37.0265 90.7532 35.7026 90.0648L34.9478 89.6723C34.7698 89.5965 34.594 89.5135 34.421 89.4232L24.7143 84.3588ZM35.3484 88.4099C37.1702 89.3604 38.549 89.3604 40.3709 88.4099L50.2181 82.8817C49.9757 82.3264 49.5551 81.8527 49.0049 81.5439L39.2669 76.0823C38.3925 75.5916 37.3218 75.5916 36.4474 76.0823L26.7279 81.5439C26.1777 81.8527 25.7571 82.3264 25.5147 82.8817L35.3484 88.4099ZM37.8572 78C40 78 41.7493 79.0531 41.8524 80.3765L41.8572 82.6429C41.8572 84.0236 40.0663 85.1428 37.8572 85.1428C35.648 85.1428 33.8572 84.0236 33.8572 82.6429V80.3765C33.965 79.0531 35.7143 78 37.8572 78ZM37.8576 82C39.7133 82 41.2176 81.2478 41.2176 80.32C41.2176 79.3922 39.7133 78.64 37.8576 78.64C36.0019 78.64 34.4976 79.3922 34.4976 80.32C34.4976 81.2478 36.0019 82 37.8576 82Z" fill="#5A45FF"/>
<path fill-rule="evenodd" clip-rule="evenodd" d="M68.4717 90.8592C68.4717 92.1409 68.8013 93.1709 69.4605 93.949C70.1196 94.7273 70.9893 95.1163 72.0697 95.1163C73.1133 95.1163 73.9647 94.7227 74.6239 93.9354C75.2831 93.1479 75.6127 92.1135 75.6127 90.8318C75.6127 89.5683 75.2923 88.5613 74.6514 87.8106C74.0106 87.0598 73.1592 86.6845 72.0971 86.6845C71.0351 86.6845 70.1655 87.0644 69.4879 87.8243C68.8105 88.5842 68.4717 89.5958 68.4717 90.8592ZM78.6888 77.7034V97.5882H76.8887C76.4121 97.5882 75.9757 97.3207 75.7593 96.8961C75.6432 96.6684 75.5852 96.4469 75.5852 96.2318C75.2155 96.6544 74.9215 97.0093 74.2257 97.3938C73.5298 97.7783 72.6098 97.9178 71.7127 97.9178C69.8083 97.9178 68.2611 97.2495 67.0709 95.9129C65.8809 94.5761 65.2858 92.8916 65.2858 90.8592C65.2858 88.9 65.8854 87.243 67.0847 85.888C68.2841 84.533 69.8083 83.8556 71.6577 83.8556C72.7197 83.8556 73.5757 84.0478 74.2257 84.4323C74.8756 84.8168 75.3289 85.2655 75.5852 85.7781V77.7034H78.6888ZM90.0572 84.0478V87.2887H89.6474C87.2488 87.2887 86.0494 88.5979 86.0494 91.2162V97.5882H82.8635V84.2126H84.9296C85.2961 84.2126 85.6209 84.4489 85.7337 84.7976L86.0494 85.774C86.2015 85.4571 86.6241 84.7535 87.3635 84.4007C88.103 84.0478 88.9608 84.0478 89.8396 84.0478H90.0572ZM91.8425 93.9628C91.8425 92.8275 92.2133 91.9166 92.9548 91.23C93.6964 90.5434 94.6714 90.1085 95.8799 89.9254L99.313 89.4035C99.9722 89.312 100.302 88.9916 100.302 88.4422C100.302 87.8381 100.091 87.3483 99.6701 86.9729C99.249 86.5975 98.6172 86.4098 97.775 86.4098C96.9693 86.4098 96.3285 86.6341 95.8524 87.0828C95.3764 87.5313 95.1017 88.1126 95.0285 88.8268L92.1573 88.7994C92.2855 87.5908 92.8221 85.9292 93.8475 85.0778C94.8728 84.2263 96.1728 83.8006 97.7476 83.8006C99.6884 83.8006 101.121 84.2675 102.046 85.2014C102.97 86.1351 103.433 87.3345 103.433 88.7994V95.4459C103.433 96.3248 103.488 97.0388 103.598 97.5882H101.884C101.703 97.5882 101.524 97.5549 101.355 97.4901C100.787 97.2722 100.502 96.9175 100.502 96.4262C99.8687 97.4826 98.2419 98.0001 96.3742 98.0001C95.0193 98.0001 93.9253 97.6019 93.0922 96.8054C92.259 96.009 91.8425 95.0613 91.8425 93.9628ZM96.9785 95.5008C97.9673 95.5008 98.7684 95.2307 99.3817 94.6906C99.9951 94.1504 100.302 93.267 100.302 92.0402V91.4359L96.8137 91.9579C95.6235 92.1593 95.0285 92.7634 95.0285 93.7706C95.0285 94.2466 95.2024 94.654 95.5503 94.9927C95.8982 95.3314 96.3742 95.5008 96.9785 95.5008ZM113.21 80.845C112.679 80.845 112.217 80.996 111.823 81.2981C111.43 81.6003 111.233 82.1267 111.233 82.8774V84.2126H114.336V86.9867H111.233V97.5882H108.019V86.9867H105.685V84.2126H106.602C107.385 84.2126 108.019 83.5779 108.019 82.795C108.019 81.3119 108.45 80.14 109.31 79.2794C110.171 78.4189 111.297 77.9886 112.689 77.9886H114.336V80.845H113.21ZM121.832 80.1752V84.2676H124.606V87.0964H121.832V93.3036C121.832 93.8895 121.97 94.3152 122.244 94.5807C122.519 94.8462 122.949 94.979 123.535 94.979H123.973V97.8079H122.684C121.439 97.8079 120.459 97.4555 119.745 96.7505C119.031 96.0455 118.674 95.0705 118.674 93.8255V87.0964H116.202V84.2676H116.889C117.566 84.2676 118.079 84.0753 118.427 83.6908C118.775 83.3063 118.949 82.8027 118.949 82.1802V80.1752H121.832ZM127.188 77.64H130.291V85.8246C130.548 85.3119 131.081 84.8908 131.73 84.5063C132.381 84.1218 133.415 83.8725 134.477 83.8725C136.327 83.8725 137.804 84.4697 139.004 85.8246C140.203 87.1796 140.604 88.8852 140.604 90.8444C140.604 92.8769 140.207 94.5127 139.017 95.8494C137.827 97.186 136.17 97.922 134.266 97.922C133.369 97.922 132.558 97.715 131.863 97.3305C131.167 96.9459 130.662 96.5909 130.291 96.1684C130.291 96.3836 130.234 96.605 130.118 96.8327C129.901 97.2574 129.465 97.5248 128.988 97.5248H127.188V77.64ZM136.41 93.9628C137.087 93.1937 137.426 92.1593 137.426 90.8592C137.426 89.5591 137.097 88.5384 136.438 87.7968C135.778 87.0552 134.909 86.6845 133.828 86.6845C132.784 86.6845 131.924 87.0552 131.247 87.7968C130.569 88.5384 130.231 89.5591 130.231 90.8592C130.231 92.1409 130.569 93.1663 131.247 93.9354C131.924 94.7043 132.784 95.0889 133.828 95.0889C134.891 95.0889 135.751 94.7135 136.41 93.9628ZM143.715 87.3584H142.399V84.1894H145.568V84.2126H146.875V97.5882H143.715V87.3584ZM143.825 80.9717C143.423 80.5689 143.222 80.0837 143.222 79.5161C143.222 78.9485 143.423 78.4587 143.825 78.0467C144.228 77.6347 144.714 77.4287 145.281 77.4287C145.867 77.4287 146.362 77.6301 146.765 78.0329C147.167 78.4358 147.369 78.9301 147.369 79.5161C147.369 80.0837 147.167 80.5689 146.765 80.9717C146.362 81.3745 145.867 81.576 145.281 81.576C144.714 81.576 144.228 81.3745 143.825 80.9717ZM155.032 80.1203V84.2126H157.805V87.0415H155.032V93.2486C155.032 93.8346 155.169 94.2603 155.443 94.5258C155.719 94.7914 156.148 94.9241 156.734 94.9241H157.171V97.753H155.883C154.638 97.753 153.658 97.4005 152.944 96.6956C152.23 95.9906 151.873 95.0156 151.873 93.7706V87.0415H149.401V84.2126H150.088C150.765 84.2126 151.278 84.0204 151.626 83.6359C151.974 83.2513 152.147 82.7478 152.147 82.1253V80.1203H155.032Z" fill="#16192F"/>
</svg>
