<svg width="180" height="180" viewBox="0 0 180 180" fill="none" xmlns="http://www.w3.org/2000/svg">
<rect width="180" height="180" fill="white"/>
<path d="M89.9952 84.3486H86.1664V101.053H89.9952V84.3486Z" fill="#FF3366"/>
<path d="M75.7264 96.6224L71.2352 84.3488H70V73.6288C70.0004 73.1524 69.907 72.6806 69.7249 72.2404C69.5429 71.8001 69.2759 71.4001 68.9392 71.063C68.6025 70.726 68.2027 70.4587 67.7626 70.2763C67.3225 70.0939 66.8508 70 66.3744 70H33.6256C32.664 70 31.7418 70.382 31.0619 71.0619C30.382 71.7418 30 72.664 30 73.6256V106.374C30 107.336 30.382 108.258 31.0619 108.938C31.7418 109.618 32.664 110 33.6256 110H66.3744C67.336 110 68.2582 109.618 68.9381 108.938C69.618 108.258 70 107.336 70 106.374V91.4048L73.9872 101.179H77.4352L84.2688 84.3488H80.2512L75.7264 96.6224Z" fill="#FF3366"/>
<path d="M100.15 91.1822C98.1887 90.5422 96.3839 90.043 96.3839 88.8414V88.7774C96.3839 87.7966 97.2383 87.1006 98.7247 87.1006C99.5368 87.1216 100.34 87.2773 101.101 87.5614V87.5614L101.125 87.5726L101.344 87.6542C101.949 87.8462 103.584 88.1022 104.96 85.9646C103.187 84.7934 100.91 84.0654 98.8207 84.0654C95.4991 84.0622 92.8799 85.9998 92.8799 89.1566V89.2206C92.8799 92.4206 95.6319 93.4286 98.1007 94.1246C100.062 94.7262 101.835 95.1678 101.835 96.4654V96.5278C101.835 97.635 100.886 98.331 99.2399 98.331C98.0301 98.3052 96.8407 98.0146 95.7551 97.4798C95.4111 97.3342 93.6239 96.723 92.0959 98.8974C94.1138 100.467 96.5891 101.335 99.1455 101.369C102.626 101.369 105.347 99.6302 105.347 96.1166V96.0542C105.339 93.0478 102.587 91.9406 100.15 91.1822Z" fill="#FF3366"/>
<path d="M123.12 84C118 84 114.197 87.9536 114.197 92.7632C114.197 97.5408 117.962 101.432 123.056 101.432C128.214 101.432 132.016 97.4768 132.016 92.6992C132.011 87.8912 128.24 84 123.12 84ZM123.12 98.1104C120.146 98.1104 118.026 95.6736 118.026 92.6992C118.026 89.7568 119.987 87.352 123.056 87.352C126.061 87.352 128.176 89.7888 128.176 92.7632C128.182 95.7056 126.219 98.1104 123.12 98.1104Z" fill="#FF3366"/>
<path d="M111.699 84.3486H107.87V101.053H111.699V84.3486Z" fill="#FF3366"/>
<path d="M143.368 84C140.773 84 139.224 85.36 138.147 86.9424V84.3488H134.32V101.053H138.147V91.624C138.147 89.0304 139.698 87.48 141.912 87.48C144.19 87.48 145.486 88.9664 145.486 91.56V101.053H149.315V90.4224C149.315 86.5312 147.133 84 143.368 84Z" fill="#FF3366"/>
<path d="M43.3679 82.5855C43.8403 82.577 44.2997 82.4292 44.6885 82.1608C45.0773 81.8923 45.3782 81.515 45.5535 81.0763C45.7287 80.6375 45.7706 80.1568 45.6738 79.6943C45.5771 79.2318 45.3459 78.8082 45.0094 78.4766C44.6729 78.1449 44.246 77.9199 43.7822 77.8299C43.3184 77.7398 42.8383 77.7887 42.4021 77.9703C41.9659 78.1519 41.5931 78.4583 41.3303 78.8509C41.0675 79.2435 40.9264 79.705 40.9247 80.1775C40.9258 80.4964 40.9899 80.8119 41.1135 81.1059C41.2371 81.3999 41.4177 81.6665 41.6448 81.8904C41.8719 82.1142 42.1411 82.2909 42.4369 82.4102C42.7326 82.5295 43.0491 82.5891 43.3679 82.5855V82.5855Z" fill="white"/>
<path d="M38.3008 95.4786C38.1623 96.072 38.0899 96.6789 38.0848 97.2882C38.0848 99.4082 39.2352 100.816 41.6784 100.816C43.7056 100.816 45.3488 99.613 46.5312 97.669L45.8096 100.568H49.84L52.1392 91.3442C52.7136 89.0082 53.8272 87.7954 55.5168 87.7954C56.8464 87.7954 57.6736 88.6226 57.6736 89.9874C57.6777 90.4253 57.6151 90.8612 57.488 91.2802L56.3024 95.5202C56.1334 96.1041 56.0488 96.7092 56.0512 97.317C56.0512 99.3298 57.2368 100.802 59.7168 100.802C61.8368 100.802 63.5264 99.437 64.4608 96.1618L62.88 95.5522C62.0896 97.7426 61.4064 98.1394 60.8672 98.1394C60.328 98.1394 60.04 97.781 60.04 97.0626C60.0549 96.6835 60.1151 96.3075 60.2192 95.9426L61.3696 91.8114C61.6274 90.9648 61.7606 90.0852 61.7648 89.2002C61.7648 86.1106 59.896 84.4978 57.632 84.4978C55.512 84.4978 53.3552 86.4178 52.2784 88.4226L53.0688 84.8098H46.9248L46.0624 87.9922H48.9424L47.1728 95.0802C45.7824 98.1698 43.2288 98.221 42.9088 98.149C42.3824 98.0306 42.0464 97.829 42.0464 97.1474C42.0622 96.5909 42.1465 96.0385 42.2976 95.5026L44.9856 84.8114H38.16L37.296 87.9922H40.1344L38.3008 95.4786Z" fill="white"/>
</svg>
