<svg viewBox="0 0 234 235" width="234" height="235" xmlns="http://www.w3.org/2000/svg">
  <g fill="#FFF" fill-rule="evenodd">
    <path d="M118.014 234.496c-.038.004-.077.004-.116.004h-1.796c-.039 0-.078 0-.116-.004-28.596-.243-54.744-10.744-74.945-28.003v26.468c0 .85-.69 1.539-1.54 1.539h-1.796c-.85 0-1.54-.69-1.54-1.54V202.19H1.54c-.85 0-1.539-.69-1.539-1.54v-1.796c0-.85.69-1.539 1.54-1.539h29.91C12.154 176.64.263 148.964.004 118.514 0 118.476 0 118.437 0 118.398v-1.796c0-.039 0-.078.004-.116C.247 87.944 10.71 61.84 27.911 41.654H1.539c-.85 0-1.539-.69-1.539-1.54V38.32c0-.85.69-1.54 1.54-1.54h30.765a117.733 117.733 0 013.86-3.865V2.039c0-.85.69-1.539 1.54-1.539h1.796c.85 0 1.54.69 1.54 1.54v26.467C61.24 11.248 87.39.747 115.986.504c.038-.004.077-.004.116-.004h1.796c.039 0 .078 0 .116.004 28.489.242 54.549 10.666 74.719 27.81V2.04c0-.85.689-1.539 1.539-1.539h1.796c.85 0 1.54.69 1.54 1.54v30.657a117.734 117.734 0 014.087 4.082h30.766c.85 0 1.539.69 1.539 1.54v1.796c0 .85-.69 1.54-1.54 1.54h-26.37c17.201 20.185 27.663 46.289 27.906 74.831.004.038.004.077.004.116v1.796c0 .039 0 .078-.004.116-.259 30.45-12.15 58.126-31.446 78.8h29.91c.85 0 1.54.69 1.54 1.54v1.795c0 .85-.69 1.54-1.54 1.54h-34.733l-.12.114v30.658c0 .85-.689 1.539-1.539 1.539h-1.796c-.85 0-1.54-.69-1.54-1.54v-26.274c-20.17 17.144-46.23 27.568-74.718 27.81zm-3.451-5.464v-26.843H44.382c18.941 16.257 43.4 26.269 70.18 26.843zm-78.397-34.648v-74.446H5.468c.618 28.838 12.18 54.982 30.698 74.446zM5.468 115.063h30.698V41.653h-.975c-17.949 19.35-29.116 45.08-29.723 73.409zm35.573-79.267v.983h73.522V5.968c-28.385.608-54.159 11.818-73.522 29.828zm78.397-29.828v30.811h73.295v-1.193C173.395 17.699 147.71 6.574 119.437 5.968zm79.371 35.686h-1.201v73.409h30.924c-.607-28.33-11.774-54.058-29.723-73.409zm29.723 78.284h-30.924v74.683c18.65-19.488 30.303-45.728 30.924-74.684zm-38.914 82.251h-70.18v26.843c26.78-.574 51.239-10.586 70.18-26.843zm3.115-160.535h-73.296v73.409h73.296V41.653zm0 78.284h-73.296v77.376h73.296v-77.376zm-78.17 77.376v-77.376H41.04v77.376h73.522zm0-82.251V41.653H41.04v73.409h73.522z" fill-rule="nonzero" opacity=".3"/>
    <path d="M94.382 141.276L55.23 102.123a6.158 6.158 0 010-8.709l81.932-81.932a6.158 6.158 0 018.709 0l34.8 34.799a6.158 6.158 0 010 8.709l-86.288 86.286z" opacity=".9"/>
    <path d="M139.703 95.956l39.153 39.153a6.158 6.158 0 010 8.709L96.924 225.75a6.158 6.158 0 01-8.709 0l-34.8-34.8a6.158 6.158 0 010-8.708l86.288-86.287z"/>
  </g>
</svg>
