<svg width="180" height="180" viewBox="0 0 180 180" fill="none" xmlns="http://www.w3.org/2000/svg">
<rect width="180" height="180" fill="white"/>
<path d="M117.433 89.5182C117.433 85.6642 114.783 82.4215 111.226 81.4951L119.193 58H79.7075L87.6936 81.5692C84.2472 82.5698 81.7087 85.7568 81.7087 89.5368C81.7087 92.3162 83.0984 94.7805 85.2107 96.2999C84.3769 97.4858 83.4134 98.579 82.3202 99.6167C80.2634 101.544 77.9843 103.026 75.5199 104.008C73.2964 102.507 72.3329 99.8576 73.2038 97.4858C76.5946 96.4482 79.059 93.2797 79.059 89.5553C79.059 84.9786 75.3346 81.2727 70.7764 81.2727C66.1997 81.2727 62.4753 84.9971 62.4753 89.5738C62.4753 91.8344 63.4018 93.9097 64.8841 95.392C64.7544 95.6514 64.6247 95.9108 64.495 96.1888C63.2536 98.7458 61.8453 101.636 61.308 104.879C60.2333 111.364 61.9936 116.571 66.2368 119.517C68.627 121.166 71.2582 122 74.0932 122C78.9664 122 83.9137 119.554 88.6942 117.182C92.1036 115.496 95.6241 113.736 99.0891 112.884C100.368 112.569 101.702 112.383 103.11 112.18C105.963 111.772 108.91 111.346 111.559 109.808C114.654 108.01 116.766 105.009 117.377 101.562C117.841 98.9126 117.377 96.2444 116.192 93.9097C116.988 92.6312 117.433 91.1303 117.433 89.5182V89.5182ZM113.82 89.5182C113.82 92.0938 111.726 94.1876 109.15 94.1876C106.575 94.1876 104.481 92.0938 104.481 89.5182C104.481 88.6844 104.703 87.8877 105.093 87.2021C105.241 86.9427 105.426 86.6833 105.611 86.4609C105.797 86.2386 106.019 86.0347 106.26 85.8495L106.278 85.8309C106.427 85.7197 106.593 85.6086 106.76 85.4974C106.76 85.4974 106.779 85.4974 106.779 85.4789C106.853 85.4418 106.927 85.3862 107.001 85.3492C107.02 85.3492 107.038 85.3306 107.057 85.3306C107.131 85.2936 107.223 85.2565 107.316 85.2195C107.409 85.1824 107.501 85.1453 107.576 85.1083C107.594 85.1083 107.613 85.0898 107.631 85.0898C107.705 85.0712 107.779 85.0342 107.853 85.0156C107.872 85.0156 107.909 84.9971 107.928 84.9971C108.02 84.9786 108.094 84.96 108.187 84.9415H108.206L108.483 84.8859C108.502 84.8859 108.539 84.8859 108.558 84.8674C108.632 84.8674 108.706 84.8489 108.78 84.8489H108.873C108.965 84.8489 109.058 84.8303 109.169 84.8303H109.41C109.484 84.8303 109.54 84.8303 109.614 84.8489H109.651C109.799 84.8674 109.947 84.8859 110.095 84.923C112.208 85.3677 113.82 87.2577 113.82 89.5182V89.5182ZM84.8772 61.7058H114.024L107.335 81.4395C107.057 81.4951 106.779 81.5877 106.501 81.6804L99.4597 67.3202L92.4001 81.5877C92.1221 81.4951 91.8257 81.4395 91.5292 81.3839L84.8772 61.7058ZM98.1256 87.9062C97.7735 86.1644 96.8841 84.608 95.6241 83.4592L99.4597 75.714L103.332 83.6259C102.183 84.7748 101.35 86.2386 101.016 87.9062H98.1256ZM88.8424 84.9786C88.9351 84.96 89.0092 84.9415 89.1019 84.923H89.1574C89.2316 84.9045 89.3057 84.9045 89.3798 84.8859H89.4539C89.528 84.8859 89.5836 84.8674 89.6577 84.8674H90.3804C90.4545 84.8674 90.5101 84.8859 90.5657 84.8859C90.6027 84.8859 90.6213 84.8859 90.6583 84.9045C90.7324 84.923 90.788 84.923 90.8621 84.9415C90.8807 84.9415 90.8992 84.9415 90.9363 84.96C91.0289 84.9786 91.1215 84.9971 91.1957 85.0156H91.2142C91.2883 85.0342 91.3624 85.0527 91.4365 85.0898C91.4551 85.0898 91.4736 85.1083 91.5107 85.1083C91.5662 85.1268 91.6404 85.1453 91.6959 85.1824C91.7145 85.1824 91.733 85.2009 91.7515 85.2009C91.8257 85.238 91.8998 85.2565 91.9739 85.2936H91.9924C92.0851 85.3306 92.1592 85.3677 92.2333 85.4233H92.2518C92.3259 85.4603 92.4001 85.5159 92.4742 85.553C92.4927 85.553 92.4927 85.5715 92.5112 85.5715C92.5854 85.6086 92.6409 85.6642 92.7151 85.7012L92.7336 85.7197C92.9559 85.8865 93.1598 86.0718 93.3636 86.2571L93.3821 86.2756C93.5674 86.4794 93.7527 86.7018 93.9009 86.9427C94.3827 87.6838 94.6606 88.5547 94.6606 89.4997C94.6606 92.0753 92.5668 94.1691 89.9913 94.1691C87.4157 94.1691 85.3219 92.0753 85.3219 89.4997C85.3034 87.3318 86.8042 85.4974 88.8424 84.9786V84.9786ZM70.6097 84.8489C73.1852 84.8489 75.279 86.9427 75.279 89.5182C75.279 92.0938 73.1852 94.1876 70.6097 94.1876C68.0341 94.1876 65.9403 92.0938 65.9403 89.5182C65.9403 86.9427 68.0341 84.8489 70.6097 84.8489ZM113.709 100.914C113.301 103.285 111.837 105.361 109.688 106.602C107.668 107.77 105.185 108.14 102.573 108.511C101.146 108.715 99.645 108.937 98.1997 109.289C94.3456 110.234 90.6398 112.087 87.0451 113.866C82.4499 116.145 78.114 118.294 74.0932 118.294C71.9994 118.294 70.1279 117.701 68.3491 116.46C64.2727 113.643 64.4765 108.362 64.9583 105.472C65.403 102.767 66.6444 100.228 67.8303 97.8008C67.9044 97.6526 67.96 97.5229 68.0341 97.3746C68.4417 97.5229 68.8679 97.634 69.3126 97.7082C68.6085 101.636 70.6097 105.694 74.5008 107.695L75.2049 108.066L75.9646 107.788C79.2072 106.639 82.209 104.768 84.8587 102.266C86.3595 100.858 87.638 99.3387 88.7127 97.6896C89.1389 97.7638 89.5651 97.7823 89.9913 97.7823C93.8453 97.7823 97.088 95.1326 98.0144 91.575H101.127C102.054 95.1511 105.296 97.7823 109.15 97.7823C110.688 97.7823 112.115 97.3561 113.338 96.6335C113.82 98.0232 113.968 99.4684 113.709 100.914V100.914Z" fill="#15C213"/>
</svg>
