<svg width="180" height="180" viewBox="0 0 180 180" fill="none" xmlns="http://www.w3.org/2000/svg">
<rect width="180" height="180" fill="white"/>
<path d="M130.418 95.9953C130.418 95.9953 128.403 97.5592 126.629 97.3844C124.857 97.2096 125.414 93.2463 125.414 93.2463C125.414 93.2463 125.796 89.6125 124.751 89.3071C123.709 89.0038 122.423 90.2543 122.423 90.2543C122.423 90.2543 120.824 92.028 120.06 94.2889L119.849 94.3582C119.849 94.3582 120.093 90.3929 119.816 89.4889C119.608 89.0369 117.695 89.0731 117.382 89.8716C117.07 90.6721 115.539 96.2344 115.433 98.5645C115.433 98.5645 112.444 101.104 109.839 101.519C107.232 101.937 106.605 100.302 106.605 100.302C106.605 100.302 113.696 98.3215 113.453 92.6537C113.212 86.987 107.734 89.0842 107.115 89.5482C106.516 90.0002 103.315 91.9306 102.38 97.2759C102.35 97.4567 102.293 98.2522 102.293 98.2522C102.293 98.2522 99.5471 100.092 98.0174 100.579C98.0174 100.579 102.293 93.3829 97.0803 90.1157C95.6139 89.2328 94.3363 90.0454 93.576 90.7906C93.109 91.2486 99.8956 83.8252 98.3298 77.1822C97.5865 74.0204 96.0046 73.6819 94.5543 74.1951C92.3527 75.0619 91.518 76.3485 91.518 76.3485C91.518 76.3485 88.6666 80.4856 88.0047 86.6405C87.3448 92.7923 86.3726 100.233 86.3726 100.233C86.3726 100.233 85.0146 101.555 83.7642 101.624C82.5117 101.691 83.0692 97.9027 83.0692 97.9027C83.0692 97.9027 84.0414 92.1325 83.9751 91.1572C83.9028 90.185 83.8345 89.6637 82.6865 89.3172C81.5395 88.9686 80.286 90.429 80.286 90.429C80.286 90.429 76.9866 95.4339 76.7094 96.1982L76.5316 96.5146L76.3599 96.3037C76.3599 96.3037 78.688 89.4889 76.4653 89.3865C74.2396 89.281 72.7792 91.8201 72.7792 91.8201C72.7792 91.8201 70.2411 96.0626 70.1357 96.5477L69.9639 96.3398C69.9639 96.3398 71.0055 91.4043 70.7976 90.185C70.5867 88.9686 69.4427 89.2117 69.4427 89.2117C69.4427 89.2117 67.9823 89.038 67.5996 89.9771C67.2179 90.9162 65.8269 97.1383 65.6511 99.119C65.6511 99.119 62.0022 101.727 59.6027 101.76C57.2052 101.797 57.4493 100.241 57.4493 100.241C57.4493 100.241 66.2447 97.2307 63.8452 91.2858C62.7665 89.7561 61.5171 89.277 59.7433 89.3091C57.9696 89.3453 55.77 90.426 54.3458 93.624C53.6628 95.1486 53.4167 96.599 53.2761 97.6917C53.2761 97.6917 51.7384 98.0081 50.9037 97.3121C50.0671 96.617 49.6382 97.3121 49.6382 97.3121C49.6382 97.3121 48.207 99.1401 49.6312 99.6945C51.0574 100.251 53.2811 100.51 53.2811 100.51C53.486 101.483 54.0786 103.139 55.8162 104.455C58.4246 106.437 63.4264 104.273 63.4264 104.273L65.4773 103.123C65.4773 103.123 65.5467 105.005 67.0432 105.279C68.5367 105.554 69.1624 105.274 71.7708 98.9472C73.3005 95.7131 73.406 95.8879 73.406 95.8879C73.5767 95.8517 72.3966 102.04 72.8485 103.708C73.3005 105.379 75.2822 105.205 75.2822 105.205C75.2822 105.205 76.3599 105.412 77.2307 102.353C78.0974 99.2937 79.7687 95.921 79.7687 95.921C79.9736 95.921 79.2445 102.249 80.3563 104.265C81.4702 106.282 84.3548 104.943 84.3548 104.943C84.3548 104.943 86.3726 103.927 86.6849 103.614C86.6849 103.614 89.0774 105.651 92.4521 105.281C99.9981 103.795 102.683 101.789 102.683 101.789C102.683 101.789 103.978 105.073 107.996 105.379C112.583 105.726 115.087 102.841 115.087 102.841C115.087 102.841 115.052 104.717 116.651 105.379C118.253 106.039 119.327 102.325 119.327 102.325L122.005 94.9488C122.248 94.9488 122.387 99.7457 125.03 100.51C127.672 101.275 131.114 98.7192 131.114 98.7192C131.114 98.7192 131.948 98.2592 131.809 96.8681C131.668 95.4771 130.418 95.9953 130.418 95.9953V95.9953ZM60.7859 92.5151C61.722 93.4191 61.3754 95.3646 59.6027 96.5809C57.831 97.8002 57.0315 97.5561 57.0315 97.5561C57.1359 93.4181 59.8488 91.6102 60.7859 92.5151V92.5151ZM95.3769 78.2268C95.9665 81.3554 90.1963 90.6721 90.1963 90.6721C90.2666 88.586 92.3165 81.5302 92.3165 81.5302C92.3165 81.5302 94.7833 75.0981 95.3759 78.2268H95.3769ZM89.673 101.97C89.673 101.97 89.221 100.441 90.5066 96.1651C91.7953 91.8894 94.8195 93.5577 94.8195 93.5577C94.8195 93.5577 96.9056 95.1567 95.2714 99.4333C93.6383 103.708 89.673 101.97 89.673 101.97V101.97ZM107.265 93.5938C108.689 90.9855 109.803 92.4097 109.803 92.4097C109.803 92.4097 111.019 93.7314 109.628 95.7141C108.237 97.6947 106.223 97.5561 106.223 97.5561C106.223 97.5561 105.841 96.1982 107.265 93.5928V93.5938Z" fill="#E04E39"/>
<path d="M121.494 104.144V103.645H121.81C121.854 103.645 121.898 103.65 121.944 103.655C121.99 103.661 122.034 103.673 122.071 103.689C122.112 103.705 122.141 103.729 122.164 103.759C122.189 103.789 122.201 103.83 122.201 103.881C122.201 103.996 122.166 104.071 122.097 104.101C122.011 104.133 121.92 104.148 121.828 104.144H121.494ZM121.117 103.351V105.252H121.494V104.44H121.729L122.191 105.252H122.587L122.078 104.422C122.145 104.415 122.211 104.401 122.274 104.38C122.335 104.36 122.388 104.33 122.432 104.29C122.478 104.25 122.512 104.199 122.538 104.138C122.567 104.066 122.58 103.99 122.578 103.913C122.578 103.708 122.512 103.561 122.386 103.479C122.256 103.394 122.071 103.351 121.833 103.351H121.117V103.351ZM120.514 104.304C120.514 104.11 120.546 103.932 120.613 103.77C120.68 103.609 120.77 103.469 120.885 103.351C121.003 103.23 121.144 103.134 121.3 103.069C121.456 103.004 121.623 102.972 121.792 102.975C121.961 102.973 122.128 103.005 122.283 103.07C122.438 103.135 122.579 103.231 122.696 103.351C122.942 103.607 123.077 103.949 123.072 104.304C123.072 104.498 123.038 104.675 122.971 104.84C122.906 104.997 122.813 105.14 122.695 105.263C122.578 105.384 122.438 105.48 122.282 105.545C122.127 105.61 121.96 105.643 121.791 105.641C121.613 105.641 121.448 105.609 121.29 105.543C121.137 105.478 120.999 105.383 120.885 105.263C120.768 105.141 120.676 104.998 120.613 104.841C120.545 104.67 120.511 104.488 120.514 104.304V104.304ZM120.049 104.304C120.049 104.565 120.098 104.799 120.192 105.007C120.29 105.218 120.416 105.394 120.576 105.543C120.738 105.691 120.922 105.804 121.133 105.882C121.344 105.961 121.563 106 121.792 106C122.023 106 122.242 105.961 122.453 105.882C122.664 105.804 122.848 105.691 123.009 105.543C123.169 105.394 123.297 105.217 123.393 105.007C123.489 104.799 123.534 104.565 123.534 104.304C123.538 104.064 123.49 103.825 123.393 103.606C123.303 103.404 123.173 103.223 123.012 103.073C122.85 102.923 122.66 102.807 122.453 102.732C122.242 102.651 122.023 102.611 121.792 102.611C121.344 102.61 120.911 102.774 120.577 103.072C120.407 103.229 120.273 103.42 120.182 103.632C120.091 103.844 120.045 104.073 120.049 104.304V104.304Z" fill="#E04E39"/>
</svg>
