<svg width="180" height="180" viewBox="0 0 180 180" fill="none" xmlns="http://www.w3.org/2000/svg">
<rect width="180" height="180" fill="white"/>
<path fill-rule="evenodd" clip-rule="evenodd" d="M37.5244 97.2134L33 92.1533L46.8491 87.1123L49.0047 93.035L37.5244 97.2134Z" fill="#F89920"/>
<path fill-rule="evenodd" clip-rule="evenodd" d="M37.4913 97.122L37.2782 103.907L51.1272 98.8658L48.9716 92.9436L37.4913 97.122Z" fill="#FFBE22"/>
<path fill-rule="evenodd" clip-rule="evenodd" d="M75.9772 83.228C77.9533 88.953 71.5861 96.4757 61.6819 100.081C51.7767 103.686 42.0638 102.016 39.8973 96.3596L75.9772 83.228Z" fill="#F0670A"/>
<path fill-rule="evenodd" clip-rule="evenodd" d="M75.9777 83.2276C73.8252 77.5571 64.1019 75.8804 54.1868 79.4887C44.2712 83.0975 37.9009 90.6325 39.8973 96.3601L75.9777 83.2276Z" fill="#FFD00E"/>
<path fill-rule="evenodd" clip-rule="evenodd" d="M75.9763 83.2285C77.2081 87.0591 70.2953 93.0248 60.4215 96.6182C50.5472 100.212 41.4171 100.086 39.8987 96.3596L75.9763 83.2285Z" fill="#F89920"/>
<path fill-rule="evenodd" clip-rule="evenodd" d="M75.9767 83.2282C74.481 79.4843 65.3369 79.3514 55.4467 82.9516C45.5565 86.5513 38.6374 92.5302 39.8978 96.3598L75.9767 83.2282Z" fill="#FFBE22"/>
<path d="M59.3326 78.032C58.3901 74.7733 57.318 72.966 56.0989 73.0005C53.7419 73.0676 52.9495 80.5409 53.7124 90.1173C54.4834 99.7952 56.483 107.065 58.9761 107C60.4628 106.961 61.3 104.582 61.5939 100.453C61.5998 100.368 61.5059 100.427 61.5113 100.341C61.5113 100.341 61.4991 100.19 61.4433 100.187L61.1272 100.166C60.8682 104.175 60.0836 106.486 58.9634 106.515C56.9143 106.569 54.936 99.377 54.1958 90.0792C53.467 80.9337 54.2516 73.5379 56.1129 73.4849C56.9941 73.4599 57.9815 75.1244 58.855 78.1254C58.855 78.1254 59.333 78.0333 59.3326 78.032L59.3326 78.032Z" fill="#F0670A"/>
<path d="M47.6527 75.7068C45.645 76.9436 48.6954 83.8114 54.1442 91.7237C59.6505 99.7195 65.0176 105.016 67.1438 103.712C68.332 102.984 67.9987 100.773 66.468 97.4346C66.4556 97.4045 66.4372 97.3772 66.4139 97.3543C66.3907 97.3315 66.3631 97.3136 66.3327 97.3016C66.3024 97.2897 66.27 97.284 66.2374 97.2849C66.2048 97.2858 66.1728 97.2933 66.1432 97.3069C66.1135 97.3205 66.087 97.3399 66.065 97.364C66.0431 97.3881 66.0262 97.4164 66.0155 97.4472C66.0048 97.4779 66.0003 97.5106 66.0025 97.5431C66.0046 97.5756 66.0134 97.6074 66.0281 97.6364C67.4504 100.74 67.756 102.769 66.8902 103.299C65.1428 104.37 59.8342 99.1313 54.5433 91.4484C49.3399 83.893 46.3212 77.0964 47.9072 76.1195C48.7489 75.6006 50.7517 76.8524 53.3981 79.5559C53.4276 79.5858 53.5967 79.7613 53.6344 79.7727C53.7165 79.7976 53.6752 79.6239 53.741 79.5595C53.7637 79.5373 53.7819 79.5107 53.7944 79.4815C53.807 79.4522 53.8136 79.4207 53.8139 79.3889C53.8143 79.357 53.8083 79.3254 53.7964 79.2959C53.7845 79.2663 53.7669 79.2394 53.7446 79.2167C50.9173 76.3286 48.7956 75.0024 47.6527 75.7063V75.7068Z" fill="#F0670A"/>
<path fill-rule="evenodd" clip-rule="evenodd" d="M97.8156 92.8697H103.114V95.5187H94.7248V84.4815H103.114V87.1299H97.8156V88.4546H101.126V91.1036H97.8156V92.8697ZM121.877 92.8697H126.733V95.5187H118.787V84.4815H121.878L121.877 92.8697ZM129.824 84.481H132.914V95.5187H129.824V84.481ZM136.446 84.481V95.5187H139.316V89.3369L143.289 95.5187H146.159V84.481H143.289V90.7541L139.316 84.497L136.446 84.481Z" fill="#574751"/>
<path d="M109.293 89.5584H111.504C111.678 89.5583 111.85 89.5239 112.01 89.4573C112.171 89.3907 112.316 89.2931 112.439 89.1701C112.562 89.0472 112.659 88.9012 112.726 88.7406C112.792 88.58 112.826 88.408 112.826 88.2342C112.826 88.0604 112.792 87.8882 112.726 87.7276C112.659 87.567 112.562 87.4209 112.439 87.2979C112.317 87.1749 112.171 87.0773 112.01 87.0106C111.85 86.944 111.678 86.9096 111.504 86.9095H109.292V89.5584H109.293ZM111.945 84.4815C112.438 84.4815 112.926 84.5787 113.381 84.7673C113.836 84.956 114.25 85.2324 114.598 85.5809C114.946 85.9294 115.222 86.3431 115.411 86.7983C115.599 87.2536 115.696 87.7415 115.696 88.2342C115.696 88.7269 115.599 89.2148 115.411 89.67C115.222 90.1252 114.946 90.5389 114.598 90.8873C114.25 91.2358 113.836 91.5123 113.381 91.7009C112.926 91.8896 112.438 91.9868 111.945 91.9869H109.603V95.5187H106.424V84.481H111.945V84.4815Z" fill="#574751"/>
<path fill-rule="evenodd" clip-rule="evenodd" d="M91.193 87.1304V84.4814H82.1424V87.1299H87.2193L82.1424 92.8702V95.5192H91.193V92.8702H86.3365L91.193 87.1304Z" fill="#574751"/>
</svg>
