<svg viewBox="-100 0 1050 135" xmlns="http://www.w3.org/2000/svg"><g transform="translate(-13.42 -14)"><g fill="#f8c307"><path d="m13.42 119v-17.4h13.8v-70.2h-13.8v-17.4h54a40.27 40.27 0 0 1 16.73 3.23 25.81 25.81 0 0 1 11.1 9.15 24.83 24.83 0 0 1 4 14.17v1.5q0 7.2-2.7 11.78a21.4 21.4 0 0 1 -6.37 7.05 28.06 28.06 0 0 1 -7 3.52v2.7a27.26 27.26 0 0 1 7.2 3.37 20.93 20.93 0 0 1 6.68 7.13q2.78 4.65 2.77 12.15v1.5a26.73 26.73 0 0 1 -4 14.92 26 26 0 0 1 -11.23 9.53 39.09 39.09 0 0 1 -16.6 3.3zm33.58-61.8h18.3a15.82 15.82 0 0 0 10.13-3.15 10.48 10.48 0 0 0 4-8.7v-1.5q0-5.7-3.9-8.77t-10.21-3.08h-18.32zm0 43.8h18.6q6.45 0 10.43-3.15t4-9v-1.5q0-5.85-3.9-9t-10.51-3.15h-18.62z"/><path d="m196.87 45.05h17.55v74h-17.25l-.9-10.8c-4.2 8.7-15.75 12.9-24 13-21.9.15-38.1-13.35-38.1-39.3 0-25.5 17-38.85 38.55-38.7 9.9 0 19.35 4.65 23.55 12zm-44.4 36.95c0 14.1 9.75 22.5 21.9 22.5 28.8 0 28.8-44.85 0-44.85-12.15-.05-21.9 8.2-21.9 22.35z"/><path d="m292.27 121.1a42.29 42.29 0 0 1 -19.58-4.5 33.85 33.85 0 0 1 -13.87-13q-5.1-8.55-5.1-20.7v-2.1q0-12.15 5.1-20.7a33.85 33.85 0 0 1 13.87-13 42.29 42.29 0 0 1 19.58-4.5q10.65 0 18.3 3.75a32.78 32.78 0 0 1 12.37 10.27 35.83 35.83 0 0 1 6.23 14.78l-18.3 3.9a21.55 21.55 0 0 0 -2.7-8.1 15.14 15.14 0 0 0 -5.93-5.7 19.57 19.57 0 0 0 -9.52-2.1 21.26 21.26 0 0 0 -10.28 2.47 17.66 17.66 0 0 0 -7.2 7.35 24.92 24.92 0 0 0 -2.62 11.93v1.5a24.83 24.83 0 0 0 2.62 11.92 17.63 17.63 0 0 0 7.2 7.36 21.37 21.37 0 0 0 10.28 2.47q8.55 0 13-4.42a20.78 20.78 0 0 0 5.63-11.63l18.3 4.35a41.27 41.27 0 0 1 -6.68 14.48 32.87 32.87 0 0 1 -12.37 10.27q-7.68 3.65-18.33 3.65z"/><path d="m367.72 119v-105h18.9v58.05h2.7l24.6-27.45h24.6l-34.35 36 35.55 38.4h-24.3l-26.1-29.55h-2.7v29.55z"/></g><path d="m477.52 119v-105h9v105z"/><path d="m539.92 33.5a7.68 7.68 0 0 1 -7.8-7.8 7.47 7.47 0 0 1 2.25-5.62 7.77 7.77 0 0 1 13.35 5.62 7.68 7.68 0 0 1 -2.18 5.55 7.48 7.48 0 0 1 -5.62 2.25zm-4.5 85.5v-72.9h9v72.9z"/><path d="m589.71 82.85v-1.8q0-11.55 4.73-19.8a33.37 33.37 0 0 1 12.67-12.75 35.3 35.3 0 0 1 17.7-4.5q12 0 18.68 4.73a30.9 30.9 0 0 1 9.82 10.72h1.8v-13.35h8.4v91.5q0 5.4-2.85 8.4t-8.7 3h-49.8v-8.1h48q4.65 0 4.65-4.5v-31.35h-1.81a29.89 29.89 0 0 1 -5.47 7 26.57 26.57 0 0 1 -9.08 5.62 37.56 37.56 0 0 1 -13.65 2.18 35.7 35.7 0 0 1 -17.8-4.45 32.64 32.64 0 0 1 -12.68-12.82q-4.61-8.32-4.61-19.73zm37.2 29q12.45 0 20.18-7.8t7.72-21.45v-1.2q0-13.8-7.72-21.52t-20.18-7.78q-12.3 0-20.1 7.73t-7.81 21.52v1.2q0 13.65 7.8 21.45t20.11 7.8z"/><path d="m712.41 119v-105h9v44.85h1.8a26.58 26.58 0 0 1 5-6.83 24.26 24.26 0 0 1 8.4-5.25 35.86 35.86 0 0 1 13-2 32.07 32.07 0 0 1 14.55 3.3 25.5 25.5 0 0 1 10.58 9.93q4 6.6 4 16.65v44.35h-9v-43.8q0-12-6-17.18t-16.05-5.17a25.71 25.71 0 0 0 -18.75 7.35q-7.5 7.35-7.5 22.35v36.45z"/><path d="m851 119c-3.89 0-6.82-1-8.77-3s-2.92-4.8-2.92-8.4v-53.4h-23.4v-8.1h23.4v-27.3h9v27.3h25.5v8.1h-25.5v52.2q0 4.5 4.5 4.5h17.1v8.1z"/></g></svg>
