<svg width="180" height="180" viewBox="0 0 180 180" fill="none" xmlns="http://www.w3.org/2000/svg">
<rect width="180" height="180" fill="white"/>
<path d="M54.9671 93.1567C55.8185 93.1559 56.6348 92.817 57.2364 92.2146C57.838 91.6121 58.1758 90.7953 58.1754 89.9439C58.175 89.0925 57.8365 88.2761 57.2343 87.6741C56.6321 87.0722 55.8155 86.7341 54.9641 86.7341C54.1126 86.7341 53.296 87.0722 52.6939 87.6741C52.0917 88.2761 51.7531 89.0925 51.7527 89.9439C51.7523 90.7953 52.0901 91.6121 52.6917 92.2146C53.2934 92.817 54.1096 93.1559 54.961 93.1567H54.9671ZM71.086 86.7482C69.9593 85.8266 68.3999 84.9946 66.5447 84.3548C66.1594 84.2239 65.771 84.1025 65.3797 83.9906C65.4481 83.722 65.5085 83.4594 65.5588 83.2039C66.4542 78.8738 65.8153 75.5025 63.9089 74.4029C62.9632 73.8657 61.6956 73.8657 60.2116 74.4029C58.8686 74.9019 57.3655 75.8486 55.8625 77.1404C55.5647 77.3959 55.2659 77.6696 54.9671 77.9593C54.7759 77.7712 54.5787 77.5881 54.3785 77.409C51.0787 74.4663 47.8422 73.3415 45.9358 74.4472C44.9951 75.0237 44.3563 76.1102 44.0806 77.6464C43.8442 79.1173 43.9146 80.8437 44.2919 82.8266L44.6118 84.0419C44.1852 84.1697 43.7587 84.3186 43.3321 84.4896C39.3682 85.7693 37 87.88 37 89.9907C37 91.0772 37.7042 92.2292 38.9195 93.3167C40.0705 94.3399 41.7204 95.1709 43.6329 95.856L44.5927 96.1115C44.4649 96.5542 44.3583 96.9817 44.2728 97.3902C43.5051 101.465 44.145 104.523 45.9679 105.577C46.479 105.865 47.0545 106 47.6943 106C48.3342 106 49.0384 105.872 49.7869 105.591C51.1934 105.078 52.793 104.12 54.289 102.777C54.5455 102.563 54.8011 102.337 55.0566 102.099L56.0164 102.962C58.3192 104.944 60.5577 105.987 62.2841 105.987C62.9239 105.987 63.4994 105.859 63.9853 105.552C64.9451 104.977 65.6101 103.87 65.9049 102.278C66.1795 100.806 66.1222 98.9516 65.7258 96.9687C65.6654 96.6618 65.595 96.3419 65.5145 96.0089L66.1926 95.8177C70.3878 94.4294 72.9724 92.1909 72.9724 89.9967C72.9724 88.9102 72.3325 87.8035 71.1172 86.7985L71.086 86.7482V86.7482ZM56.8856 78.3034C58.2297 77.1263 59.5597 76.2762 60.7428 75.8476C61.766 75.4633 62.6171 75.419 63.1413 75.7198C63.6976 76.0388 64.101 76.8517 64.2932 77.9965C64.5236 79.3396 64.4401 81.0217 64.0558 82.8829L63.928 83.6063C62.3477 83.245 60.7453 82.9885 59.1311 82.8387C58.2139 81.5155 57.2097 80.2548 56.125 79.065L56.956 78.3104L56.8856 78.3034V78.3034ZM47.6118 91.8016C47.9267 92.4153 48.2638 93.034 48.6219 93.6567C48.9856 94.2777 49.3612 94.8915 49.7487 95.4978C48.6375 95.3765 47.5334 95.1975 46.4408 94.9616C46.7607 93.9374 47.145 92.8761 47.6048 91.7945L47.6118 91.8016ZM47.5988 88.1808C47.1646 87.1654 46.7844 86.1277 46.4599 85.0721C47.5375 84.8326 48.6264 84.6469 49.7225 84.5158C49.3372 85.1068 48.9681 85.7083 48.6159 86.3196C48.2617 86.9383 47.9217 87.5571 47.5927 88.1748L47.5988 88.1808V88.1808ZM48.4177 89.9847C48.8845 89.0128 49.3966 88.04 49.9529 87.0872C50.4963 86.1424 51.0721 85.2166 51.6793 84.3115C52.7714 84.2302 53.866 84.1876 54.961 84.1838C56.0677 84.1838 57.1351 84.228 58.2227 84.3115C58.7981 85.1878 59.3746 86.1023 59.9501 87.0741C60.4861 88.0204 60.998 88.9802 61.4853 89.9525C61.0376 90.9122 60.4611 91.8911 59.9501 92.863C59.438 93.8358 58.7981 94.7825 58.2227 95.6517C57.1361 95.7282 56.0486 95.7674 54.8967 95.7674C53.8086 95.7704 52.7208 95.7362 51.635 95.6648C50.9952 94.7694 50.4197 93.8358 49.8443 92.8821C49.2816 91.9441 48.7691 90.977 48.309 89.9847H48.4177V89.9847ZM61.2992 93.6306C61.6704 92.9998 62.0205 92.366 62.3485 91.7312C62.8083 92.7624 63.2137 93.8167 63.5638 94.8902C62.4551 95.1417 61.3344 95.3328 60.2056 95.4666L61.2921 93.6366L61.2992 93.6306V93.6306ZM62.3354 88.1748C62.0074 87.5611 61.6614 86.9373 61.2992 86.3075C60.9508 85.7023 60.5886 85.1052 60.2126 84.5168C61.3505 84.6576 62.4511 84.8488 63.4743 85.0922C63.1422 86.1404 62.7577 87.1712 62.3223 88.1808L62.3354 88.1748V88.1748ZM54.9802 80.1535C55.7256 80.9704 56.4309 81.8246 57.0909 82.7129C56.3817 82.67 55.6715 82.6485 54.961 82.6485C54.2447 82.6485 53.5194 82.6697 52.786 82.7129C53.4499 81.8278 54.1542 80.9738 54.8967 80.1535H54.9802V80.1535ZM45.6038 77.9151C45.7949 76.8285 46.1792 76.08 46.7034 75.7722C47.2597 75.4532 48.1621 75.4975 49.2618 75.9009C50.5223 76.3798 51.9479 77.2953 53.3554 78.5609C53.5465 78.7149 53.7196 78.8809 53.8987 79.0539C52.7952 80.2638 51.7738 81.546 50.8413 82.892C49.2273 83.0426 47.6249 83.2987 46.0444 83.6586C45.9508 83.3176 45.8694 82.9554 45.8019 82.5721C45.4559 80.8447 45.3854 79.2461 45.6098 78.0307L45.6028 77.9151H45.6038ZM44.9448 94.5904C44.646 94.5048 44.3512 94.4133 44.0615 94.3147C42.3351 93.7211 40.8763 92.9465 39.8723 92.0762C39.0091 91.3418 38.5292 90.5863 38.5292 89.9464C38.5292 88.3599 41.152 86.7482 43.7355 85.8337C44.1188 85.7059 44.5414 85.5781 44.9699 85.4504C45.4532 87.0009 46.0387 88.5176 46.7225 89.9907C46.0453 91.4856 45.4682 93.0239 44.9951 94.5954L44.9448 94.5894V94.5904ZM53.2598 101.587C50.2406 104.229 47.7587 104.786 46.7225 104.21C45.3794 103.41 45.2516 100.334 45.7627 97.6407L46.0826 96.4455C47.6853 96.7906 49.309 97.026 50.9439 97.1488C51.9025 98.4877 52.9494 99.7612 54.0777 100.961L53.4258 101.587H53.2598V101.587ZM55.0244 99.8611C54.2568 99.0673 53.5536 98.1981 52.8503 97.2634C53.5325 97.2896 54.2357 97.3037 54.961 97.3087C55.6854 97.3087 56.4098 97.2916 57.1351 97.2574C56.4768 98.1568 55.7723 99.0215 55.0244 99.848V99.8611V99.8611ZM63.1483 104.21C61.7398 105.015 59.0537 103.57 56.944 101.78C56.6452 101.524 56.3464 101.246 56.0486 100.948C57.1361 99.7422 58.1405 98.4643 59.0547 97.1226C60.6902 96.9844 62.3144 96.7347 63.9159 96.3751L64.1071 97.2061C64.8747 101.108 64.1071 103.538 63.0839 104.178L63.1483 104.21ZM65.6483 94.3338L65.0407 94.526C64.5406 92.966 63.9339 91.4423 63.2248 89.9655C63.9204 88.5146 64.5187 87.019 65.0155 85.4886C65.3998 85.5902 65.762 85.7019 66.1021 85.8206C67.8295 86.3971 69.2369 87.1003 70.1967 87.9313C71.0277 88.6355 71.5398 89.3398 71.5398 89.9142C71.5398 91.0662 69.749 92.9847 65.7831 94.2644L65.6483 94.3348V94.3338Z" fill="#00D8FF"/>
<path d="M93.0371 84.9947C93.0371 81.6948 90.7342 79.3789 87.1718 79.3789H79.2914V97.3269H82.4383V90.6235H85.5601L89.5441 97.3208H93.1719L88.7906 90.2714C90.9395 89.9264 93.0371 88.206 93.0371 85.0017V84.9947V84.9947ZM82.4383 87.8539V82.1616H86.7442C88.5219 82.1486 89.8127 83.2804 89.8127 85.0017C89.8127 86.7221 88.5219 87.879 86.7442 87.879L82.4383 87.8539ZM101.084 84.0168C97.2454 84.0168 94.4959 87.048 94.4959 90.8157C94.4959 94.9284 97.3993 97.6468 101.301 97.6468C103.373 97.6468 105.286 97.0069 106.572 95.7655L105.292 93.9113C104.371 94.8258 102.862 95.3379 101.596 95.3379C99.1519 95.3379 97.668 93.7192 97.4567 91.7564H107.48V91.0843C107.48 86.9897 104.985 84.0098 101.084 84.0098V84.0168V84.0168ZM97.4245 89.7724C97.5533 88.1738 98.666 86.3187 101.084 86.3187C103.642 86.3187 104.691 88.2382 104.743 89.7724H97.4245ZM115.634 84.0168C113.563 84.0168 111.682 84.6808 110.179 86.1074L111.33 88.0712C112.462 86.9847 113.729 86.4716 115.18 86.4716C116.984 86.4716 118.219 87.4324 118.219 88.9032V90.8217C117.26 89.7352 115.724 89.1587 113.997 89.1587C111.886 89.1587 109.456 90.4384 109.456 93.3801C109.456 96.2584 111.823 97.7293 113.933 97.7293C115.66 97.7293 117.132 97.1538 118.091 96.0029V97.4104H120.906V88.705C120.906 85.206 118.36 83.9967 115.481 83.9967L115.635 84.0168H115.634ZM118.22 94.3651C117.515 95.2604 116.364 95.7081 115.085 95.7081C113.485 95.7081 112.271 94.7936 112.271 93.3932C112.271 91.9666 113.422 91.0521 115.021 91.0521C116.236 91.0521 117.451 91.5129 118.091 92.3952L118.219 94.3651H118.22ZM130.755 86.5108C131.992 86.5108 132.972 87.0229 133.698 88.046L135.553 86.3187C134.593 85.0842 133.058 84.0168 130.563 84.0168C126.598 84.0168 123.847 86.8941 123.847 90.8157C123.847 94.7685 126.598 97.6468 130.564 97.6468C133.059 97.6468 134.593 96.5723 135.553 95.3439L133.698 93.6166C132.93 94.6085 131.97 95.1518 130.692 95.1518C128.325 95.1518 126.726 93.3479 126.726 90.8157C126.726 88.2825 128.261 86.5108 130.627 86.5108H130.755V86.5108ZM143.931 94.6981C143.676 94.9284 143.164 95.1458 142.653 95.1458C141.821 95.1458 141.373 94.5059 141.373 93.6105V86.8046H143.996V84.3297H141.373V80.7733H138.559V84.3297H136.448V86.8046H138.559V94.3137C138.559 96.4637 139.748 97.6398 141.949 97.6398C143.253 97.6398 144.085 97.2947 144.596 96.8088L143.932 94.6981H143.931Z" fill="black"/>
</svg>
