<svg width="180" height="180" viewBox="0 0 180 180" fill="none" xmlns="http://www.w3.org/2000/svg">
<rect width="180" height="180" fill="white"/>
<g clip-path="url(#clip0)">
<path d="M65.15 94.3812H69.839C69.9096 95.522 70.757 96.5926 72.6778 96.5926C74.4433 96.5926 75.3472 95.9728 75.3472 95.0291C75.3472 92.1699 65.8703 94.8601 65.8703 88.1133C65.8703 85.0286 68.5114 82.4933 72.7202 82.4933C77.833 82.4933 79.5984 85.747 79.7255 88.24H75.2625C75.1636 87.1696 74.3445 86.1977 72.6919 86.1977C71.1949 86.1977 70.3475 86.916 70.3475 87.8597C70.3475 90.719 79.7961 87.8598 79.7961 94.846C79.7961 97.9024 77.1833 100.311 72.5648 100.311C67.1979 100.297 65.376 97.5645 65.15 94.3812Z" fill="black"/>
<path d="M85.8552 82.8736V78.9156H81.2227V99.9026H85.8552V86.6343H89.259V82.8736H85.8552Z" fill="black"/>
<path d="M93.0582 92.7191C93.3831 95.0572 94.8801 96.3249 97.1964 96.3249C98.5947 96.3249 99.9364 95.7051 100.487 94.4657H105.148C104.131 97.9166 101.01 100.283 97.0693 100.283C92.0131 100.283 88.4681 96.5785 88.4681 91.3528C88.4681 86.3104 91.9848 82.4792 97.041 82.4792C102.097 82.4792 105.515 86.3104 105.515 91.3528C105.515 92.0993 105.445 92.7191 105.445 92.7191H93.0582ZM93.1147 89.4091H100.869C100.544 87.4935 99.1455 86.1977 96.9846 86.1977C94.8801 86.1977 93.5102 87.4653 93.1147 89.4091Z" fill="black"/>
<path d="M111.49 84.9582C112.266 83.4933 114.032 82.4933 116.574 82.4933C120.684 82.4933 122.859 85.2258 122.859 89.2823V99.9026H118.227V89.7894C118.227 87.8034 117.379 86.4371 115.331 86.4371C113.086 86.4371 111.843 87.8738 111.843 90.1415V99.8885H107.21V82.8736H111.49V84.9582Z" fill="black"/>
<path d="M133.141 82.4933C138.451 82.4933 140.965 86.2259 141.29 89.1274H136.531C136.178 87.6625 134.808 86.5921 133.113 86.5921C130.641 86.5921 129.201 88.5358 129.201 91.3951C129.201 94.2545 130.641 96.1982 133.113 96.1982C134.808 96.1982 136.178 95.1276 136.531 93.6628H141.29C140.965 96.5503 138.451 100.297 133.141 100.297C128.184 100.297 124.568 96.4658 124.568 91.3951C124.568 86.3245 128.184 82.4933 133.141 82.4933Z" fill="black"/>
<path d="M142.519 78.7889C142.519 77.1691 143.691 76 145.315 76C146.94 76 148.112 77.1691 148.112 78.7889C148.112 80.4087 146.94 81.5496 145.315 81.5496C143.705 81.5496 142.519 80.4228 142.519 78.7889ZM143.013 82.8736H147.646V99.9026H143.013V82.8736Z" fill="black"/>
<path d="M150.117 99.9025V77.0705H154.75V99.9025H150.117Z" fill="black"/>
<path d="M33.7726 95.6923H47.8015L40.2181 104H26.2648L33.7726 95.6923Z" fill="black"/>
<path d="M56.75 85.8462H27.9293L20.35 94.1538H49.1707L56.75 85.8462Z" fill="black"/>
<path d="M36.8578 76H50.8349L43.2865 84.3077H29.2982L36.8578 76Z" fill="black"/>
</g>
<defs>
<clipPath id="clip0">
<rect width="135.8" height="28" fill="white" transform="translate(20 76)"/>
</clipPath>
</defs>
</svg>
