<svg width="180" height="180" viewBox="0 0 180 180" fill="none" xmlns="http://www.w3.org/2000/svg">
<rect width="180" height="180" fill="white"/>
<path d="M128.505 85.5847C131.27 85.5847 133.35 87.107 133.35 90.4214V97.0484H130.586L130.667 95.4454C129.845 96.6477 128.75 97.2887 127.053 97.2887C124.781 97.2887 122.918 96.247 122.918 93.735C122.918 91.4087 124.835 90.395 127.436 90.3677H130.586C130.586 88.5767 129.764 87.8287 128.286 87.8287C127.096 87.8287 126.304 88.2304 125.711 88.741L123.714 87.6157L123.686 87.588C123.703 87.568 123.72 87.547 123.738 87.5287C124.745 86.3857 126.108 85.5847 128.505 85.5847V85.5847ZM130.586 93.119V92.2374H127.628C126.423 92.2374 125.629 92.6654 125.629 93.655C125.629 94.6164 126.396 95.1234 127.82 95.1234C129.436 95.1237 130.586 94.3484 130.586 93.119ZM159.786 93.5954L162 94.843C160.911 96.3217 159.138 97.2887 157.13 97.2887C153.818 97.2887 151.135 94.668 151.135 91.436C151.135 88.2047 153.818 85.5844 157.13 85.5844C159.135 85.5844 160.903 86.5474 161.993 88.0207L159.779 89.269C159.45 88.8888 159.044 88.5839 158.586 88.3754C158.129 88.1668 157.632 88.0595 157.13 88.0607C155.223 88.0607 153.672 89.5747 153.672 91.4357C153.672 93.2964 155.223 94.8114 157.13 94.8114C157.634 94.8131 158.133 94.7052 158.592 94.4953C159.05 94.2853 159.458 93.9783 159.786 93.5954V93.5954ZM62.652 93.5954L64.8657 94.843C63.777 96.3217 62.0033 97.2887 59.9953 97.2887C56.6837 97.2887 54 94.668 54 91.436C54 88.2047 56.6833 85.5844 59.9953 85.5844C62.0003 85.5844 63.7687 86.5474 64.8587 88.0207L62.6447 89.269C62.3161 88.8888 61.9093 88.5839 61.452 88.3754C60.9948 88.1668 60.4979 88.0595 59.9953 88.0607C58.0887 88.0607 56.5373 89.5747 56.5373 91.4357C56.5373 93.2964 58.0887 94.8114 59.9953 94.8114C60.4998 94.8131 60.9986 94.7053 61.4573 94.4953C61.916 94.2854 62.3236 93.9783 62.652 93.5954V93.5954ZM103.134 85.8254H105.899L105.845 87.7494C106.612 86.3334 107.789 85.5847 109.268 85.5847C110.938 85.5847 112.034 86.3587 112.636 87.722C113.539 86.3864 114.908 85.5847 116.578 85.5847C119.289 85.5847 120.904 87.3487 120.904 90.207V97.048H118.139V90.4747C118.139 88.9244 117.563 88.0694 115.976 88.0694C114.362 88.0694 113.402 89.0317 113.402 90.9027V97.0484H110.638V90.4747C110.638 88.9244 110.089 88.0694 108.501 88.0694C106.858 88.0694 105.9 89.0317 105.9 90.9027V97.0484H103.134V85.8254H103.134ZM66.865 79.3334H69.6297V87.8024C70.3697 86.4134 71.739 85.5847 73.465 85.5847C76.0097 85.5847 77.763 87.3487 77.763 90.3954V97.0484H74.9963V90.6087C74.9963 89.005 74.2307 88.0694 72.614 88.0694C70.8073 88.0694 69.6297 89.1387 69.6297 90.956V97.048H66.865V79.3334ZM94.9433 85.5847C98.2563 85.5847 100.939 88.2047 100.939 91.4364C100.939 94.668 98.2563 97.289 94.9433 97.289C91.6327 97.289 88.948 94.6684 88.948 91.4364C88.948 88.2047 91.6327 85.5847 94.9433 85.5847V85.5847ZM94.9433 88.0614C93.0377 88.0614 91.4857 89.575 91.4857 91.4364C91.4857 93.297 93.0377 94.812 94.9433 94.812C96.8523 94.812 98.4037 93.297 98.4037 91.4364C98.4037 89.575 96.8523 88.061 94.9433 88.0614ZM80.5117 85.8254H83.2783L83.25 87.9357C84.0183 86.1724 85.3317 85.611 86.5913 85.611C87.1807 85.611 87.6447 85.7077 88.0397 85.871C88.1953 85.9344 88.5207 86.087 88.8373 86.3184C88.8373 86.3184 88.454 86.7837 88.117 87.3497C87.7783 87.9164 87.5497 88.5237 87.5497 88.5237C87.1117 88.3104 86.673 88.149 86.044 88.149C84.401 88.149 83.2783 89.0844 83.2783 91.597V97.0484H80.5117V85.8254ZM145.931 97.065V85.8254H148.728V97.065H145.931ZM145.492 81.4637C145.492 80.447 146.342 79.697 147.329 79.697C148.317 79.697 149.167 80.447 149.167 81.4637C149.167 82.5337 148.317 83.2564 147.329 83.2564C146.342 83.2564 145.492 82.534 145.492 81.4637ZM137.248 93.2657V88.1H135.52V85.8254H137.248V79.3334H140.017V85.8257H143.089V88.1H140.017V93.3184C140.017 94.6034 140.456 94.9784 141.169 94.9784C141.828 94.9784 142.239 94.6834 142.54 94.4427L143.857 96.2624C143.28 96.798 142.375 97.3334 140.894 97.3334C138.729 97.3334 137.247 96.2627 137.248 93.2657Z" fill="#333333"/>
<path d="M33 104C40.732 104 47 97.732 47 90C47 82.268 40.732 76 33 76C25.268 76 19 82.268 19 90C19 97.732 25.268 104 33 104Z" fill="#FC521F"/>
<path d="M36.29 96.4387L34.0654 95.1547L40.758 91.2943C41.0147 91.1463 41.2564 90.9763 41.4814 90.787C42.3514 92.0257 42.4367 93.6567 41.6614 95C41.3144 95.5971 40.817 96.0928 40.2186 96.4376C39.6203 96.7824 38.9419 96.9643 38.2514 96.965C37.5657 96.965 36.888 96.7833 36.29 96.4383V96.4387V96.4387ZM35.754 97.366C36.0107 97.5143 36.2787 97.639 36.5557 97.7393C35.9167 99.1107 34.546 100 32.9934 100C30.826 100 29.0617 98.2377 29.0617 96.0717V88.3503L32.4574 90.31V95.155C32.4574 95.3463 32.5597 95.523 32.7254 95.6187L35.754 97.366V97.366ZM27.7457 96.9643C27.0555 96.9636 26.3775 96.7819 25.7795 96.4374C25.1814 96.0928 24.6842 95.5974 24.3374 95.0007C24.078 94.5544 23.9098 94.0612 23.8425 93.5495C23.7752 93.0378 23.8102 92.5178 23.9454 92.0197C24.0776 91.5206 24.3076 91.0526 24.622 90.6431C24.9365 90.2335 25.329 89.8904 25.777 89.6337L28.001 88.3503L28.0014 96.0703C28.0014 96.3667 28.0267 96.6603 28.0784 96.9513C27.9677 96.96 27.8564 96.9643 27.7457 96.9643ZM36.4 87.4227L33.0054 89.381L28.8054 86.9587C28.7239 86.9118 28.6315 86.8872 28.5375 86.8872C28.4435 86.8872 28.3512 86.9118 28.2697 86.9587L25.241 88.7057C24.9844 88.8533 24.7424 89.0223 24.517 89.2127C23.6477 87.9743 23.5627 86.343 24.3374 84.9997C24.6842 84.4025 25.1816 83.9068 25.7799 83.5619C26.3782 83.217 27.0565 83.0351 27.747 83.0343C28.432 83.0343 29.1104 83.217 29.7084 83.5617L36.4 87.4227ZM32.9934 80C35.1617 80 36.925 81.7623 36.925 83.9293V86.496L30.2344 82.636C29.9784 82.4878 29.7098 82.3626 29.4317 82.262C30.0704 80.8897 31.4417 80 32.9934 80ZM41.661 85.001C42.7444 86.8773 42.099 89.2847 40.2214 90.368L33.5297 94.228V90.3107L37.7294 87.8877C37.8954 87.792 37.9977 87.6153 37.9977 87.424V83.9293C37.9977 83.6343 37.971 83.3403 37.9204 83.0507C38.6645 82.9887 39.411 83.139 40.0731 83.4842C40.7352 83.8294 41.2858 84.3554 41.661 85.001V85.001Z" fill="white"/>
</svg>
