<svg width="180" height="180" viewBox="0 0 180 180" fill="none" xmlns="http://www.w3.org/2000/svg">
<rect width="180" height="180" fill="white"/>
<path d="M94.9951 84.1463C94.7346 83.953 94.4277 83.8318 94.1054 83.7951C93.8463 83.7645 93.5857 83.7489 93.3249 83.7483H91.9512V90H93.4185C93.7615 90.0023 94.1035 89.963 94.4371 89.8829C94.7481 89.8073 95.0344 89.6527 95.2683 89.4341C95.5414 89.1765 95.743 88.8524 95.8537 88.4937C96.0002 87.9867 96.0686 87.4603 96.0566 86.9327C96.0885 86.3049 95.9833 85.6777 95.7483 85.0946C95.5795 84.7211 95.3207 84.3953 94.9951 84.1463Z" fill="black"/>
<path d="M58 58V122H122V58H58ZM78.6166 93.1532C78.6166 93.4341 78.6166 93.758 78.5932 94.121C78.5768 94.4878 78.5337 94.853 78.4644 95.2137C78.3913 95.5906 78.2734 95.9574 78.1132 96.3063C77.9477 96.6682 77.7116 96.9933 77.4185 97.2624C77.0835 97.5567 76.6954 97.7845 76.2751 97.9337C75.7263 98.1193 75.1489 98.2065 74.5698 98.1912C73.7896 98.2341 73.0114 98.0755 72.3102 97.7307C71.8131 97.4644 71.4058 97.0571 71.1395 96.56C70.8911 96.0563 70.7439 95.5087 70.7063 94.9483C70.6595 94.3499 70.6361 93.7606 70.6361 93.1805V82.1951H72.439V93.1532C72.439 93.6254 72.439 94.078 72.4741 94.5073C72.4867 94.8913 72.5701 95.2697 72.72 95.6234C72.8589 95.9327 73.0837 96.1955 73.3678 96.3805C73.7454 96.5889 74.1743 96.6863 74.6049 96.6615C75.4829 96.6615 76.0878 96.4 76.4195 95.881C76.7512 95.3619 76.9112 94.4839 76.9112 93.2429V82.1951H78.6283L78.6166 93.1532ZM86.6205 97.9063L84.1229 91.3893L81.6098 97.9063H79.8537L83.2878 89.7112L80.2673 82.1951H82.1951L84.2907 87.8459L86.4878 82.1951H88.2322L85.161 89.4341L88.6459 97.9063H86.6205ZM97.602 88.6927C97.4623 89.2303 97.2095 89.7318 96.8605 90.1639C96.5 90.602 96.0396 90.9473 95.518 91.1707C94.8764 91.4298 94.1882 91.5533 93.4966 91.5337H91.9512V97.9102H90.1756V82.1951H93.2117C93.9185 82.1789 94.6241 82.263 95.3073 82.4449C95.895 82.6251 96.4128 82.9821 96.7902 83.4673C96.9157 83.6305 97.0329 83.7998 97.1415 83.9746C97.2797 84.1977 97.3948 84.4344 97.4849 84.681C97.5954 84.9903 97.6777 85.309 97.7307 85.6332C97.7977 86.0538 97.829 86.4794 97.8244 86.9054C97.829 87.5083 97.7542 88.1092 97.602 88.6927V88.6927ZM100.927 97.9063H99.3034V86.3044H100.927V97.9063ZM100.997 84.2088H99.2332V82.1951H100.997V84.2088ZM109.356 97.9063H107.733V90.5424C107.733 90.1795 107.733 89.8205 107.705 89.4576C107.695 89.1302 107.64 88.8059 107.541 88.4937C107.459 88.2289 107.31 87.9898 107.108 87.799C106.873 87.6052 106.573 87.5076 106.269 87.5259C106.083 87.5176 105.897 87.548 105.723 87.6151C105.549 87.6823 105.391 87.7848 105.259 87.9161C105.001 88.1873 104.808 88.5127 104.693 88.8683C104.565 89.2583 104.483 89.6615 104.447 90.0702C104.408 90.4956 104.388 90.878 104.388 91.2215V97.9063H102.765V86.3044H104.248V88.0722C104.295 87.9434 104.373 87.7678 104.482 87.5415C104.601 87.3004 104.754 87.0772 104.935 86.878C105.149 86.6389 105.404 86.4394 105.688 86.2888C106.029 86.1148 106.409 86.0302 106.792 86.0429C107.25 86.0315 107.702 86.1448 108.1 86.3707C108.453 86.5776 108.743 86.8789 108.935 87.241C109.159 87.6871 109.28 88.1778 109.29 88.6771C109.321 89.2754 109.337 89.9037 109.337 90.562L109.356 97.9063Z" fill="black"/>
</svg>
