<svg width="180" height="180" viewBox="0 0 180 180" fill="none" xmlns="http://www.w3.org/2000/svg">
<rect width="180" height="180" fill="white"/>
<path d="M69.5977 116.503C71.4661 119.11 74.1014 120.528 77.4614 120.528C81.8158 120.528 85.3213 118.727 87.7167 115.551C89.8033 112.785 90.922 109.099 90.922 105.408V100.178L80.4626 100.251L80.0429 107.594C80.0429 110.105 79.1521 110.94 76.9082 110.94C75.1702 110.94 73.9395 109.12 73.5497 105.943L71.7704 92.8715C71.0761 88.3646 69.3853 84.8643 66.8466 82.3248C64.6715 80.149 61.9434 78.7477 58.8735 78.047L50.2521 75.7734C49.0363 75.7734 48.1573 76.7282 48.1573 77.8139C48.1573 79.6141 48.3706 80.4957 49.4181 81.7796C49.7178 82.1469 50.2012 82.472 50.8776 82.8109C51.5757 83.1607 52.4823 83.5225 53.5537 83.8927C54.4157 84.1909 55.3358 84.4778 56.2557 84.7441C56.6346 84.8536 57.0144 84.9596 57.3953 85.0619C60.6763 85.9461 63.1951 89.0968 63.5631 92.3915L66.5512 107.702C67.0171 111.281 68.013 114.292 69.5977 116.503V116.503ZM90.836 100.429H80.8273L80.8422 101.366L80.937 107.286C80.937 109.763 79.1405 111.283 76.7156 111.283C74.9727 111.283 73.3388 109.446 71.3902 105.627L65.7305 94.6567C63.2038 90.2728 59.813 87.877 54.5162 86.8367L46.4902 84.7748C45.2087 84.7748 44.2283 86.3608 44.2283 87.4918C44.2283 88.7841 44.7918 90.1532 45.6571 91.2221C46.4389 92.1883 48.0992 93.0308 49.6455 93.3557L53.0145 94.0737C55.6915 94.9778 58.1728 96.8209 59.3268 98.998L63.5895 109.216C65.1961 112.736 66.8399 115.311 68.8059 117.171C71.1092 119.349 73.8221 120.482 77.0593 120.482C80.0252 120.482 83.1032 119.426 85.4843 117.536C88.1306 115.435 89.7551 112.463 89.971 108.935L90.836 100.429V100.429Z" fill="#053949"/>
<path fill-rule="evenodd" clip-rule="evenodd" d="M67.236 101.597L65.3914 92.1484C64.9267 88.1386 61.9014 84.3667 57.9527 83.302C57.8452 83.2736 57.7378 83.2447 57.6306 83.2154C57.3706 83.1444 57.0807 83.0631 56.7682 82.9727C55.8765 82.7146 54.9851 82.4365 54.1561 82.15C53.1548 81.8039 52.3166 81.4696 51.7037 81.1624C51.4603 81.0403 51.2582 80.9252 51.1026 80.8205C50.9693 80.7311 50.882 80.657 50.847 80.614C50.1211 79.7241 50.0012 79.2292 50.0012 77.8138C50.0012 77.7655 50.0252 77.7062 50.0661 77.6615C50.0751 77.6519 58.4183 79.8337 58.4183 79.8337C61.2031 80.4674 63.6247 81.7098 65.5426 83.6284C67.7949 85.8813 69.3115 89.0211 69.9455 93.1362L71.7212 106.179C72.2087 110.154 73.9873 112.783 76.9083 112.783C80.1364 112.783 81.878 111.159 81.8868 107.647L82.2047 102.083L89.0781 102.035V105.408C89.0781 108.715 88.0779 112.01 86.2445 114.441C84.1926 117.161 81.2285 118.684 77.4614 118.684C77.0868 118.685 76.7124 118.662 76.3405 118.616C71.5547 118.324 68.2882 115.062 65.2854 108.492L60.9972 98.2132C59.5812 95.5045 56.6782 93.3508 53.5496 92.3081L50.0274 91.5517C48.8574 91.3057 47.5671 90.6511 47.0904 90.062C46.4734 89.2999 46.0722 88.325 46.0722 87.4916C46.0722 87.3887 46.1731 87.0983 46.323 86.856C46.3683 86.7824 46.4142 86.7192 46.4565 86.6698L54.1096 88.6357C58.9209 89.5756 61.8614 91.6457 64.1117 95.5404L67.236 101.597V101.597Z" fill="#00D8FE"/>
<path fill-rule="evenodd" clip-rule="evenodd" d="M67.236 101.597L65.3914 92.1484C64.9267 88.1386 61.9014 84.3667 57.9527 83.302C57.8452 83.2736 57.7378 83.2447 57.6306 83.2154C57.3706 83.1444 57.0807 83.0631 56.7682 82.9727C55.8765 82.7146 54.9851 82.4365 54.1561 82.15C53.1548 81.8039 52.3166 81.4696 51.7037 81.1624C51.4603 81.0403 51.2582 80.9252 51.1026 80.8205C50.9693 80.7311 50.882 80.657 50.847 80.614C50.1211 79.7241 50.0012 79.2292 50.0012 77.8138C50.0012 77.7655 50.0252 77.7062 50.0661 77.6615C50.0751 77.6519 58.4183 79.8337 58.4183 79.8337C61.2031 80.4674 63.6247 81.7098 65.5426 83.6284C67.7949 85.8813 69.3115 89.0211 69.9455 93.1362L71.7212 106.179C72.2087 110.154 73.9873 112.783 76.9083 112.783C80.1364 112.783 81.878 111.159 81.8868 107.647L82.2047 102.083L89.0781 102.035V105.408C89.0781 108.715 88.0779 112.01 86.2445 114.441C84.1926 117.161 81.2285 118.684 77.4614 118.684C77.0868 118.685 76.7124 118.662 76.3405 118.616C71.5547 118.324 68.2882 115.062 65.2854 108.492L60.9972 98.2132C59.5812 95.5045 56.6782 93.3508 53.5496 92.3081L50.0274 91.5517C48.8574 91.3057 47.5671 90.6511 47.0904 90.062C46.4734 89.2999 46.0722 88.325 46.0722 87.4916C46.0722 87.3887 46.1731 87.0983 46.323 86.856C46.3683 86.7824 46.4142 86.7192 46.4565 86.6698L54.1096 88.6357C58.9209 89.5756 61.8614 91.6457 64.1117 95.5404L67.236 101.597V101.597Z" fill="#00D8FE"/>
<path fill-rule="evenodd" clip-rule="evenodd" d="M46.4316 86.5157C46.5931 86.7934 46.7812 87.0548 46.9932 87.2962C47.511 87.8853 48.9118 88.5399 50.1821 88.7859L54.0064 89.5422C57.4032 90.585 60.5552 92.7388 62.0926 95.4474L66.7485 105.726C67.3817 107.002 68.0256 108.153 68.6905 109.182C68.5637 108.543 68.4588 107.899 68.3759 107.252L67.236 101.412L64.1117 95.3559C61.8614 91.4612 58.9209 89.391 54.1096 88.4512L46.4565 86.4856L46.4316 86.5158V86.5157Z" fill="black" fill-opacity="0.25"/>
<path fill-rule="evenodd" clip-rule="evenodd" d="M83.7307 102.071V107.252C83.7307 110.81 82.296 114.443 77.2483 114.443C74.1767 114.443 71.0481 112.552 70.0281 105.435L68.0437 91.7628C67.5289 87.7531 63.5373 82.154 59.1605 81.0894C58.993 81.0492 52.9133 79.2567 52.234 78.9497C51.9641 78.8276 51.3231 78.4443 51.2842 78.4011C51.0493 78.1415 50.8717 77.9154 50.7379 77.6903C51.7328 77.9466 58.7933 79.8337 58.7933 79.8337C61.5181 80.4674 63.8873 81.7098 65.7637 83.6284C67.9672 85.8813 69.4511 89.0211 70.0712 93.1362L71.8084 106.179C72.2856 110.154 74.0259 112.783 76.8834 112.783C80.0418 112.783 81.7458 111.159 81.7543 107.647L82.0653 102.083L83.7307 102.071V102.071Z" fill="black" fill-opacity="0.25"/>
<path d="M91.1063 106.514V100.06H80.4117V100.982C80.4117 109.281 78.1372 112.876 73.036 112.876C68.5345 112.876 65.4382 109.66 63.4672 104.384C61.2188 98.3644 57.8087 95.635 51.1604 95.635H42.0584C40.9081 95.635 40 96.5835 40 97.7291C39.9994 98.4381 40.1389 99.1403 40.4106 99.7952C40.6823 100.45 41.0808 101.045 41.5832 101.545C42.0854 102.048 42.682 102.446 43.3387 102.718C43.9953 102.989 44.6991 103.128 45.4097 103.127L51.1824 103.103C52.3822 103.103 53.5419 103.981 54.733 105.775C55.7258 107.271 56.562 109.043 57.8909 112.264C59.0824 115.151 60.7158 117.598 62.9002 119.443C65.5728 121.699 68.9368 122.925 73.036 122.925C77.4492 122.925 81.9386 121.316 85.3288 118.5C88.989 115.459 91.1063 111.264 91.1063 106.514Z" fill="#053949"/>
<path fill-rule="evenodd" clip-rule="evenodd" d="M89.2624 101.904V106.514C89.2624 110.695 87.4028 114.38 84.1505 117.081C81.0926 119.622 77.0207 121.081 73.036 121.081C69.3716 121.081 66.4291 120.009 64.0897 118.034C62.1544 116.4 60.6822 114.194 59.5954 111.56C58.2211 108.23 57.35 106.384 56.2691 104.756C54.7715 102.499 53.1332 101.259 51.1785 101.259L45.4058 101.283C44.9377 101.284 44.4742 101.192 44.0417 101.013C43.6092 100.834 43.2164 100.571 42.8859 100.24C42.5551 99.911 42.2927 99.5197 42.1139 99.0888C41.935 98.6578 41.8433 98.1957 41.8439 97.7291C41.8439 97.5844 41.9449 97.4789 42.0583 97.4789H51.1604C56.9842 97.4789 59.7451 99.6886 61.7398 105.029C62.6931 107.581 63.9455 109.78 65.5591 111.456C67.5828 113.558 70.0747 114.719 73.036 114.719C79.1624 114.719 82.0557 110.476 82.2456 101.904H89.2624Z" fill="#00D8FE"/>
<path fill-rule="evenodd" clip-rule="evenodd" d="M41.9009 97.5589C42.069 97.7728 42.3065 97.9646 42.6038 98.2343C43.239 98.8106 44.0935 99.1384 45.0086 99.1384H52.5686C56.7829 99.1384 58.974 102.431 61.7264 108.491C62.7638 110.775 65.5931 116.287 73.5892 116.287C81.5853 116.287 83.9151 108.48 83.9151 104.855V101.904H82.2456C82.0557 110.476 79.1624 114.719 73.036 114.719C70.0747 114.719 67.5828 113.558 65.559 111.456C63.9456 109.78 62.6934 107.581 61.7399 105.029C59.7451 99.6888 56.9842 97.4789 51.1604 97.4789H42.0583C41.9979 97.4789 41.9409 97.5089 41.9009 97.5589Z" fill="black" fill-opacity="0.25"/>
<path d="M110.402 116.503C108.534 119.11 105.899 120.528 102.539 120.528C98.1841 120.528 94.6787 118.727 92.2833 115.551C90.1967 112.785 89.078 109.099 89.078 105.408V100.178L99.5374 100.251L99.9571 107.594C99.9571 110.105 100.848 110.94 103.092 110.94C104.83 110.94 106.06 109.12 106.45 105.943L108.23 92.8715C108.924 88.3646 110.615 84.8643 113.153 82.3248C115.328 80.149 118.057 78.7477 121.126 78.047L129.748 75.7734C130.964 75.7734 131.843 76.7282 131.843 77.8139C131.843 79.6141 131.629 80.4957 130.582 81.7796C130.282 82.1469 129.799 82.472 129.122 82.8109C128.424 83.1607 127.518 83.5225 126.446 83.8927C125.584 84.1909 124.664 84.4778 123.744 84.7441C123.365 84.8536 122.986 84.9596 122.605 85.0619C119.324 85.9461 116.805 89.0968 116.437 92.3915L113.449 107.702C112.983 111.281 111.987 114.292 110.402 116.503V116.503ZM89.1639 100.429H99.1727L99.1577 101.366L99.063 107.286C99.063 109.763 100.859 111.283 103.284 111.283C105.027 111.283 106.661 109.446 108.61 105.627L114.269 94.6567C116.796 90.2728 120.187 87.877 125.484 86.8367L133.51 84.7748C134.791 84.7748 135.772 86.3608 135.772 87.4918C135.772 88.7841 135.208 90.1532 134.343 91.2221C133.561 92.1883 131.901 93.0308 130.354 93.3557L126.985 94.0737C124.308 94.9778 121.827 96.8209 120.673 98.998L116.41 109.216C114.804 112.736 113.16 115.311 111.194 117.171C108.891 119.349 106.178 120.482 102.941 120.482C99.9748 120.482 96.8967 119.426 94.5157 117.536C91.8693 115.435 90.2448 112.463 90.0289 108.935L89.1639 100.429Z" fill="#053949"/>
<path fill-rule="evenodd" clip-rule="evenodd" d="M112.764 101.597L114.609 92.1484C115.073 88.1386 118.099 84.3667 122.047 83.3021C122.443 83.1963 122.838 83.0865 123.232 82.9727C124.124 82.7146 125.015 82.4365 125.844 82.15C126.845 81.8039 127.683 81.4696 128.296 81.1624C128.54 81.0403 128.742 80.9252 128.897 80.8205C129.031 80.7311 129.118 80.657 129.153 80.614C129.879 79.7241 129.999 79.2292 129.999 77.8138C129.999 77.7655 129.975 77.7062 129.934 77.6615C129.925 77.6519 121.582 79.8337 121.582 79.8337C118.797 80.4674 116.375 81.7098 114.457 83.6284C112.205 85.8813 110.689 89.0211 110.055 93.1362L108.279 106.179C107.791 110.154 106.013 112.783 103.092 112.783C99.8637 112.783 98.1221 111.159 98.1132 107.647L97.7954 102.083L90.922 102.035V105.408C90.922 108.715 91.9221 112.01 93.7555 114.441C95.8074 117.161 98.7715 118.684 102.539 118.684C102.925 118.684 103.298 118.661 103.66 118.616C108.445 118.324 111.712 115.062 114.715 108.492L119.003 98.2132C120.419 95.5045 123.322 93.3508 126.45 92.3081L129.973 91.5517C131.143 91.3057 132.433 90.6511 132.91 90.062C133.527 89.2999 133.928 88.325 133.928 87.4916C133.928 87.3887 133.827 87.0983 133.677 86.856C133.637 86.7907 133.593 86.7284 133.544 86.6698L125.89 88.6357C121.079 89.5756 118.139 91.6457 115.888 95.5404L112.764 101.597V101.597Z" fill="#00D8FE"/>
<path fill-rule="evenodd" clip-rule="evenodd" d="M112.764 101.597L114.609 92.1484C115.073 88.1386 118.099 84.3667 122.047 83.3021C122.443 83.1963 122.838 83.0865 123.232 82.9727C124.124 82.7146 125.015 82.4365 125.844 82.15C126.845 81.8039 127.683 81.4696 128.296 81.1624C128.54 81.0403 128.742 80.9252 128.897 80.8205C129.031 80.7311 129.118 80.657 129.153 80.614C129.879 79.7241 129.999 79.2292 129.999 77.8138C129.999 77.7655 129.975 77.7062 129.934 77.6615C129.925 77.6519 121.582 79.8337 121.582 79.8337C118.797 80.4674 116.375 81.7098 114.457 83.6284C112.205 85.8813 110.689 89.0211 110.055 93.1362L108.279 106.179C107.791 110.154 106.013 112.783 103.092 112.783C99.8637 112.783 98.1221 111.159 98.1132 107.647L97.7954 102.083L90.922 102.035V105.408C90.922 108.715 91.9221 112.01 93.7555 114.441C95.8074 117.161 98.7715 118.684 102.539 118.684C102.925 118.684 103.298 118.661 103.66 118.616C108.445 118.324 111.712 115.062 114.715 108.492L119.003 98.2132C120.419 95.5045 123.322 93.3508 126.45 92.3081L129.973 91.5517C131.143 91.3057 132.433 90.6511 132.91 90.062C133.527 89.2999 133.928 88.325 133.928 87.4916C133.928 87.3887 133.827 87.0983 133.677 86.856C133.637 86.7907 133.593 86.7284 133.544 86.6698L125.89 88.6357C121.079 89.5756 118.139 91.6457 115.888 95.5404L112.764 101.597V101.597Z" fill="#00D8FE"/>
<path fill-rule="evenodd" clip-rule="evenodd" d="M133.568 86.5157C133.407 86.7934 133.219 87.0548 133.007 87.2962C132.489 87.8853 131.088 88.5399 129.818 88.7859L125.994 89.5422C122.597 90.585 119.445 92.7388 117.907 95.4474L113.252 105.726C112.618 107.002 111.974 108.153 111.31 109.182C111.436 108.543 111.541 107.899 111.624 107.252L112.764 101.412L115.888 95.3559C118.139 91.4612 121.079 89.391 125.89 88.4512L133.544 86.4852L133.568 86.5155V86.5157Z" fill="black" fill-opacity="0.25"/>
<path fill-rule="evenodd" clip-rule="evenodd" d="M96.2693 102.071V107.252C96.2693 110.81 97.704 114.443 102.752 114.443C105.823 114.443 108.952 112.552 109.972 105.435L111.956 91.7628C112.471 87.7531 116.463 82.154 120.84 81.0894C121.007 81.0492 127.087 79.2567 127.766 78.9497C128.036 78.8276 128.677 78.4443 128.716 78.4011C128.951 78.1415 129.128 77.9154 129.262 77.6903C128.267 77.9466 121.207 79.8337 121.207 79.8337C118.482 80.4674 116.113 81.7098 114.236 83.6284C112.033 85.8813 110.549 89.0211 109.929 93.1362L108.192 106.179C107.714 110.154 105.974 112.783 103.117 112.783C99.9582 112.783 98.2543 111.159 98.2458 107.647L97.9347 102.083L96.2693 102.071V102.071Z" fill="black" fill-opacity="0.25"/>
<path d="M88.8936 106.514V100.06H99.5883V100.982C99.5883 109.281 101.863 112.876 106.964 112.876C111.465 112.876 114.562 109.66 116.533 104.384C118.781 98.3644 122.191 95.635 128.84 95.635H137.942C139.092 95.635 140 96.5835 140 97.7291C140.001 98.4381 139.861 99.1403 139.589 99.7952C139.318 100.45 138.919 101.045 138.417 101.545C137.915 102.048 137.318 102.446 136.661 102.718C136.005 102.989 135.301 103.128 134.59 103.127L128.818 103.103C127.618 103.103 126.458 103.981 125.267 105.775C124.274 107.271 123.438 109.043 122.109 112.264C120.918 115.151 119.284 117.598 117.1 119.443C114.427 121.699 111.063 122.925 106.964 122.925C102.551 122.925 98.0613 121.316 94.6711 118.5C91.011 115.459 88.8936 111.264 88.8936 106.514Z" fill="#053949"/>
<path fill-rule="evenodd" clip-rule="evenodd" d="M90.7375 101.904V106.514C90.7375 110.695 92.5971 114.38 95.8494 117.081C98.9074 119.622 102.979 121.081 106.964 121.081C110.628 121.081 113.571 120.009 115.91 118.034C117.846 116.4 119.318 114.194 120.405 111.56C121.779 108.23 122.65 106.384 123.731 104.756C125.228 102.499 126.867 101.259 128.821 101.259L134.594 101.283C135.553 101.283 136.449 100.905 137.114 100.24C137.445 99.911 137.707 99.5197 137.886 99.0888C138.065 98.6578 138.157 98.1957 138.156 97.7291C138.156 97.5844 138.055 97.4789 137.942 97.4789H128.84C123.016 97.4789 120.255 99.6886 118.26 105.029C117.307 107.581 116.054 109.78 114.441 111.456C112.417 113.558 109.925 114.719 106.964 114.719C100.838 114.719 97.9443 110.476 97.7544 101.904H90.7375Z" fill="#00D8FE"/>
<path fill-rule="evenodd" clip-rule="evenodd" d="M138.099 97.5589C137.931 97.7728 137.693 97.9646 137.396 98.2343C136.761 98.8106 135.906 99.1384 134.991 99.1384H127.431C123.217 99.1384 121.026 102.431 118.274 108.491C117.236 110.775 114.407 116.287 106.411 116.287C98.4146 116.287 96.0848 108.48 96.0848 104.855V101.904H97.7543C97.9442 110.476 100.838 114.719 106.964 114.719C109.925 114.719 112.417 113.558 114.441 111.456C116.054 109.78 117.307 107.581 118.26 105.029C120.255 99.6888 123.016 97.4789 128.839 97.4789H137.942C138.002 97.4789 138.059 97.5089 138.099 97.5589Z" fill="black" fill-opacity="0.25"/>
<mask id="mask0" mask-type="alpha" maskUnits="userSpaceOnUse" x="81" y="84" width="17" height="22">
<path d="M97.0753 103.929C97.0753 103.929 92.082 105.269 89.5851 105.269C87.0885 105.269 82.1868 103.929 82.1868 103.929C81.9827 103.929 81.7868 103.847 81.6425 103.703C81.4981 103.559 81.417 103.363 81.417 103.159V85.7357C81.417 85.6346 81.4369 85.5345 81.4756 85.4411C81.5143 85.3477 81.571 85.2628 81.6425 85.1913C81.714 85.1198 81.7988 85.0631 81.8922 85.0244C81.9856 84.9857 82.0857 84.9658 82.1868 84.9658H97.0753C97.2795 84.9658 97.4753 85.0469 97.6196 85.1913C97.764 85.3357 97.8451 85.5315 97.8451 85.7357V103.159C97.8452 103.26 97.8253 103.36 97.7866 103.453C97.7479 103.547 97.6912 103.632 97.6197 103.703C97.5482 103.775 97.4634 103.831 97.3699 103.87C97.2765 103.909 97.1764 103.929 97.0753 103.929V103.929Z" fill="white"/>
</mask>
<g mask="url(#mask0)">
<path d="M97.0753 103.929C97.0753 103.929 92.082 105.269 89.5851 105.269C87.0885 105.269 82.1868 103.929 82.1868 103.929C81.9827 103.929 81.7868 103.847 81.6425 103.703C81.4981 103.559 81.417 103.363 81.417 103.159V85.7357C81.417 85.6346 81.4369 85.5345 81.4756 85.4411C81.5143 85.3477 81.571 85.2628 81.6425 85.1913C81.714 85.1198 81.7988 85.0631 81.8922 85.0244C81.9856 84.9857 82.0857 84.9658 82.1868 84.9658H97.0753C97.2795 84.9658 97.4753 85.0469 97.6196 85.1913C97.764 85.3357 97.8451 85.5315 97.8451 85.7357V103.159C97.8452 103.26 97.8253 103.36 97.7866 103.453C97.7479 103.547 97.6912 103.632 97.6197 103.703C97.5482 103.775 97.4634 103.831 97.3699 103.87C97.2765 103.909 97.1764 103.929 97.0753 103.929V103.929Z" fill="#00D8FE"/>
<path fill-rule="evenodd" clip-rule="evenodd" d="M79.2043 85.7357C79.2043 84.0884 80.5395 82.7532 82.1868 82.7532H97.0753C98.7226 82.7532 100.058 84.0884 100.058 85.7357V103.158C100.058 103.158 100.058 103.158 100.058 103.158C100.058 104.679 98.9209 105.933 97.4498 106.118C96.5482 106.351 95.642 106.566 94.7316 106.762L94.7311 106.762C94.1453 106.888 93.5742 107.001 93.0265 107.099C91.6966 107.337 90.5247 107.482 89.5851 107.482C88.6543 107.482 87.5049 107.34 86.2067 107.106C86.2067 107.106 86.2068 107.106 86.2067 107.106C85.6514 107.007 85.0722 106.89 84.4787 106.761L84.478 106.761C83.594 106.568 82.7141 106.356 81.8389 106.126L81.8365 106.125C81.8288 106.123 81.8202 106.121 81.811 106.119C81.8087 106.118 81.8063 106.117 81.8039 106.117C81.8152 106.118 81.8264 106.12 81.8377 106.121C81.8385 106.121 81.8394 106.121 81.8402 106.121C81.8624 106.124 81.8847 106.126 81.9071 106.128L82.01 105.027L81.7169 106.093C81.7448 106.101 81.7764 106.11 81.8039 106.117C80.337 105.928 79.2043 104.676 79.2043 103.159V85.7357ZM97.249 105.027L97.1477 103.925C97.5388 103.889 97.8452 103.559 97.8451 103.159V85.7357C97.8451 85.3104 97.5005 84.9659 97.0753 84.9659H82.1868C81.7615 84.9659 81.417 85.3104 81.417 85.7357V103.159C81.417 103.559 81.723 103.889 82.1129 103.925L82.2095 103.934L82.3031 103.96C82.3217 103.965 82.3399 103.97 82.3646 103.976C82.3757 103.979 82.3882 103.983 82.4026 103.986C83.2474 104.208 84.0968 104.413 84.9502 104.599C85.5217 104.723 86.074 104.834 86.5986 104.929C87.8491 105.154 88.8487 105.269 89.5851 105.269C90.3301 105.269 91.3518 105.151 92.6365 104.921C93.1557 104.828 93.7017 104.72 94.2665 104.599C95.1723 104.404 96.0738 104.19 96.9705 103.956L97.249 105.027Z" fill="#043849"/>
<path fill-rule="evenodd" clip-rule="evenodd" d="M81.3337 90.472H85.3903L83.1776 105.961H81.3337V90.472Z" fill="black" fill-opacity="0.25"/>
</g>
<path d="M81.2332 98.0917C83.7835 98.0917 85.8509 96.0282 85.8509 93.4827C85.8509 90.9372 83.7835 88.8737 81.2332 88.8737C78.6829 88.8737 76.6155 90.9372 76.6155 93.4827C76.6155 96.0282 78.6829 98.0917 81.2332 98.0917Z" fill="white"/>
<path fill-rule="evenodd" clip-rule="evenodd" d="M81.2331 89.9799C79.2919 89.9799 77.7218 91.5501 77.7218 93.4826C77.7218 95.4151 79.2919 96.9853 81.2331 96.9853C83.1744 96.9853 84.7445 95.4151 84.7445 93.4826C84.7445 91.5501 83.1744 89.9799 81.2331 89.9799ZM75.5091 93.4826C75.5091 90.3241 78.0738 87.7672 81.2331 87.7672C84.3925 87.7672 86.9572 90.3241 86.9572 93.4826C86.9572 96.6411 84.3925 99.198 81.2331 99.198C78.0738 99.198 75.5091 96.6411 75.5091 93.4826Z" fill="#063A49"/>
<path d="M81.2331 94.9316C82.0312 94.9316 82.6782 94.2847 82.6782 93.4866C82.6782 92.6885 82.0312 92.0415 81.2331 92.0415C80.435 92.0415 79.788 92.6885 79.788 93.4866C79.788 94.2847 80.435 94.9316 81.2331 94.9316Z" fill="#053949"/>
<path d="M97.8283 98.0917C100.379 98.0917 102.446 96.0282 102.446 93.4827C102.446 90.9372 100.379 88.8737 97.8283 88.8737C95.278 88.8737 93.2106 90.9372 93.2106 93.4827C93.2106 96.0282 95.278 98.0917 97.8283 98.0917Z" fill="white"/>
<path fill-rule="evenodd" clip-rule="evenodd" d="M97.8283 89.9799C95.8871 89.9799 94.3169 91.5501 94.3169 93.4826C94.3169 95.4151 95.8871 96.9853 97.8283 96.9853C99.7695 96.9853 101.34 95.4151 101.34 93.4826C101.34 91.5501 99.7695 89.9799 97.8283 89.9799ZM92.1042 93.4826C92.1042 90.3241 94.669 87.7672 97.8283 87.7672C100.988 87.7672 103.552 90.3241 103.552 93.4826C103.552 96.6411 100.988 99.198 97.8283 99.198C94.669 99.198 92.1042 96.6411 92.1042 93.4826Z" fill="#063A49"/>
<path d="M97.8283 94.9316C98.6264 94.9316 99.2734 94.2847 99.2734 93.4866C99.2734 92.6885 98.6264 92.0415 97.8283 92.0415C97.0302 92.0415 96.3832 92.6885 96.3832 93.4866C96.3832 94.2847 97.0302 94.9316 97.8283 94.9316Z" fill="#053949"/>
<mask id="mask1" mask-type="alpha" maskUnits="userSpaceOnUse" x="75" y="57" width="29" height="34">
<path d="M96.2416 89.5778C96.2416 89.5778 91.7949 90.4717 89.5715 90.4717C87.3877 90.4717 83.0204 89.5778 83.0204 89.5778C78.9395 89.5778 75.6313 87.1636 75.6313 83.0826V70.9864C75.6313 63.2619 81.8933 57 89.6178 57C97.3686 57 103.631 63.2619 103.631 70.9864V83.0826C103.631 87.1636 100.322 89.5778 96.2416 89.5778V89.5778Z" fill="white"/>
</mask>
<g mask="url(#mask1)">
<path d="M96.2416 89.5778C96.2416 89.5778 91.7949 90.4717 89.5715 90.4717C87.3877 90.4717 83.0204 89.5778 83.0204 89.5778C78.9395 89.5778 75.6313 87.1636 75.6313 83.0826V70.9864C75.6313 63.2619 81.8933 57 89.6178 57C97.3686 57 103.631 63.2619 103.631 70.9864V83.0826C103.631 87.1636 100.322 89.5778 96.2416 89.5778V89.5778Z" fill="#00D8FE"/>
<path fill-rule="evenodd" clip-rule="evenodd" d="M73.4186 70.9865C73.4186 62.0399 80.6712 54.7874 89.6178 54.7874C98.5846 54.7874 105.843 62.0338 105.843 70.9865V83.0826C105.843 83.0827 105.843 83.0826 105.843 83.0826C105.843 85.662 104.816 87.8537 103.079 89.3944C101.378 90.9046 99.0514 91.7428 96.4665 91.7887C95.6772 91.9412 94.8856 92.0815 94.092 92.2094M94.092 92.2094C93.5903 92.2905 93.0873 92.3651 92.5836 92.433L92.5827 92.4331C91.4092 92.5903 90.3834 92.6845 89.5715 92.6845C88.7693 92.6845 87.7585 92.5901 86.6037 92.4324C86.1269 92.3674 85.6296 92.292 85.1194 92.2084L85.1191 92.2084C84.3407 92.0807 83.5643 91.9407 82.7903 91.7885C80.2072 91.7417 77.8827 90.9035 76.1819 89.3939C74.446 87.8532 73.4186 85.6617 73.4186 83.0827V70.9865M96.3526 90.6838L96.1413 89.5979C95.3432 89.7532 94.5426 89.8955 93.7399 90.0249L93.7393 90.025C93.2566 90.1031 92.773 90.1748 92.2884 90.2401C91.1495 90.3926 90.2372 90.4718 89.5715 90.4718C88.9178 90.4718 88.0221 90.3929 86.9027 90.24L86.9025 90.24C86.4485 90.1781 85.9712 90.1057 85.4773 90.0249C84.7204 89.9007 83.9654 89.7645 83.2128 89.6165C83.2123 89.6164 83.2118 89.6163 83.2113 89.6162L83.0222 89.5784L82.9181 89.5774C80.7441 89.5563 78.9179 88.8638 77.6507 87.7391C76.3953 86.6247 75.6313 85.039 75.6313 83.0827V70.9865C75.6313 63.2619 81.8932 57 89.6178 57C97.3659 57 103.631 63.2592 103.631 70.9865V83.0827C103.631 85.0392 102.867 86.6251 101.611 87.7394C100.343 88.8642 98.5166 89.5567 96.342 89.5775L96.3526 90.6838Z" fill="#043849"/>
<path d="M79.4848 82.7139V66.9298C79.4848 59.8548 84.739 54.0103 91.5577 53.0769C90.9237 52.9889 90.2843 52.9443 89.6441 52.9432H89.6178C81.8933 52.9432 75.6312 59.2052 75.6312 66.9297V82.7137C75.6312 86.7946 78.9393 90.1028 83.0203 90.1028H86.8737C82.7929 90.103 79.4848 86.7948 79.4848 82.7139Z" fill="black" fill-opacity="0.25"/>
<path d="M88.126 83.9583C88.9241 83.9583 89.5711 83.3113 89.5711 82.5132C89.5711 81.7151 88.9241 81.0681 88.126 81.0681C87.3279 81.0681 86.681 81.7151 86.681 82.5132C86.681 83.3113 87.3279 83.9583 88.126 83.9583Z" fill="black" fill-opacity="0.25"/>
<path d="M84.2538 76.3983C85.0519 76.3983 85.6989 75.7513 85.6989 74.9533C85.6989 74.1552 85.0519 73.5082 84.2538 73.5082C83.4557 73.5082 82.8087 74.1552 82.8087 74.9533C82.8087 75.7513 83.4557 76.3983 84.2538 76.3983Z" fill="black" fill-opacity="0.25"/>
<path d="M89.631 69.344C90.4291 69.344 91.0761 68.697 91.0761 67.8989C91.0761 67.1008 90.4291 66.4539 89.631 66.4539C88.833 66.4539 88.186 67.1008 88.186 67.8989C88.186 68.697 88.833 69.344 89.631 69.344Z" fill="black" fill-opacity="0.25"/>
<path d="M94.9486 76.7671C95.7466 76.7671 96.3936 76.1201 96.3936 75.322C96.3936 74.5239 95.7466 73.877 94.9486 73.877C94.1505 73.877 93.5035 74.5239 93.5035 75.322C93.5035 76.1201 94.1505 76.7671 94.9486 76.7671Z" fill="black" fill-opacity="0.25"/>
</g>
</svg>
