<svg width="180" height="180" viewBox="0 0 180 180" fill="none" xmlns="http://www.w3.org/2000/svg">
<rect width="180" height="180" fill="white"/>
<path d="M64.3335 65.3333H115.667V115.267H64.3335V65.3333Z" fill="#2E001E"/>
<path d="M62 63V117.6H118V63H62ZM64.3333 65.3333H115.667V115.267H64.3333V65.3333Z" fill="#FF2BC2"/>
<path d="M102.67 85.9366C102.32 85.7732 101.876 85.7032 101.316 85.7032C98.3765 85.7032 96.4165 87.9666 96.4165 91.7232C96.4165 96.0165 98.4231 97.7432 101.036 97.7432C101.596 97.7432 102.203 97.6732 102.646 97.4865V85.9366H102.67ZM92.2165 91.9099C92.2165 86.4732 95.7165 82.2266 101.456 82.2266C101.946 82.2266 102.203 82.2266 102.67 82.2733V76.2066C102.67 76.0666 102.786 75.9733 102.903 75.9733H106.66C106.846 75.9733 106.893 76.0433 106.893 76.16V97.4865C106.893 98.1165 106.893 98.9099 107.01 99.7732C107.01 99.9365 107.01 99.9599 106.87 100.03C104.91 100.963 102.856 101.383 100.896 101.383C95.8331 101.383 92.2165 98.2565 92.2165 91.9099V91.9099ZM84.2598 88.1299L90.7931 100.8C90.9098 100.987 90.8398 101.173 90.6531 101.173H86.5931C86.3365 101.173 86.2198 101.103 86.1031 100.87C84.6098 97.7899 83.0931 94.5932 81.5298 91.2799H81.4831C80.0831 94.4065 78.5431 97.8132 77.0498 100.893C76.9331 101.08 76.8165 101.15 76.6298 101.15H72.7565C72.5231 101.15 72.4998 100.963 72.6165 100.823L79.0098 88.5266L72.8265 76.2999C72.6865 76.1133 72.8265 75.95 72.9898 75.95H77.0031C77.2365 75.95 77.3531 75.9966 77.4231 76.2066C78.8931 79.3099 80.3865 82.3666 81.7865 85.4932H81.8331C83.1865 82.4133 84.6798 79.3099 86.1031 76.2533C86.2198 76.0666 86.2898 75.95 86.5231 75.95H90.2798C90.4665 75.95 90.5365 76.09 90.4198 76.2999L84.2598 88.1299V88.1299Z" fill="#FF2BC2"/>
</svg>
