<svg width="180" height="180" viewBox="0 0 180 180" fill="none" xmlns="http://www.w3.org/2000/svg">
<rect width="180" height="180" fill="white"/>
<path d="M65.5066 97.6061V83.2112H67.3687L76.1762 94.8004V83.2122H77.939V97.6061H76.0759L67.2683 85.9095V97.6081L65.5066 97.6061ZM92.2314 97.0429C91.0312 97.4934 89.7581 97.7187 88.4761 97.7075C83.2623 97.7075 80.6543 95.2079 80.6543 90.2079C80.6543 85.4778 83.1709 83.1108 88.2031 83.1108C89.5683 83.1008 90.9275 83.3065 92.2284 83.7201V85.3303C91.0073 84.8638 89.7111 84.6247 88.4039 84.6246C84.4739 84.6246 82.5084 86.4867 82.5084 90.2119C82.5084 94.2051 84.4417 96.2007 88.3075 96.2007C89.0001 96.1922 89.6899 96.1105 90.3653 95.9568V91.0631H92.2244L92.2314 97.0429V97.0429ZM95.2018 92.0499V83.2122H97.0619V92.0499C97.0619 94.8144 98.4371 96.1967 101.189 96.1967C103.94 96.1967 105.315 94.8144 105.315 92.0499V83.2122H107.178V92.0499C107.178 95.8213 105.181 97.7075 101.189 97.7075C97.1954 97.7075 95.1998 95.8213 95.2018 92.0499V92.0499ZM112.362 83.2122V96.0973H119.885V97.6061H110.492V83.2112L112.362 83.2122ZM122.58 97.6061H120.658L127.803 81.319L134.96 97.6141H132.896L131.026 93.0768H126.273L126.788 91.568H130.415L127.724 85.0432L122.58 97.6061ZM136.922 97.6061V83.2112H143.061C145.8 83.2112 147.169 84.3636 147.169 86.6684C147.169 88.5395 145.83 89.9258 143.154 90.8262L148.103 97.6061H145.64L141.062 91.1344V89.9147C143.812 89.4771 145.188 88.419 145.188 86.7426C145.188 85.4146 144.423 84.7511 142.893 84.7511H138.787V97.6061H136.922Z" fill="black"/>
<path d="M61.165 79.2109L45.8858 74V105.996L58.6946 98.909L61.165 79.2109Z" fill="#C3002F"/>
<path d="M31 79.3042L33.2747 99.0063L45.8797 106V74.001L31 79.3042Z" fill="#DD0031"/>
<path d="M49.4272 89.9147L45.9118 82.5757L42.8201 89.9147H49.4272ZM50.7664 93.0014H41.4508L39.3669 98.2133L35.4901 98.2836L45.8847 75.1604L56.6418 98.2836H53.0481L50.7664 93.0024V93.0014Z" fill="#F2F2F2"/>
</svg>
