<svg width="180" height="180" viewBox="0 0 180 180" fill="none" xmlns="http://www.w3.org/2000/svg">
<rect width="180" height="180" fill="white"/>
<path fill-rule="evenodd" clip-rule="evenodd" d="M49.2203 96.1354L57.5784 86.0587H49.3563V85.1756H58.8503V85.9907L50.5155 96.0674H58.8057V96.9505H49.2192V96.1354H49.2203ZM66.4137 97.1769C65.5813 97.1769 64.8099 97.0145 64.0973 96.6896C63.3966 96.3732 62.7669 95.9189 62.2458 95.3538C61.1616 94.171 60.5651 92.6218 60.576 91.0174C60.576 90.187 60.7242 89.4064 61.0195 88.6735C61.3149 87.9417 61.72 87.3001 62.2346 86.7489C62.7507 86.1969 63.3724 85.754 64.0628 85.4466C64.7813 85.1266 65.5602 84.9646 66.3467 84.9715C67.1791 84.9715 67.9505 85.134 68.6621 85.4588C69.3737 85.7836 69.9878 86.2201 70.5024 86.7713C71.0225 87.3308 71.4311 87.9843 71.7063 88.6969C71.9936 89.4277 72.1377 90.2023 72.1377 91.0174V91.3016C72.1427 91.3738 72.1348 91.4463 72.1144 91.5158H61.7575C61.841 92.7915 62.3765 93.9957 63.2679 94.9122C63.6841 95.3355 64.1653 95.6674 64.7104 95.909C65.2613 96.1518 65.8573 96.2753 66.4594 96.2714C66.8666 96.2718 67.2719 96.2147 67.6632 96.1019C68.0479 95.9922 68.4177 95.8361 68.7646 95.637C69.1004 95.4448 69.4064 95.2047 69.6731 94.9244C69.938 94.6442 70.1461 94.3387 70.2974 94.0068L71.2972 94.2788C71.1308 94.7011 70.8841 95.0909 70.5593 95.4451C70.2334 95.8004 69.8548 96.1049 69.4234 96.3618C68.992 96.6186 68.519 96.8185 68.0043 96.9617C67.4864 97.1056 66.9512 97.178 66.4137 97.1769V97.1769ZM71.0475 90.6093C71.011 89.9522 70.8531 89.3076 70.5816 88.7081C70.3321 88.1564 69.9859 87.6538 69.5594 87.224C69.1455 86.8105 68.6562 86.4801 68.118 86.2505C67.5652 86.0149 66.9699 85.8953 66.369 85.8993C65.7681 85.8953 65.1728 86.0149 64.62 86.2505C63.5138 86.7214 62.6367 87.6079 62.1778 88.7192C61.9235 89.3197 61.7738 89.9593 61.7352 90.6103H71.0475V90.6093ZM80.2239 86.1937C79.1631 86.2242 78.2353 86.5378 77.4405 87.1337C76.6457 87.7305 76.0894 88.5497 75.7717 89.5902V96.9505H74.6358V85.1766H75.726V88.0746C76.1351 87.2443 76.6761 86.5683 77.3502 86.0475C78.0242 85.5268 78.7469 85.2294 79.5194 85.1543C79.6706 85.138 79.8066 85.1309 79.9274 85.1309H80.2228V86.1947L80.2239 86.1937ZM87.3325 97.1769C86.5001 97.1769 85.7307 97.0145 85.0272 96.6896C84.3355 96.3746 83.7136 95.9245 83.198 95.366C82.6776 94.7983 82.2691 94.1374 81.9942 93.418C81.7058 92.6743 81.5594 91.8831 81.5627 91.0854C81.5584 90.2792 81.709 89.4797 82.0063 88.7304C82.3007 87.9904 82.7067 87.3418 83.2214 86.7824C83.7362 86.2237 84.3574 85.7734 85.0485 85.4578C85.765 85.1303 86.5447 84.964 87.3325 84.9705C88.1496 84.9705 88.9058 85.1329 89.6032 85.4578C90.2995 85.7826 90.9096 86.2242 91.4314 86.7824C92.5128 87.9535 93.1096 89.4914 93.1012 91.0854C93.1012 91.9005 92.953 92.679 92.6586 93.418C92.3765 94.1366 91.9642 94.797 91.4425 95.366C90.9277 95.9247 90.3065 96.375 89.6154 96.6906C88.9109 97.0155 88.1496 97.1779 87.3314 97.1779L87.3325 97.1769ZM82.6986 91.131C82.6986 91.8254 82.8204 92.4781 83.062 93.0902C83.3046 93.7012 83.6335 94.2331 84.0497 94.6859C84.4659 95.1386 84.9551 95.4979 85.5155 95.7618C86.0758 96.0258 86.6727 96.1577 87.3091 96.1577C87.9456 96.1577 88.5434 96.0258 89.1038 95.7618C89.6639 95.4976 90.1657 95.1242 90.5797 94.6635C91.4702 93.6772 91.9568 92.3918 91.943 91.063C91.9475 90.3928 91.8242 89.7279 91.5795 89.1039C91.3486 88.5108 91.0095 87.9656 90.5797 87.496C90.1641 87.0419 89.6674 86.6694 89.1149 86.3977C88.5603 86.1258 87.9501 85.9864 87.3325 85.9907C86.696 85.9907 86.0981 86.1257 85.5378 86.3977C84.9809 86.667 84.483 87.0441 84.073 87.5072C83.6569 87.9752 83.3229 88.5223 83.0732 89.1496C82.8227 89.78 82.6955 90.4527 82.6986 91.131V91.131ZM105.479 96.9505H104.343V90.384C104.343 87.4707 103.367 86.014 101.414 86.014C100.929 86.014 100.456 86.1054 99.9946 86.2861C99.5327 86.4668 99.1013 86.7226 98.6993 87.0555C98.2984 87.3874 97.9461 87.7762 97.6436 88.2218C97.343 88.6628 97.1132 89.1482 96.9625 89.6602V96.9515H95.8256V80.4199H96.9625V87.9823C97.4258 87.085 98.1195 86.3272 98.9724 85.7867C99.7936 85.2534 100.752 84.9702 101.731 84.9715C102.383 84.9715 102.943 85.0923 103.412 85.3339C103.881 85.5755 104.272 85.9227 104.582 86.3754C104.892 86.8281 105.12 87.3753 105.264 88.0168C105.407 88.6583 105.479 89.38 105.479 90.1789V96.9505V96.9505ZM113.929 97.1769C113.096 97.1769 112.323 97.0145 111.611 96.6896C110.911 96.3731 110.282 95.9188 109.761 95.3538C108.677 94.171 108.08 92.6218 108.091 91.0174C108.091 90.187 108.239 89.4064 108.534 88.6735C108.829 87.9417 109.235 87.3001 109.749 86.7489C110.265 86.197 110.887 85.7541 111.577 85.4466C112.295 85.1266 113.074 84.9646 113.861 84.9715C114.693 84.9715 115.464 85.134 116.177 85.4588C116.888 85.7836 117.502 86.2201 118.016 86.7713C118.536 87.3308 118.945 87.9843 119.22 88.6969C119.507 89.4277 119.652 90.2023 119.652 91.0174V91.3016C119.657 91.3737 119.649 91.4463 119.629 91.5158H109.271C109.355 92.7915 109.89 93.9957 110.782 94.9122C111.198 95.3355 111.679 95.6674 112.223 95.909C112.774 96.1518 113.37 96.2753 113.972 96.2714C114.379 96.2718 114.785 96.2147 115.176 96.1019C115.561 95.9922 115.931 95.8361 116.277 95.637C116.613 95.4448 116.919 95.2047 117.186 94.9244C117.451 94.6442 117.66 94.3387 117.811 94.0068L118.81 94.2788C118.644 94.7011 118.398 95.0909 118.072 95.4451C117.747 95.8004 117.368 96.1049 116.936 96.3618C116.505 96.6186 116.033 96.8185 115.517 96.9617C115 97.1055 114.465 97.1779 113.928 97.1769H113.929ZM118.561 90.6093C118.525 89.9522 118.367 89.3076 118.095 88.7081C117.846 88.1565 117.5 87.6539 117.074 87.224C116.66 86.8104 116.17 86.48 115.632 86.2505C115.079 86.0149 114.484 85.8953 113.883 85.8993C113.282 85.8953 112.687 86.0149 112.134 86.2505C111.028 86.7216 110.151 87.6081 109.693 88.7192C109.438 89.3197 109.288 89.9593 109.249 90.6103H118.561V90.6093ZM122.15 96.9505V85.1766H123.287V96.9515H122.15V96.9505ZM122.15 82.5029V80.4199H123.287V82.5029H122.15V82.5029ZM131.62 97.1322C130.842 97.1408 130.072 96.9663 129.373 96.6226C128.702 96.2908 128.104 95.8288 127.613 95.2634C127.116 94.6908 126.724 94.0356 126.454 93.3277C126.175 92.6129 126.033 91.8524 126.033 91.0854C126.033 90.2855 126.166 89.515 126.431 88.7761C126.683 88.0596 127.064 87.3955 127.556 86.817C128.04 86.2505 128.619 85.8019 129.293 85.4689C129.967 85.137 130.713 84.9715 131.53 84.9715C132.56 84.9715 133.457 85.2395 134.222 85.7755C134.982 86.3066 135.64 86.9702 136.164 87.7346V85.1735H137.208V97.1759C137.208 97.9768 137.056 98.6782 136.754 99.2821C136.465 99.8682 136.05 100.383 135.539 100.789C135.031 101.188 134.441 101.49 133.767 101.694C133.093 101.897 132.386 102 131.644 102C131.025 102.006 130.408 101.941 129.804 101.807C129.301 101.694 128.815 101.511 128.362 101.264C127.951 101.033 127.576 100.743 127.249 100.403C126.923 100.063 126.637 99.687 126.397 99.2821L127.169 98.7614C127.639 99.5613 128.276 100.147 129.078 100.516C129.88 100.886 130.735 101.071 131.644 101.071C132.25 101.071 132.821 100.988 133.359 100.822C133.896 100.656 134.365 100.411 134.767 100.086C135.168 99.7613 135.486 99.3573 135.721 98.8741C135.955 98.3919 136.073 97.8255 136.073 97.1759V94.5965C135.592 95.3624 134.929 95.9966 134.142 96.4419C133.378 96.8917 132.508 97.1299 131.621 97.1322H131.62ZM131.894 96.1577C132.396 96.1575 132.893 96.0617 133.358 95.8755C133.835 95.6867 134.267 95.4411 134.653 95.1386C135.039 94.8371 135.357 94.4971 135.608 94.1205C135.857 93.7429 136.013 93.3652 136.073 92.9876V89.1151C135.711 88.2155 135.101 87.4379 134.312 86.8738C133.928 86.6026 133.508 86.3854 133.064 86.2282C132.63 86.072 132.173 85.9917 131.712 85.9907C131.001 85.9907 130.365 86.1409 129.803 86.4434C129.255 86.7354 128.772 87.1361 128.384 87.6209C127.994 88.1113 127.695 88.6671 127.499 89.2623C127.298 89.8567 127.194 90.48 127.193 91.1077C127.193 91.7878 127.313 92.4293 127.556 93.0333C127.798 93.6373 128.131 94.1732 128.555 94.6412C128.979 95.1081 129.479 95.4786 130.054 95.7507C130.629 96.0221 131.258 96.1612 131.893 96.1577H131.894ZM150.404 96.9505H149.269V90.384C149.269 87.4707 148.292 86.014 146.339 86.014C145.854 86.014 145.381 86.1054 144.919 86.2861C144.457 86.4668 144.026 86.7226 143.625 87.0555C143.224 87.3874 142.872 87.7762 142.569 88.2218C142.268 88.6628 142.038 89.1481 141.887 89.6602V96.9515H140.751V80.4199H141.888V87.9823C142.351 87.085 143.045 86.3272 143.898 85.7867C144.719 85.2534 145.678 84.9702 146.657 84.9715C147.307 84.9715 147.868 85.0923 148.338 85.3339C148.807 85.5755 149.197 85.9227 149.507 86.3754C149.818 86.8281 150.045 87.3753 150.188 88.0168C150.332 88.6583 150.404 89.38 150.404 90.1789V96.9505V96.9505ZM159.104 96.3841C159.043 96.4145 158.94 96.4714 158.796 96.5546C158.653 96.6379 158.471 96.717 158.251 96.7922C158.009 96.8736 157.763 96.9414 157.513 96.9952C157.241 97.0561 156.945 97.0865 156.628 97.0865C156.309 97.0865 156.011 97.0408 155.731 96.9505C155.46 96.8653 155.209 96.7269 154.993 96.5435C154.781 96.3629 154.61 96.1389 154.492 95.8867C154.365 95.6018 154.303 95.2921 154.31 94.9802V86.1034H152.653V85.1746H154.31V81.1447H155.446V85.1746H158.194V86.1034H155.446V94.7092C155.446 95.1457 155.599 95.4746 155.901 95.6938C156.204 95.9131 156.544 96.0227 156.922 96.0227C157.392 96.0227 157.797 95.9425 158.137 95.7842C158.478 95.6258 158.687 95.5243 158.763 95.4797L159.103 96.3841H159.104Z" fill="black"/>
<mask id="mask0" mask-type="alpha" maskUnits="userSpaceOnUse" x="21" y="78" width="19" height="23">
<path d="M22.6454 78L24.2919 81.5081H21L22.6454 78ZM21 82.0624H24.2919V97.7585H21V82.0624ZM21 98.3128H24.2919V100.221H21V98.3128ZM26.857 81.499L29.1369 79.2211L39.6166 89.709L29.0841 100.494L26.8083 98.3321L35.0812 89.7242L26.857 81.5V81.499Z" fill="white"/>
</mask>
<g mask="url(#mask0)">
<path d="M22.6454 78L24.2919 81.5081H21L22.6454 78ZM21 82.0624H24.2919V97.7585H21V82.0624ZM21 98.3128H24.2919V100.221H21V98.3128ZM26.857 81.499L29.1369 79.2211L39.6166 89.709L29.0841 100.494L26.8083 98.3321L35.0812 89.7242L26.857 81.5V81.499Z" fill="white"/>
<path fill-rule="evenodd" clip-rule="evenodd" d="M21 78H39.648V100.495H21V78Z" fill="url(#paint0_linear)"/>
</g>
<defs>
<linearGradient id="paint0_linear" x1="23.9162" y1="100.495" x2="40.1891" y2="80.8661" gradientUnits="userSpaceOnUse">
<stop stop-color="#EC407A"/>
<stop offset="1" stop-color="#FFA000"/>
</linearGradient>
</defs>
</svg>
