<svg height="180" width="180" xmlns="http://www.w3.org/2000/svg"><path d="m-1-1h182v182h-182z" fill="#fff"/><g transform="matrix(.227632 0 0 .223684 -38.0173 -39.9997)"><path d="m-322.08254 109.53487h134.336v134.336h-134.336z" fill="#84d2cf" transform="matrix(-.7071 -.7071 .7071 -.7071 352.199 525.863)"/><path d="m-417.08154 14.53687h134.337v134.337h-134.337z" fill="#52b2ae" transform="matrix(-.7071 -.7071 .7071 -.7071 257.202 296.517)"/><path d="m562.39886475 391.17457401-.00097657 189.98098755-94.99035644-94.99102783z" fill="#329793"/><path d="m-417.10454 204.55687h134.336v134.336h-134.336z" fill="#329793" transform="matrix(-.7071 -.7071 .7071 -.7071 122.797 620.884)"/><path d="m562.37585449 581.19456302-.00097656 189.97998047-94.99029541-94.98999023z" fill="#198b87"/><path d="m-512.10254 109.55787h134.337v134.337h-134.337z" fill="#0d6e6b" transform="matrix(-.7071 -.7071 .7071 -.7071 27.801 391.539)"/><path d="m503.00673 656.39556c-10.931-10.93-22.804-40.523-11.874-51.453 10.93-10.929 40.522.944 51.452 11.874 10.93 10.929 10.931 28.649.001 39.579-10.93 10.929-28.65 10.929-39.579 0z" fill="#0d6e6b"/><path d="m637.60873 640.55456c-10.931 10.93-40.524 22.803-51.454 11.874-10.929-10.929.945-40.522 11.875-51.452 10.929-10.929 28.649-10.93 39.578-.001 10.929 10.93 10.929 28.65.001 39.579z" fill="#329793"/><path d="m621.77573 505.96256c10.931 10.93 22.804 40.523 11.874 51.453-10.93 10.929-40.522-.944-51.452-11.874s-10.93-28.65-.001-39.579c10.929-10.93 28.65-10.93 39.579 0z" fill="#84d2cf"/><path d="m487.19873 521.78656c10.93-10.93 40.522-22.804 51.452-11.875 10.931 10.931-.943 40.524-11.873 51.454-10.93 10.929-28.65 10.929-39.58-.001s-10.928-28.649.001-39.578z" fill="#329793"/></g></svg>