<svg width="180" height="180" viewBox="0 0 180 180" fill="none" xmlns="http://www.w3.org/2000/svg">
<rect width="180" height="180" fill="white"/>
<path d="M70.5311 93.9308L70.5067 93.6035H70.1807H68.1568H67.7907L67.8057 93.9717C67.9727 98.0737 70.72 100.791 75.6058 100.791C80.2658 100.791 83.4344 98.3536 83.4344 94.6646C83.4344 92.6699 82.7469 91.2583 81.4369 90.2942C80.4292 89.5527 79.2243 89.1347 77.2263 88.6986C77.0928 88.6695 76.9537 88.6396 76.7869 88.6043C76.6879 88.5833 76.3327 88.5085 76.3515 88.5125C72.7231 87.7467 71.5721 87.0815 71.5721 85.1005C71.5721 83.052 73.2363 81.7474 76.0275 81.7474C78.7431 81.7474 80.4593 83.417 80.5393 86.0451L80.5497 86.388H80.8905H82.8863H83.2458L83.2375 86.0261C83.1436 81.9295 80.4131 79.1725 75.9994 79.1725C71.6736 79.1725 68.8173 81.7927 68.8173 85.1854C68.8173 87.1745 69.5041 88.5597 70.8162 89.4851C71.8157 90.1902 72.9736 90.564 75.0163 90.9791C75.1119 90.9985 75.2117 91.0186 75.3306 91.0423C75.4041 91.057 75.4872 91.0736 75.6431 91.1046C77.5758 91.4895 78.4285 91.7271 79.2065 92.1825C80.1722 92.7478 80.6515 93.5553 80.6515 94.8061C80.6515 96.9777 78.8377 98.2157 75.6621 98.2157C72.622 98.2157 70.7353 96.681 70.5311 93.9308ZM89.1266 78.8188V78.4651H88.7752H86.7795H86.4281V78.8188V100.041V100.395H86.7795H88.7752H89.1266V100.041V96.2569L91.9672 93.4721L97.0399 100.254L97.1453 100.395H97.3206H99.7943H100.502L100.074 99.8269L93.879 91.6128L99.5924 85.8888L100.196 85.2844H99.3445H96.6741H96.5278L96.4247 85.3889L89.1266 92.7877V78.8188ZM114.341 93.7733H114.671L114.692 93.4416C114.695 93.3833 114.701 93.2869 114.706 93.1707C114.71 93.0788 114.714 92.9892 114.716 92.9044C114.719 92.8126 114.721 92.7291 114.721 92.6556C114.721 88.216 111.799 84.9449 107.482 84.9449C103.173 84.9449 100.103 88.4269 100.103 92.8253C100.103 97.3514 103.034 100.734 107.51 100.734C110.895 100.734 113.51 98.7126 114.452 95.6463L114.593 95.1881H114.116H112.036H111.788L111.705 95.4235C111.113 97.1018 109.512 98.2157 107.538 98.2157C104.959 98.2157 103.161 96.4325 102.837 93.7733H114.341ZM102.919 91.4247C103.374 89.0436 105.114 87.4632 107.482 87.4632C109.924 87.4632 111.608 88.9918 111.977 91.4247H102.919ZM123.575 87.6896H123.926V87.3359V85.6381V85.2844H123.575H120.638V81.5352V81.1815H120.286H118.29H117.939V81.5352V85.2844H115.564H115.212V85.6381V87.3359V87.6896H115.564H117.939V96.1643C117.939 98.9443 119.372 100.451 122.001 100.451C122.46 100.451 122.855 100.423 123.188 100.377C123.393 100.348 123.535 100.319 123.613 100.297L123.87 100.225V99.9559V98.145V97.7061L123.444 97.7994C123.427 97.8031 123.393 97.8102 123.343 97.8195C123.26 97.8352 123.167 97.851 123.067 97.8658C122.812 97.9036 122.558 97.9279 122.325 97.9321C122.301 97.9325 122.277 97.9328 122.254 97.9328C121.102 97.9328 120.638 97.3882 120.638 96.0228V87.6896H123.575ZM131.966 100.734C135.701 100.734 138.338 98.3548 139.001 94.9879L139.084 94.5655H138.656H136.632H136.362L136.292 94.8284C135.725 96.977 134.185 98.2157 131.966 98.2157C129.196 98.2157 127.286 96.0165 127.286 92.8536C127.286 89.6663 129.193 87.4632 131.966 87.4632C134.185 87.4632 135.725 88.702 136.292 90.8506L136.362 91.1134H136.632H138.656H139.084L139.001 90.691C138.338 87.3242 135.701 84.9449 131.966 84.9449C127.627 84.9449 124.559 88.4515 124.559 92.8536C124.559 97.2315 127.631 100.734 131.966 100.734ZM144.053 78.8188V78.4651H143.702H141.706H141.354V78.8188V100.041V100.395H141.706H143.702H144.053V100.041V91.5237C144.053 88.9287 145.622 87.4066 148.002 87.4066C150.276 87.4066 151.418 88.7315 151.418 91.2408V100.041V100.395H151.769H153.765H154.116V100.041V90.8446C154.116 87.3001 151.936 84.9449 148.34 84.9449C146.49 84.9449 145.002 85.6272 144.053 86.6065V78.8188Z" fill="black"/>
<mask id="mask0" mask-type="alpha" maskUnits="userSpaceOnUse" x="25" y="74" width="36" height="32">
<path d="M32.7779 75.0536L42.8245 74L52.871 75.0536L60.6489 85.4107L42.8245 106L25 85.4107L32.7779 75.0536Z" fill="white"/>
</mask>
<g mask="url(#mask0)">
<path d="M32.7779 75.0536L42.8245 74L52.871 75.0536L60.6489 85.4107L42.8245 106L25 85.4107L32.7779 75.0536Z" fill="#FDB300"/>
<path fill-rule="evenodd" clip-rule="evenodd" d="M32.2198 85.4106L42.8245 106L25 85.4106H32.2198Z" fill="#EA6C00"/>
<path fill-rule="evenodd" clip-rule="evenodd" d="M53.4291 85.4106L42.8245 106L60.6489 85.4106H53.4291Z" fill="#EA6C00"/>
<path fill-rule="evenodd" clip-rule="evenodd" d="M32.2198 85.4106H53.4291L42.8245 106L32.2198 85.4106Z" fill="#FDAD00"/>
<path fill-rule="evenodd" clip-rule="evenodd" d="M42.8245 74L32.7779 75.0536L32.2198 85.4107L42.8245 74Z" fill="#FDD231"/>
<path fill-rule="evenodd" clip-rule="evenodd" d="M42.8245 74L52.871 75.0536L53.4291 85.4107L42.8245 74Z" fill="#FDD231"/>
<path fill-rule="evenodd" clip-rule="evenodd" d="M60.6489 85.4109L52.871 75.0537L53.4291 85.4109H60.6489Z" fill="#FDAD00"/>
<path fill-rule="evenodd" clip-rule="evenodd" d="M25 85.4109L32.7779 75.0537L32.2198 85.4109H25Z" fill="#FDAD00"/>
<path fill-rule="evenodd" clip-rule="evenodd" d="M42.8245 74L32.2198 85.4107H53.4291L42.8245 74Z" fill="#FEEEB7"/>
</g>
</svg>
