<svg width="180" height="180" viewBox="0 0 180 180" fill="none" xmlns="http://www.w3.org/2000/svg">
<rect width="180" height="180" fill="white"/>
<path d="M71.6474 92.1432C73.1347 87.9916 73.7347 86.3126 74.2853 84.6084C75.0768 87.08 75.8926 89.3842 76.8526 92.1432H71.6474ZM72.6789 81.5621L66.2495 98.5H69.5358L70.9042 94.5411H77.6L78.9442 98.5H82.2537L76.061 81.5621H72.6789ZM88.98 96.3895C87.2042 96.3895 86.1716 94.9263 86.1716 92.3821C86.1716 90.1042 87.3726 88.6642 89.0747 88.6642C90.6821 88.6642 91.6663 90.1274 91.6663 92.5263C91.6663 95.0705 90.6347 96.3895 88.98 96.3895V96.3895ZM86.2495 88.16V81.5632H83.4368V98.5011H86.1263V96.9411C86.9431 98.1168 88.0452 98.7411 89.6768 98.7411C92.6242 98.7411 94.5958 96.4368 94.5958 92.5305C94.5958 88.6442 92.7968 86.32 89.9884 86.32C89.264 86.3118 88.548 86.4748 87.8986 86.7959C87.2492 87.1169 86.6849 87.5868 86.2516 88.1674L86.2495 88.16ZM100.494 88.3568C101.652 88.3568 102.559 88.9811 103.159 90.0411L105.249 88.6232C104.197 86.9389 102.44 86.2211 100.542 86.2211C97.5863 86.2211 95.9105 87.9505 95.9105 89.8242C95.9105 91.6495 97.0874 92.7305 98.9368 93.3074L100.209 93.7158C102.012 94.2926 102.42 94.6284 102.42 95.4211C102.42 96.1421 101.747 96.6705 100.525 96.6705C99.2031 96.6705 98.0989 95.9495 97.4726 94.7242L95.2842 96.1632C96.2926 97.6768 97.9505 98.8537 100.401 98.8537C103.38 98.8537 105.228 97.2442 105.228 95.0347C105.228 93.1126 104.027 92.1284 101.915 91.4558L100.641 91.0726C99.1031 90.5916 98.7189 90.2558 98.7189 89.5347C98.7189 88.8379 99.2958 88.3579 100.497 88.3579L100.494 88.3568ZM110.937 88.8126H113.253V86.5621H110.937V82.6568H108.142L108.094 86.5621H106.219V88.8126H108.094V95.3579C108.094 96.4653 108.262 97.3063 108.767 97.8842C109.248 98.4621 110.042 98.7505 111.22 98.7505C111.926 98.7498 112.629 98.6607 113.313 98.4853V96.2474C112.942 96.3857 112.55 96.4594 112.155 96.4653C111.289 96.4653 110.934 96.0316 110.934 94.8053L110.937 88.8126ZM117.532 86.5621H114.843V98.5621H117.656V92.9684C117.656 91.6884 117.866 90.8442 118.281 90.2189C118.807 89.4695 119.544 89.0179 120.843 89.0316C121.193 89.0357 121.54 89.0881 121.875 89.1874V86.5621C121.541 86.4562 121.193 86.4036 120.843 86.4063C119.187 86.4063 118.251 87.1053 117.532 88.4063V86.5621ZM129.977 93.4737C129.953 94.1474 129.833 94.82 129.451 95.3684C128.924 96.1621 128.033 96.6189 126.951 96.6189C125.701 96.6189 125.124 95.9695 125.124 95.1042C125.124 94.4316 125.413 93.9737 126.158 93.6379C127 93.2295 128.609 92.9895 129.98 92.9168L129.977 93.4737ZM132.656 90.9474C132.656 89.0716 132.404 88.0863 131.659 87.3884C130.865 86.62 129.713 86.2305 128.08 86.2305C125.027 86.2305 123.1 87.6737 122.908 90.2695L125.6 90.5263C125.744 89.2032 126.394 88.4589 127.86 88.4589C128.604 88.4589 129.181 88.6263 129.518 88.9632C129.834 89.2789 129.975 89.7316 129.975 90.4053V91.0526C128.08 91.1726 125.764 91.5095 124.591 92.0379C123.173 92.6863 122.404 93.6958 122.404 95.2347C122.404 97.3737 123.942 98.7453 126.128 98.7453C127.835 98.7453 129.132 98.1442 130.045 97.0389C130.305 98.2347 131.147 98.6768 132.652 98.6768C133.087 98.6857 133.521 98.6206 133.935 98.4842V96.6568C132.851 96.8516 132.661 96.2168 132.654 95.28L132.656 90.9474ZM137.413 92.4589C137.413 89.7947 138.662 88.5705 140.295 88.5705C141.424 88.5705 142.288 89.0968 142.624 90.6832L145.15 89.8189C144.598 87.6832 142.965 86.2189 140.37 86.2189C136.792 86.2189 134.535 88.5947 134.535 92.5074C134.535 96.4432 136.745 98.8442 140.226 98.8442C142.941 98.8442 144.526 97.4032 145.222 95.4116L142.701 94.5474C142.413 95.8189 141.648 96.4916 140.37 96.4916C138.522 96.4916 137.417 95.1 137.417 92.4589H137.413ZM150.562 88.8126H152.878V86.5621H150.562V82.6568H147.767L147.718 86.5621H145.843V88.8126H147.718V95.3579C147.718 96.4653 147.887 97.3063 148.393 97.8842C148.873 98.4621 149.667 98.7505 150.845 98.7505C151.551 98.7499 152.253 98.6608 152.937 98.4853V96.2474C152.566 96.3859 152.175 96.4596 151.779 96.4653C150.913 96.4653 150.558 96.0316 150.558 94.8053L150.562 88.8126ZM43 106C55.8 106 59 102.8 59 90C59 77.2 55.8 74 43 74C30.2 74 27 77.2 27 90C27 102.8 30.2 106 43 106Z" fill="#191A1B"/>
<path d="M51.5 98.5H48.5V84.5H34.5V81.5H51.5V98.5Z" fill="white"/>
<path d="M40.3747 98.7496C39.1632 98.7496 37.9789 98.3903 36.9716 97.7172C35.9643 97.0441 35.1792 96.0874 34.7156 94.9681C34.2521 93.8488 34.1308 92.6171 34.3673 91.4289C34.6037 90.2407 35.1872 89.1493 36.0439 88.2927C36.9006 87.4361 37.9922 86.8528 39.1804 86.6166C40.3687 86.3804 41.6003 86.5018 42.7195 86.9656C43.8387 87.4294 44.7953 88.2146 45.4682 89.222C46.1412 90.2295 46.5002 91.4138 46.5 92.6253C46.4981 94.2492 45.8521 95.8059 44.7037 96.954C43.5554 98.1022 41.9986 98.7479 40.3747 98.7496V98.7496ZM40.3747 89.5001C39.7566 89.5001 39.1524 89.6834 38.6384 90.0268C38.1245 90.3702 37.7239 90.8583 37.4874 91.4294C37.2508 92.0004 37.1889 92.6288 37.3095 93.2351C37.4301 93.8413 37.7278 94.3982 38.1649 94.8352C38.6019 95.2723 39.1588 95.57 39.765 95.6906C40.3713 95.8111 40.9997 95.7493 41.5707 95.5127C42.1418 95.2762 42.6299 94.8756 42.9733 94.3616C43.3167 93.8477 43.5 93.2435 43.5 92.6253C43.4989 91.7968 43.1693 91.0025 42.5834 90.4167C41.9976 89.8308 41.2033 89.5012 40.3747 89.5001" fill="white"/>
</svg>
