<svg width="180" height="180" viewBox="0 0 180 180" fill="none" xmlns="http://www.w3.org/2000/svg">
<rect width="180" height="180" fill="white"/>
<path fill-rule="evenodd" clip-rule="evenodd" d="M29 96.4774H33.279V78H29V96.4774ZM48.6958 88.3734V96.4767H44.5795V89.046C44.5795 87.8928 43.7368 87.0277 42.5374 87.0277C41.338 87.0277 40.3652 87.8928 40.3652 89.046V96.4767H36.2156V83.6649H40.3652V85.234C41.2726 84.1135 42.5694 83.409 44.0608 83.409C46.6217 83.409 48.6965 85.5546 48.6965 88.3734H48.6958ZM56.3471 86.8357V91.4162C56.3471 92.4727 56.9631 93.1452 57.8378 93.1452H59.394V96.316C59.0699 96.5407 58.1945 96.7326 57.3198 96.7326C54.5643 96.7326 52.2301 94.619 52.2301 91.8968V86.8357H50.0586V83.6649H52.2301V78.6821H56.3471V83.6649H59.4266V86.8357H56.3471V86.8357ZM65.3918 88.2774H70.7728C70.3515 87.1563 69.5407 86.5158 68.1473 86.5158C66.6885 86.5158 65.8138 87.1876 65.3918 88.2774ZM75.0525 90.7437H65.1324C65.2944 92.5687 66.2672 93.6898 68.1473 93.6898C69.5741 93.6898 70.5141 93.0819 70.8702 92.0561H74.8578C74.2091 94.843 71.8102 96.7326 68.212 96.7326C63.869 96.7326 60.9508 94.0744 60.9508 90.0705C60.9508 86.0678 63.901 83.377 68.0826 83.377C72.2643 83.377 75.0525 86.0352 75.0525 90.0385V90.7437V90.7437ZM86.1393 83.5369V87.1563C85.7452 87.0709 85.3431 87.0277 84.9399 87.0277C82.8977 87.0277 81.439 88.2448 81.439 90.3591V96.4767H77.29V83.6656H81.439V85.4266C82.2817 84.1768 83.5458 83.409 85.0692 83.409C85.4586 83.409 85.8479 83.4403 86.1393 83.5369Z" fill="black"/>
<mask id="mask0" mask-type="alpha" maskUnits="userSpaceOnUse" x="87" y="83" width="16" height="19">
<path d="M87.8574 83.4089H102.089V102H87.8574V83.4089Z" fill="white"/>
</mask>
<g mask="url(#mask0)">
<path fill-rule="evenodd" clip-rule="evenodd" d="M97.9708 90.0711C97.9708 88.3734 96.6094 87.0283 94.8919 87.0283C93.1738 87.0283 91.8124 88.3734 91.8124 90.0711C91.8124 91.7681 93.1738 93.1139 94.8919 93.1139C96.6101 93.1139 97.9715 91.7681 97.9715 90.0711H97.9708ZM102.088 90.0711C102.088 93.7864 99.2683 96.7333 95.702 96.7333C94.2112 96.7333 92.9791 96.2207 92.0071 95.3555V102L87.8574 101.968V83.6649L92.0077 83.6969V84.786C92.9798 83.9215 94.2112 83.4089 95.702 83.4089C99.2683 83.4089 102.088 86.3558 102.088 90.0711Z" fill="black"/>
</g>
<path fill-rule="evenodd" clip-rule="evenodd" d="M104.359 96.4774H108.508V78H104.359V96.4774ZM121.086 90.0705C121.086 88.3734 119.692 87.0277 118.006 87.0277C116.288 87.0277 114.927 88.3734 114.927 90.0705C114.927 91.7682 116.288 93.1133 118.006 93.1133C119.692 93.1133 121.086 91.7682 121.086 90.0705ZM126.726 93.1459V96.4767C126.434 96.6046 126.046 96.7333 125.624 96.7333C123.873 96.7333 122.447 95.8681 121.637 94.555C120.6 95.9001 119.076 96.7333 117.196 96.7333C113.597 96.7333 110.777 93.7858 110.777 90.0705C110.777 86.3551 113.597 83.409 117.196 83.409C118.687 83.409 119.919 83.9215 120.891 84.7861V83.6649H125.008V91.8961C125.008 92.9526 125.592 93.1452 126.143 93.1452H126.726V93.1459ZM142.06 83.6649L134.556 101.999H130.212L132.465 96.7646L127.051 83.6649H131.363L134.604 92.1528L137.781 83.6649H142.06Z" fill="black"/>
<path fill-rule="evenodd" clip-rule="evenodd" d="M151.172 92.7455C151.172 94.806 149.481 96.4758 147.396 96.4758C145.311 96.4758 143.62 94.806 143.62 92.7455C143.62 90.6856 145.311 89.0151 147.396 89.0151C149.481 89.0151 151.172 90.6856 151.172 92.7455Z" fill="#3BE2CA"/>
</svg>
