<svg width="180" height="180" viewBox="0 0 180 180" fill="none" xmlns="http://www.w3.org/2000/svg">
<rect width="180" height="180" fill="white"/>
<path d="M35 72H59V84H47L35 72ZM35 84H47L59 96H35V84ZM35 96H47V108L35 96Z" fill="black"/>
<path d="M72.5416 81.4668H82.2429V84.5496H76.2135V88.8336H82.2429V91.8483H76.2135V97.3336H72.5416V81.4668ZM84.2375 86.408H87.7056V88.6974C87.8868 87.9107 88.2574 87.3068 88.8163 86.884C89.3895 86.4453 90.0258 86.2268 90.7203 86.2268C91.0832 86.2268 91.3858 86.2576 91.6268 86.3174V89.5363C91.2809 89.4946 90.9328 89.4721 90.5842 89.4683C89.6322 89.4683 88.9151 89.7774 88.4309 90.3972C87.9483 91.0017 87.7056 91.9081 87.7056 93.1176V97.3336H84.2391V86.408H84.2375ZM97.1016 97.6284C96.0442 97.6284 95.1219 97.3786 94.3362 96.8801C93.5654 96.3816 92.9527 95.6739 92.5683 94.8399C92.1604 93.9642 91.9551 92.9732 91.9551 91.8708C91.9551 90.7826 92.1681 89.7999 92.5909 88.9242C92.9873 88.0781 93.6164 87.3628 94.4043 86.8615C95.2042 86.363 96.1189 86.1132 97.1472 86.1132C97.9175 86.1132 98.606 86.2801 99.2099 86.6122C99.8138 86.9455 100.267 87.399 100.57 87.9722V86.408H104.015V97.3336H100.57V95.7919C100.267 96.336 99.799 96.7812 99.1643 97.1293C98.5296 97.4659 97.8203 97.6372 97.1016 97.6284ZM98.0992 94.7493C98.9299 94.7493 99.5722 94.4775 100.026 93.9335C100.479 93.3894 100.706 92.7015 100.706 91.8708C100.706 91.0549 100.479 90.3747 100.026 89.8306C99.5722 89.2865 98.9299 89.0148 98.0992 89.0148C97.3125 89.0148 96.6789 89.2788 96.1952 89.8081C95.7269 90.3374 95.4924 91.0242 95.4924 91.8708C95.4924 92.7174 95.7269 93.4119 96.1952 93.956C96.6789 94.4852 97.3136 94.7493 98.0992 94.7493ZM106.441 86.408H109.909V87.9947C110.151 87.4347 110.543 86.9812 111.087 86.6348C111.647 86.2883 112.296 86.1132 113.036 86.1132C114.759 86.1132 115.901 86.7852 116.459 88.1308C116.767 87.5209 117.247 87.0163 117.842 86.6803C118.478 86.2977 119.208 86.1016 119.95 86.1132C122.534 86.1132 123.826 87.5933 123.826 90.5559V97.3336H120.335V91.1905C120.335 90.451 120.199 89.9069 119.927 89.5588C119.655 89.2119 119.247 89.0373 118.703 89.0373C118.114 89.0373 117.66 89.2415 117.343 89.6494C117.026 90.0425 116.867 90.7294 116.867 91.7121V97.3336H113.376V91.168C113.376 90.428 113.241 89.891 112.968 89.5588C112.713 89.2119 112.311 89.0373 111.768 89.0373C111.163 89.0373 110.702 89.2415 110.385 89.6494C110.067 90.0425 109.909 90.7294 109.909 91.7121V97.3336H106.442V86.408H106.441ZM136.854 91.3042C136.854 91.772 136.823 92.2787 136.762 92.8228H128.694C128.725 93.5332 128.966 94.0762 129.419 94.455C129.873 94.8322 130.486 95.0216 131.255 95.0216C132.329 95.0216 133.009 94.6961 133.295 94.0466H136.696C136.529 95.1199 135.94 95.9879 134.927 96.6533C133.93 97.3028 132.706 97.6284 131.255 97.6284C129.382 97.6284 127.908 97.1216 126.835 96.1092C125.778 95.0963 125.248 93.6842 125.248 91.8708C125.248 90.692 125.49 89.6719 125.974 88.8105C126.441 87.9502 127.161 87.254 128.036 86.8159C128.929 86.3482 129.963 86.1132 131.143 86.1132C132.261 86.1132 133.25 86.3322 134.111 86.7709C134.988 87.2096 135.661 87.8212 136.128 88.6068C136.613 89.3936 136.854 90.2923 136.854 91.3042ZM133.43 90.6695C133.415 89.9443 133.211 89.3919 132.818 89.0148C132.426 88.6376 131.858 88.4482 131.118 88.4482C130.378 88.4482 129.789 88.6519 129.35 89.0603C128.927 89.4534 128.708 89.9893 128.692 90.6695H133.43ZM138.383 86.408H141.851V88.6974C142.033 87.9107 142.403 87.3068 142.962 86.884C143.505 86.4569 144.175 86.2252 144.866 86.2268C145.228 86.2268 145.532 86.2576 145.773 86.3174V89.5363C145.427 89.4946 145.079 89.4721 144.73 89.4683C143.778 89.4683 143.061 89.7774 142.577 90.3972C142.092 91.0017 141.851 91.9081 141.851 93.1176V97.3336H138.383V86.408Z" fill="black"/>
</svg>
