<svg width="180" height="180" viewBox="0 0 180 180" fill="none" xmlns="http://www.w3.org/2000/svg">
<rect width="180" height="180" fill="white"/>
<path d="M49.0511 77.9676H68.7554C68.7389 76.3942 67.5422 75.2698 66.0677 75.2698H46.3633C47.8379 75.2698 49.0346 76.3942 49.0511 77.9676Z" fill="#E2D9C5"/>
<path d="M63.3692 77.934C63.3692 76.4626 64.5728 75.2698 66.0576 75.2698H46.3539C44.8691 75.2698 43.6655 76.4626 43.6655 77.934V99.8201H60.6808C62.1656 99.8201 63.3692 98.6273 63.3692 97.1559V77.934Z" fill="#F2EBDA"/>
<path d="M62.9354 75.2708C61.4464 75.2708 60.2394 76.4717 60.2394 77.9532V97.3069C60.2394 98.7884 59.0324 99.9893 57.5434 99.9893H60.817C62.306 99.9893 63.513 98.7884 63.513 97.3069V77.9532C63.513 76.4717 64.72 75.2708 66.209 75.2708H62.9354Z" fill="#E2D9C5"/>
<path d="M58.0616 97.1472H38.302C38.3186 98.8048 39.5186 99.9894 40.9973 99.9894H60.7568C59.2781 99.9893 58.0781 98.8048 58.0616 97.1472Z" fill="#E2D9C5"/>
<path d="M56.6152 92.2663C57.161 90.5781 57.6518 88.854 58.8114 87.5371C61.3442 84.6607 66.4216 83.8156 70.1044 83.9099C68.9521 84.8565 67.9476 85.8139 66.7835 87.0671C65.4784 88.4721 62.6308 90.3418 61.2604 90.7611C59.1261 91.4141 58.1386 91.5233 56.6152 92.2663Z" fill="#DDA064"/>
<path d="M56.6152 92.2663C57.161 90.5769 66.4216 83.8095 70.1044 83.9039C68.9521 84.8512 67.9476 85.8092 66.7835 87.0634C65.4784 88.4694 62.6308 90.3404 61.2604 90.76C59.1261 91.4135 58.1386 91.5227 56.6152 92.2663Z" fill="#B57947"/>
<path fill-rule="evenodd" clip-rule="evenodd" d="M77.6043 105C72.9101 105 69.3894 101.237 69.3894 95.8948C69.3894 90.7554 73.1124 86.6277 77.8876 86.6277C80.1538 86.6277 81.813 87.4775 82.8247 88.3273V78.777H80.1538V75.054H87.2356V101.034H89.866V104.676H82.8247V102.734C81.5297 103.988 79.8705 105 77.6043 105ZM78.616 101.196C80.2752 101.196 81.6106 100.468 82.8247 99.4155V91.8076C81.6511 90.9982 80.2752 90.4317 78.616 90.4317C76.1475 90.4317 73.9218 92.3336 73.9218 95.8543C73.9218 99.2536 76.0261 101.196 78.616 101.196ZM98.8229 105C92.9551 105 89.3939 100.751 89.3939 95.8138C89.3939 90.9577 93.036 86.6277 98.8229 86.6277C104.691 86.6277 108.252 90.8768 108.252 95.8138C108.252 100.67 104.61 105 98.8229 105ZM98.8229 101.317C101.696 101.317 103.719 99.0513 103.719 95.8138C103.719 92.5764 101.696 90.3103 98.8229 90.3103C95.9497 90.3103 93.9263 92.5764 93.9263 95.8138C93.9263 99.0513 95.9497 101.317 98.8229 101.317ZM118.099 105C112.514 105 108.306 101.358 108.306 95.652C108.306 91.0387 112.029 86.6277 117.29 86.6277C122.146 86.6277 125.343 89.7842 125.343 92.5764C125.343 94.4379 124.088 95.571 122.51 95.571C121.053 95.571 119.839 94.357 119.839 92.9002C119.839 92.3741 120.082 91.7671 120.406 91.4029C120.082 90.9577 118.989 90.1888 117.249 90.1888C115.226 90.1888 112.717 91.848 112.717 95.7329C112.717 99.1322 115.307 101.277 118.463 101.277C120.608 101.277 122.469 100.67 124.776 99.4155L124.412 103.381C122.51 104.474 120.689 105 118.099 105ZM125.316 104.676V102.086L135.999 90.4317H129.727V93.7095H125.963V86.9514H141.503V89.5009L130.819 101.156H137.982V97.8777H141.705V104.676H125.316Z" fill="#1F2D3D"/>
<path d="M61.4712 79.991C61.4712 79.7674 61.2586 79.5863 60.9963 79.5863H50.8851C50.6227 79.5863 50.4101 79.7675 50.4101 79.991C50.4101 80.2145 50.6227 80.3957 50.8851 80.3957H60.9962C61.2585 80.3957 61.4712 80.2145 61.4712 79.991Z" fill="#1F2D3D"/>
<path d="M46.5957 80.3957H48.2891C48.5665 80.3957 48.7913 80.2145 48.7913 79.991C48.7913 79.7675 48.5665 79.5863 48.2891 79.5863H46.5957C46.3183 79.5863 46.0935 79.7675 46.0935 79.991C46.0935 80.2145 46.3183 80.3957 46.5957 80.3957Z" fill="#1F2D3D"/>
<path d="M46.5699 94.1547C46.3068 94.1547 46.0935 94.3358 46.0935 94.5593C46.0935 94.7829 46.3068 94.964 46.5699 94.964H51.5524C51.8155 94.964 52.0288 94.7828 52.0288 94.5593C52.0288 94.3358 51.8155 94.1547 51.5524 94.1547H46.5699Z" fill="#1F2D3D"/>
<path d="M54.187 90.2428C54.187 90.0193 53.9695 89.8381 53.7011 89.8381H46.5794C46.311 89.8381 46.0935 90.0193 46.0935 90.2428C46.0935 90.4664 46.311 90.6475 46.5794 90.6475H53.7011C53.9694 90.6475 54.187 90.4663 54.187 90.2428Z" fill="#1F2D3D"/>
<path d="M57.6942 85.3866C57.6942 85.1631 57.4759 84.9819 57.2066 84.9819H46.5811C46.3118 84.9819 46.0935 85.1631 46.0935 85.3866C46.0935 85.6101 46.3118 85.7913 46.5811 85.7913H57.2066C57.4759 85.7913 57.6942 85.6102 57.6942 85.3866Z" fill="#1F2D3D"/>
<path d="M63.4706 91.4169C63.2088 91.4169 62.9966 91.6318 62.9966 91.8969V97.7129C62.9966 98.9406 62.0101 99.9394 60.7976 99.9394H60.7379C59.4981 99.9394 58.553 98.9108 58.5396 97.547C58.537 97.2838 58.3255 97.0718 58.0656 97.0718H44.3532V78.1864C44.3532 76.9587 45.3397 75.9599 46.5522 75.9599H63.8943C63.8804 75.9743 63.8673 75.9894 63.8536 76.0041C63.8371 76.022 63.8203 76.0396 63.8042 76.0578C63.7871 76.077 63.7706 76.0968 63.754 76.1165C63.738 76.1353 63.7219 76.154 63.7063 76.1733C63.6902 76.1932 63.6748 76.2137 63.6592 76.234C63.644 76.2537 63.6287 76.2732 63.614 76.2933C63.599 76.3139 63.5846 76.3349 63.57 76.3559C63.5556 76.3765 63.5411 76.397 63.5272 76.4179C63.5132 76.439 63.4999 76.4607 63.4865 76.4822C63.473 76.5036 63.4594 76.5249 63.4464 76.5466C63.4334 76.5685 63.4212 76.5908 63.4087 76.613C63.3963 76.6351 63.3835 76.657 63.3716 76.6794C63.3596 76.7019 63.3485 76.7248 63.337 76.7477C63.3256 76.7704 63.3138 76.793 63.303 76.816C63.292 76.8392 63.282 76.8628 63.2716 76.8862C63.2612 76.9095 63.2505 76.9327 63.2408 76.9563C63.2308 76.9801 63.2219 77.0044 63.2125 77.0286C63.2033 77.0523 63.1938 77.0759 63.1851 77.1C63.1762 77.1247 63.1683 77.1498 63.16 77.1748C63.1521 77.1989 63.1437 77.2227 63.1362 77.247C63.1284 77.2725 63.1216 77.2986 63.1144 77.3245C63.1077 77.3486 63.1005 77.3726 63.0943 77.397C63.0876 77.4239 63.0819 77.4512 63.0758 77.4783C63.0704 77.5021 63.0645 77.5258 63.0597 77.5499C63.054 77.5781 63.0495 77.6066 63.0446 77.6351C63.0405 77.6586 63.0359 77.6819 63.0323 77.7056C63.0278 77.7359 63.0245 77.7667 63.0208 77.7973C63.0181 77.8195 63.0148 77.8413 63.0125 77.8636C63.0091 77.8979 63.0071 77.9325 63.0047 77.9671C63.0035 77.9861 63.0014 78.005 63.0005 78.024C62.9978 78.0778 62.9964 78.132 62.9964 78.1865V78.3476V82.4464C62.9964 82.7116 63.2087 82.9264 63.4705 82.9264C63.7323 82.9264 63.9445 82.7115 63.9445 82.4464V78.8275H68.821C68.9475 78.8275 69.0688 78.7763 69.1578 78.6853C69.2469 78.5942 69.2963 78.4709 69.2949 78.3428C69.2762 76.4371 67.9236 75 66.1435 75H46.552C44.8167 75 43.4049 76.4295 43.4049 78.1865V97.0718H38.474C38.3475 97.0718 38.2262 97.123 38.1372 97.214C38.0481 97.3051 37.9987 97.4283 38 97.5564C38.0187 99.4622 39.3714 100.899 41.1464 100.899H60.7379H60.7976C62.5329 100.899 63.9447 99.4698 63.9447 97.7128V91.8968C63.9447 91.6317 63.7324 91.4169 63.4706 91.4169ZM63.9688 77.8575C63.971 77.8429 63.9736 77.8283 63.9761 77.8138C63.9795 77.7934 63.983 77.7729 63.987 77.7526C63.99 77.7371 63.9934 77.7217 63.9968 77.7064C64.0009 77.6873 64.0052 77.6683 64.0098 77.6495C64.0137 77.6336 64.0179 77.6178 64.0221 77.6021C64.027 77.5841 64.0319 77.5661 64.0372 77.5484C64.0419 77.5322 64.0469 77.5163 64.052 77.5003C64.0575 77.4833 64.0632 77.4664 64.069 77.4496C64.0747 77.4332 64.0805 77.4169 64.0865 77.4008C64.0925 77.3849 64.0987 77.3692 64.105 77.3534C64.1117 77.3367 64.1183 77.3202 64.1254 77.3037C64.1316 77.2891 64.1383 77.2746 64.1448 77.2602C64.1526 77.2431 64.1603 77.2259 64.1684 77.2091C64.1745 77.1966 64.181 77.1843 64.1873 77.1719C64.1967 77.1535 64.2059 77.135 64.2158 77.1169C64.2195 77.1099 64.2237 77.1031 64.2276 77.0962C64.2713 77.0177 64.3194 76.942 64.372 76.8698C64.3725 76.8691 64.3729 76.8684 64.3734 76.8677C64.3903 76.8446 64.4078 76.8219 64.4256 76.7994C64.4284 76.7958 64.4311 76.7921 64.434 76.7885C64.4514 76.7668 64.4693 76.7455 64.4874 76.7245C64.4908 76.7206 64.4941 76.7166 64.4975 76.7127C64.516 76.6916 64.5349 76.6709 64.5541 76.6505C64.5573 76.6472 64.5604 76.6438 64.5636 76.6405C64.5836 76.6196 64.6039 76.5991 64.6246 76.579C64.6269 76.5768 64.6293 76.5746 64.6316 76.5723C64.6535 76.5513 64.6757 76.5307 64.6985 76.5106C64.6992 76.5099 64.7 76.5093 64.7008 76.5086C64.9911 76.2526 65.3483 76.072 65.7426 75.9977C65.7428 75.9977 65.7431 75.9977 65.7432 75.9976C65.7755 75.9915 65.8081 75.9861 65.8409 75.9815C65.8429 75.9813 65.8448 75.981 65.8468 75.9808C65.878 75.9764 65.9095 75.9727 65.9411 75.9697C65.9459 75.9693 65.9508 75.969 65.9557 75.9686C65.9847 75.9661 66.0137 75.9639 66.043 75.9625C66.0599 75.9617 66.077 75.9616 66.0941 75.9611C66.1124 75.9607 66.1306 75.9599 66.1491 75.9599C67.237 75.9599 68.098 76.7519 68.3017 77.8675H63.9679C63.9681 77.8642 63.9684 77.8608 63.9688 77.8575ZM41.1463 99.9394C40.0584 99.9394 39.1974 99.1473 38.9937 98.0317H43.8791H57.6246C57.6311 98.0814 57.6386 98.1306 57.647 98.1795C57.6498 98.1958 57.6532 98.2119 57.6563 98.2282C57.6623 98.2605 57.6683 98.2928 57.6751 98.3246C57.6791 98.3438 57.6837 98.3626 57.688 98.3815C57.6946 98.4102 57.7012 98.4389 57.7085 98.4673C57.7136 98.4871 57.719 98.5068 57.7244 98.5265C57.7318 98.5535 57.7393 98.5804 57.7472 98.6071C57.7532 98.6271 57.7594 98.647 57.7657 98.6668C57.7739 98.6928 57.7825 98.7186 57.7912 98.7443C57.798 98.7641 57.8049 98.7837 57.812 98.8033C57.8212 98.8288 57.8308 98.854 57.8406 98.879C57.848 98.8981 57.8554 98.9172 57.8631 98.936C57.8735 98.9614 57.8844 98.9865 57.8953 99.0115C57.9032 99.0295 57.9109 99.0476 57.9191 99.0653C57.9311 99.0916 57.9437 99.1174 57.9563 99.1432C57.9641 99.1591 57.9716 99.1753 57.9797 99.1911C57.9951 99.2214 58.0112 99.2511 58.0275 99.2808C58.0334 99.2916 58.039 99.3026 58.045 99.3133C58.0675 99.3534 58.0908 99.393 58.1149 99.4318C58.1205 99.4409 58.1265 99.4496 58.1322 99.4586C58.151 99.4884 58.17 99.5179 58.1896 99.5469C58.1987 99.5603 58.2082 99.5732 58.2174 99.5865C58.2343 99.6106 58.2513 99.6348 58.2688 99.6584C58.2794 99.6726 58.2902 99.6864 58.3009 99.7004C58.3178 99.7224 58.3349 99.7444 58.3523 99.7659C58.3638 99.7801 58.3755 99.794 58.3872 99.8079C58.4046 99.8288 58.4223 99.8494 58.4403 99.8697C58.4523 99.8834 58.4646 99.8969 58.4769 99.9103C58.4857 99.9199 58.4941 99.9299 58.503 99.9394H41.1463Z" fill="#1F2D3D"/>
<path d="M70.6435 83.8462C70.6434 83.8406 70.6433 83.8351 70.6431 83.8294C70.6411 83.7843 70.633 83.7409 70.6192 83.6998C70.6186 83.6977 70.6183 83.6956 70.6176 83.6936C70.6171 83.692 70.6161 83.6904 70.6155 83.6888C70.6079 83.6677 70.5991 83.6473 70.5888 83.6278C70.5876 83.6253 70.5861 83.6231 70.5848 83.6207C70.5753 83.6034 70.5647 83.5869 70.5532 83.571C70.5507 83.5676 70.5484 83.5641 70.5459 83.5607C70.5332 83.5441 70.5194 83.5284 70.5047 83.5136C70.5015 83.5103 70.498 83.5073 70.4948 83.5042C70.4809 83.4909 70.4662 83.4784 70.4507 83.4669C70.4487 83.4653 70.4467 83.4636 70.4446 83.4621C70.4272 83.4496 70.4088 83.4384 70.3898 83.4282C70.3861 83.4262 70.3825 83.4244 70.3787 83.4225C70.3593 83.4128 70.3395 83.404 70.3187 83.3969C70.3186 83.3968 70.3185 83.3967 70.3183 83.3967C70.2977 83.3897 70.2762 83.3844 70.2544 83.3801C70.2495 83.3792 70.2447 83.3783 70.2398 83.3776C70.218 83.374 70.1958 83.3713 70.1731 83.3707C66.1292 83.2669 60.8562 84.2327 58.1903 87.2521C57.0236 88.5735 56.4853 90.2499 55.9647 91.8711C55.9221 92.0038 55.8795 92.1364 55.8365 92.2688C55.8347 92.2744 55.833 92.28 55.8314 92.2857L55.0146 95.1638C54.9423 95.4186 55.0919 95.6835 55.3488 95.7553C55.3926 95.7676 55.4367 95.7734 55.48 95.7734C55.6911 95.7734 55.885 95.6351 55.945 95.4236L56.7026 92.7543C57.6286 92.3236 58.3743 92.1223 59.3816 91.8506C59.9041 91.7095 60.4963 91.5498 61.213 91.3311C62.7623 90.8583 65.7346 88.8803 67.1024 87.4117C68.2988 86.1272 69.3055 85.1726 70.4684 84.2198C70.4698 84.2187 70.4708 84.2174 70.4722 84.2162C70.4891 84.202 70.5052 84.1868 70.52 84.1704C70.5209 84.1694 70.5219 84.1685 70.5228 84.1675C70.5374 84.1511 70.5507 84.1335 70.563 84.1151C70.5652 84.1117 70.5674 84.1083 70.5696 84.1049C70.5928 84.0683 70.6111 84.0285 70.6237 83.986C70.6249 83.982 70.6261 83.9781 70.6272 83.974C70.6328 83.9531 70.6374 83.9319 70.6402 83.9101C70.6403 83.9092 70.6403 83.9083 70.6404 83.9075C70.6422 83.8926 70.6435 83.8776 70.6438 83.8624C70.644 83.8569 70.6435 83.8516 70.6435 83.8462ZM58.9174 87.8839C60.0424 86.6098 61.7665 85.6494 64.0421 85.0294C64.6537 84.8628 65.3 84.7245 65.966 84.6154C64.2736 85.4297 62.6554 86.4495 61.7512 87.0488C60.2918 88.0161 58.7164 89.1894 57.553 90.233C57.8973 89.3678 58.3135 88.568 58.9174 87.8839ZM66.3925 86.7608C65.0612 88.1902 62.1859 90.0308 60.9289 90.4143C60.2274 90.6284 59.6433 90.786 59.128 90.9251C58.6617 91.0509 58.2375 91.1655 57.818 91.2976C58.0057 91.1193 58.2257 90.9194 58.485 90.6949C59.5286 89.7918 60.8792 88.7801 62.2881 87.8464C64.7275 86.2295 66.9351 85.0946 68.5547 84.6026C67.8513 85.2453 67.1594 85.9374 66.3925 86.7608Z" fill="#1F2D3D"/>
</svg>
