<svg width="180" height="180" viewBox="0 0 180 180" fill="none" xmlns="http://www.w3.org/2000/svg">
<path d="M180 0H0V180H180V0Z" fill="white"/>
<path d="M96.5493 86.4177V86.3555C96.5493 84.114 95.8626 82.4954 94.5529 81.1877C93.0244 79.6624 90.56 78.6974 86.6917 78.6974H76.0228V100.487H83.3226V94.2619H84.8823L88.9998 100.488H97.3288L92.2442 93.0794C94.8955 91.8028 96.5493 89.5926 96.5493 86.4177ZM89.2809 86.9468C89.2809 88.2855 88.2202 89.0633 86.4731 89.0633H83.3226V84.7984H86.5049C88.1892 84.7984 89.2809 85.4836 89.2809 86.8846V86.9468ZM101.194 100.487H108.493V78.6973H101.194L101.194 100.487ZM124.681 78.2303C117.943 78.2303 112.733 83.2731 112.733 89.5925V89.6547C112.733 95.9737 117.881 100.954 124.618 100.954C131.357 100.954 136.566 95.9116 136.566 89.5925V89.5303C136.566 83.2109 131.419 78.2303 124.681 78.2303ZM129.205 89.6547C129.205 92.2075 127.457 94.5106 124.681 94.5104C121.874 94.5104 120.095 92.1757 120.095 89.5925V89.5303C120.095 86.9778 121.842 84.674 124.618 84.674C127.426 84.674 129.205 87.0089 129.205 89.5925V89.6547ZM138.652 78.6974V84.8612H145.078V100.487H152.377V84.8612H158.803V78.6973L138.652 78.6974Z" fill="#ED1846"/>
<path d="M23 71.3455C23 71.1547 23.1541 71 23.3443 71H48.9335C55.7179 71 60.8734 76.5184 60.8734 83.3258V84.6865C60.8734 85.4471 60.2568 86.0637 59.4962 86.0637H53.7168C53.3365 86.0637 53.0282 85.7559 53.0282 85.3756C53.0282 84.6559 53.0282 83.594 53.0282 83.3258C53.0282 81.0567 51.1949 79.2172 48.9335 79.2172H31.5338C31.3437 79.2172 31.1895 79.3719 31.1895 79.5627V107.632C31.1895 107.823 31.0349 107.978 30.8449 107.97C26.4818 107.789 23 104.183 23 99.7602V71.3455Z" fill="#ED1846"/>
<path d="M38.3584 87.4344C38.1683 87.4344 38.0134 87.5895 38.0212 87.7802C38.2018 92.158 41.7961 95.6516 46.2036 95.6516H51.6633C52.4171 95.6516 53.0282 96.2648 53.0282 97.0211V107.632C53.0282 107.823 53.1828 107.978 53.3728 107.97C57.7359 107.789 61.2177 104.183 61.2177 99.7602V97.0211C61.2177 91.7265 56.9401 87.4344 51.6633 87.4344H38.3584Z" fill="#ED1846"/>
</svg>
