<svg width="180" height="180" viewBox="0 0 180 180" fill="none" xmlns="http://www.w3.org/2000/svg">
<rect width="180" height="180" fill="white"/>
<path d="M72.7143 110.429L59 120.714V100.143L72.7143 110.429Z" fill="black"/>
<path d="M72.7143 83.0001L59 93.2858V72.7144L72.7143 83.0001Z" fill="black"/>
<path d="M88.7143 69.2857L75 79.5714V59L88.7143 69.2857Z" fill="black"/>
<path d="M104.714 83.0001L91 93.2858V72.7144L104.714 83.0001Z" fill="black"/>
<path d="M120.714 69.2857L107 79.5714V59L120.714 69.2857Z" fill="black"/>
<path d="M120.714 96.7144L107 107V86.4287L120.714 96.7144Z" fill="black"/>
<path d="M72.7143 107L59 96.7144L72.7143 86.4287V107Z" fill="black"/>
<path d="M88.7143 93.2858L75 83.0001L88.7143 72.7144V93.2858Z" fill="black"/>
<path d="M72.7143 79.5714L59 69.2857L72.7143 59V79.5714Z" fill="black"/>
<path d="M104.714 79.5714L91 69.2857L104.714 59V79.5714Z" fill="black"/>
<path d="M120.714 93.2858L107 83.0001L120.714 72.7144V93.2858Z" fill="black"/>
<path d="M120.714 120.714L107 110.429L120.714 100.143V120.714Z" fill="black"/>
</svg>
