<svg width="180" height="180" viewBox="0 0 180 180" fill="none" xmlns="http://www.w3.org/2000/svg">
<rect width="180" height="180" fill="white"/>
<path d="M54.6714 110C56.4387 109.999 58.1334 109.297 59.3831 108.047C60.6328 106.797 61.3352 105.103 61.3361 103.335V96.6707H54.6714C50.9933 96.6707 48.0067 99.6564 48.0067 103.335C48.0067 107.014 50.9925 110 54.6714 110Z" fill="#0ACF83"/>
<path d="M48 90.0009C48.0009 88.2336 48.7033 86.5389 49.953 85.2892C51.2027 84.0395 52.8974 83.3371 54.6647 83.3362H61.3294V96.6723H54.6647C52.8977 96.6705 51.2035 95.9678 49.954 94.7183C48.7045 93.4688 48.0018 91.7746 48 90.0076V90.0009Z" fill="#A259FF"/>
<path d="M48 76.6647C48.0007 74.8973 48.7031 73.2025 49.9528 71.9528C51.2025 70.7031 52.8973 70.0007 54.6647 70H61.3294V83.3361H54.6647C52.8977 83.3344 51.2035 82.6316 49.954 81.3821C48.7045 80.1326 48.0018 78.4385 48 76.6714V76.6647Z" fill="#F24E1E"/>
<path d="M61.2732 70H67.9379C71.616 70 74.6018 72.9858 74.6018 76.6647C74.6018 80.3436 71.616 83.3294 67.937 83.3294H61.2723L61.2732 70Z" fill="#FF7262"/>
<path d="M74.6723 90.0009C74.6705 91.7679 73.9678 93.4621 72.7183 94.7116C71.4688 95.9611 69.7746 96.6638 68.0076 96.6656C64.3295 96.6656 61.2732 93.6798 61.2732 90.0009C61.275 88.2338 61.9777 86.5397 63.2272 85.2902C64.4767 84.0407 66.1709 83.338 67.9379 83.3362C69.7052 83.3371 71.3999 84.0395 72.6496 85.2892C73.8993 86.5389 74.6017 88.2336 74.6026 90.0009H74.6723Z" fill="#1ABCFE"/>
<path d="M81.9588 81.0496V95.0218H83.7563V88.3504H88.078V86.6158H83.7563V82.7976H89.3704V81.0496H81.9588ZM92.623 83.8885C92.7773 83.8885 92.9301 83.8581 93.0726 83.7991C93.2151 83.74 93.3447 83.6535 93.4537 83.5444C93.5628 83.4353 93.6494 83.3058 93.7084 83.1632C93.7675 83.0207 93.7978 82.8679 93.7978 82.7136C93.7978 82.0633 93.2667 81.6084 92.623 81.6084C91.9794 81.6084 91.4482 82.1329 91.4482 82.7833C91.4482 83.098 91.574 83.3917 91.7981 83.6225C92.0222 83.8532 92.3159 83.9724 92.6373 83.9724L92.623 83.8885ZM91.7142 85.6507V95.0218H93.4412V85.6507H91.658H91.7142ZM100.19 85.3713C97.7982 85.3713 96.1341 87.4692 96.1341 89.7912C96.1341 92.1132 97.8125 94.1969 100.19 94.1969C100.685 94.2055 101.176 94.1111 101.632 93.9197C102.088 93.7283 102.499 93.444 102.84 93.085V94.3295C102.835 95.0775 102.545 95.7954 102.028 96.3368C101.768 96.6025 101.456 96.8135 101.113 96.9576C100.77 97.1017 100.401 97.1759 100.029 97.1759C99.4568 97.158 98.9027 96.9733 98.4343 96.6447L97.5255 98.2039C98.2236 98.6529 99.03 98.9053 99.8595 98.9346C100.689 98.9638 101.511 98.7687 102.239 98.37C102.967 97.9712 103.574 97.3835 103.996 96.6687C104.418 95.9539 104.64 95.1386 104.637 94.3085V85.6373H102.84V86.4765C102.499 86.1175 102.088 85.8332 101.632 85.6418C101.176 85.4504 100.685 85.356 100.19 85.3646V85.3713ZM97.9383 89.7912C97.8977 89.3366 97.9848 88.8797 98.1898 88.472C98.3949 88.0643 98.7097 87.7219 99.0989 87.4835C99.4879 87.2442 99.9357 87.1175 100.392 87.1175C100.849 87.1175 101.297 87.2442 101.686 87.4835C102.073 87.724 102.386 88.0668 102.591 88.474C102.796 88.8812 102.884 89.337 102.847 89.7912C102.887 90.2458 102.8 90.7027 102.595 91.1104C102.39 91.5182 102.075 91.8605 101.686 92.0989C101.297 92.3383 100.849 92.465 100.392 92.465C99.9357 92.465 99.4879 92.3383 99.0989 92.0989C98.7118 91.8584 98.3985 91.5156 98.1938 91.1085C97.989 90.7013 97.9006 90.2454 97.9383 89.7912V89.7912ZM111.12 87.2032C110.603 87.2052 110.108 87.4114 109.743 87.7769C109.377 88.1423 109.171 88.6374 109.169 89.1543V95.0847H107.371V85.7137H109.169V86.5042C109.439 86.1456 109.791 85.8561 110.194 85.6592C110.598 85.4623 111.042 85.3637 111.491 85.3713C112.055 85.3597 112.612 85.5012 113.102 85.7807C113.592 86.0603 113.997 86.4675 114.274 86.959C114.974 85.9797 115.981 85.3856 117.071 85.3713C119.121 85.3713 120.393 87.022 120.4 89.0637V95.0285H118.603V89.0846C118.71 88.3294 118.368 87.5792 117.728 87.1646C117.413 86.9668 117.048 86.8629 116.676 86.8651C116.304 86.8673 115.941 86.9755 115.628 87.1771C115.315 87.3787 115.067 87.6652 114.911 88.0031C114.756 88.3409 114.7 88.7161 114.75 89.0846V95.0151H113.023V89.0905C113.021 88.5737 112.815 88.0786 112.45 87.7131C112.084 87.3476 111.589 87.1414 111.072 87.1394L111.12 87.2032ZM130.001 86.714C129.592 86.287 129.1 85.9483 128.556 85.7185C128.011 85.4888 127.425 85.3729 126.834 85.378C124.155 85.378 122.288 87.6438 122.288 90.2729C122.288 92.902 124.176 95.1678 126.834 95.1678C127.425 95.1736 128.011 95.058 128.556 94.8283C129.101 94.5985 129.593 94.2593 130.001 93.8318V94.8951H131.799V85.5249H130.001V86.714ZM124.058 90.3501C123.967 89.2315 124.512 88.154 125.47 87.5666C126.427 86.9792 127.568 86.9792 128.589 87.5666C129.057 87.8568 129.436 88.2698 129.685 88.7607C129.934 89.2515 130.043 89.8013 130.001 90.3501C130.092 91.4687 129.547 92.5462 128.589 93.1336C127.632 93.7211 126.491 93.7211 125.47 93.1336C125.002 92.8434 124.623 92.4304 124.374 91.9396C124.125 91.4487 124.016 90.8989 124.058 90.3501V90.3501Z" fill="black"/>
</svg>
