<svg id="svg8" width="150" height="150" version="1.1" viewBox="0 0 39.688 39.688" xmlns="http://www.w3.org/2000/svg">
 <g id="layer1" transform="translate(0 -257.31)">
  <path id="path1445" d="m4.0178 271.58-1.1736 1.653v0.93439l-1.0213 0.48576-0.0092-4e-3v6.096l3.9817 1.8812 0.24333 0.11483 0.24331-0.11483 3.9818-1.8812v-6.096l-0.0075 4e-3 -1.0216-0.48595v-0.93342l-0.03573-0.0503-1.1379-1.6027-1.1737 1.653v1e-3l-0.85404-1.2028-0.84736 1.1935-0.030289-0.0426zm0.20765 0.96017 0.45392 0.63932h-1.3232l0.44868-0.63181zm4.0432 0 0.45399 0.63932h-1.3232l0.44856-0.63181zm-2.0277 0.45193 0.45395 0.63924h-1.323l0.44853-0.6318zm-3.0102 0.50957h0.6275v2.1131l-0.62754-0.29649zm0.94972 0h0.6244v2.5602l-0.62442-0.29499zm3.0936 0h0.62747v2.2631l-0.62747 0.29644zm0.9496 0h0.62437v1.8159l-0.62437 0.29494zm-2.9773 0.45185h0.62754v2.6134l-0.62754-0.2965zm0.94972 0h0.62437v2.322l-0.62437 0.29501zm29.83 0.2307-0.0031 1.1764-0.63081-4e-3v0.47933h0.63267v2.5272c0 0.18407 0.01433 0.35478 0.04348 0.51212l2.69e-4 1e-3 2.71e-4 1e-3c0.03572 0.16072 0.09611 0.30084 0.18223 0.41777 0.08688 0.11789 0.20315 0.20851 0.34348 0.26974 0.14314 0.068 0.31731 0.0999 0.52168 0.0999 0.09316 0 0.19979-0.0152 0.32201-0.0443a2.9259 2.9259 0 0 0 0.36406-0.11265l0.07107-0.0271-0.1533-0.45966-0.08037 0.0371c-0.15616 0.0677-0.3092 0.11829-0.47286 0.1192-0.13184 0-0.23546-0.019-0.31138-0.0516-0.07243-0.0392-0.1284-0.0883-0.1709-0.14935-0.04436-0.0693-0.07696-0.14913-0.09757-0.24078-0.01588-0.10138-0.02419-0.2144-0.02419-0.33933v-2.561h1.1725v-0.47894h-1.1724v-1.1725zm-26.792 0.4638 0.55252 0.22586-0.55252 0.26101zm-6.3905 7.2e-4v0.48684l-0.5524-0.26099zm25.89 0.60651 7.1e-5 7e-5v5e-5c-0.26594 0-0.52406 0.0655-0.77057 0.19461l-3.67e-4 2.7e-4 -3.67e-4 1.8e-4c-0.19914 0.10685-0.36532 0.21841-0.54004 0.35026l-0.0031-0.44401h-0.5192v6.0376h0.52955v-2.1581c0.17353 0.11836 0.34496 0.22099 0.51281 0.29559l8.05e-4 2.8e-4 8.78e-4 5.6e-4c0.21061 0.0878 0.41808 0.13256 0.62094 0.13256 0.24684 0 0.4835-0.0503 0.7071-0.15028l4.52e-4 -1.8e-4 4.51e-4 -2.7e-4c0.22926-0.10579 0.42986-0.25636 0.59983-0.44979l-1.81e-4 6e-5c0.17601-0.19949 0.31321-0.43937 0.41173-0.71757 0.09912-0.27987 0.14791-0.59551 0.14791-0.94586 0-0.6409-0.13747-1.1593-0.41972-1.5476l-9e-5 -1.8e-4c-0.28447-0.39697-0.72072-0.59806-1.2789-0.59806zm-12.824 7e-5v5e-5c-0.26597 0-0.52406 0.0655-0.77057 0.19461l-3.6e-4 2.7e-4 -3.61e-4 1.8e-4c-0.19914 0.10685-0.36532 0.21846-0.54007 0.35032l-0.0031-0.44407h-0.5192v6.0376h0.52952v-2.1582c0.17353 0.11838 0.34493 0.22096 0.51281 0.29555l8.05e-4 5.6e-4 8.78e-4 5.7e-4c0.21061 0.0878 0.41808 0.13256 0.62094 0.13256 0.24684 0 0.4835-0.0503 0.70711-0.15027l3.61e-4 -2.8e-4 4.51e-4 -1.8e-4c0.22924-0.10582 0.42986-0.25638 0.59983-0.44979l-1.8e-4 7e-5c0.17601-0.1995 0.31321-0.43938 0.41173-0.71758 0.09912-0.27987 0.14791-0.59552 0.14791-0.94588 0-0.6409-0.13747-1.1593-0.41972-1.5476l-9e-5 -1.9e-4c-0.28447-0.39697-0.72068-0.59807-1.2788-0.59807zm8.622 0v5e-5c-0.29406 0-0.5606 0.0744-0.79265 0.22294-0.18948 0.11665-0.3731 0.26526-0.55306 0.4338l0.0037-0.55547h-0.50861v4.2072h0.52964v-3.0527c0.23499-0.2379 0.4466-0.46319 0.62931-0.57805l6.2e-4 -5.7e-4 6.21e-4 -5.6e-4c0.18435-0.12115 0.38674-0.18101 0.61443-0.18101 0.31519 0 0.51844 0.0931 0.64283 0.27719l7.31e-4 1e-3 7.32e-4 1e-3c0.1305 0.1807 0.20427 0.48271 0.20427 0.9068v2.6265h0.5296v-2.6772c0-0.53841-0.09866-0.9469-0.3119-1.2211-0.21367-0.27469-0.55278-0.41022-0.99036-0.41022zm-4.3545 5e-5c-0.23654 0-0.46792 0.0535-0.69106 0.15908-9e-5 7e-5 -1.8e-4 1.8e-4 -3.61e-4 1.8e-4 -0.2182 0.10034-0.41536 0.24785-0.59032 0.44029l-4.8e-5 6e-5c-0.17057 0.1882-0.30754 0.41928-0.41168 0.69123l-2.7e-4 7.3e-4 -2.71e-4 7.3e-4c-0.09921 0.27427-0.14815 0.58162-0.14815 0.92102 0 0.33936 0.04894 0.64677 0.14815 0.92104l2.71e-4 7.4e-4 4.51e-4 7.3e-4c0.10432 0.26659 0.24429 0.4975 0.42001 0.69079l4.51e-4 5.6e-4 3.61e-4 5.7e-4c0.17591 0.18765 0.38242 0.33224 0.61724 0.43205l2.71e-4 9e-5 3.61e-4 9e-5c0.24023 0.0996 0.49575 0.14939 0.76418 0.14939 0.30515 0 0.5601-0.0426 0.76508-0.13284l3.66e-4 -2.7e-4c0.19931-0.0854 0.38206-0.17682 0.54825-0.27424l0.06551-0.0383-0.2305-0.43532-0.07408 0.0549c-0.14572 0.10794-0.28946 0.17505-0.46248 0.24001-0.16427 0.0582-0.3669 0.088-0.57846 0.088-0.22041 0-0.41617-0.0209-0.5902-0.0998-0.17582-0.0854-0.32659-0.19924-0.45433-0.34264-0.12235-0.14923-0.21884-0.32543-0.28905-0.5306-2.4e-5 -7e-5 -2.4e-5 -1.8e-4 -7.1e-5 -1.8e-4 -0.06225-0.18698-0.09502-0.38946-0.10644-0.60356h2.9197c0-0.0825 0.0079-0.16181 0.0082-0.23109v-0.1518c0-0.60828-0.14112-1.0902-0.43201-1.4345-0.29029-0.34359-0.69778-0.51729-1.1992-0.51729zm12.834 0c-0.25223 0-0.49416 0.0502-0.72325 0.15001-0.22917 0.0999-0.43253 0.24442-0.60816 0.43174l-4.51e-4 5.7e-4 -5.35e-4 5.6e-4c-0.17083 0.1885-0.30782 0.42261-0.41192 0.70022l-1.8e-4 5.6e-4 -1.81e-4 5.6e-4c-0.09926 0.27443-0.1481 0.58461-0.1481 0.92945 0 0.34489 0.04884 0.65509 0.1481 0.92953l3.67e-4 7.3e-4 3.66e-4 7.3e-4c0.10422 0.26631 0.24119 0.4944 0.41147 0.68231l4.51e-4 5.6e-4 4.51e-4 5.7e-4c0.1756 0.18733 0.37892 0.33181 0.60808 0.43172 0.2291 0.0999 0.47112 0.14998 0.72335 0.14998 0.25225 0 0.49423-0.0501 0.7233-0.15001 0.23458-0.0998 0.43828-0.24438 0.60858-0.43215 0.17629-0.18817 0.31369-0.41691 0.4124-0.68385 0.1051-0.27468 0.1569-0.58526 0.1569-0.93036 0-0.34496-0.05175-0.65538-0.15678-0.93-0.09857-0.27789-0.23587-0.51245-0.41259-0.70108-0.17028-0.18773-0.37396-0.3324-0.60851-0.43219-0.22905-0.0999-0.47102-0.14999-0.72323-0.14999zm-30.712 0.16146 3.4952 1.6511v5.0197l-3.4952-1.6511zm7.4769 0v5.0197l-3.4951 1.6511v-5.0197zm10.409 0.3175h7.2e-5c0.34682 0 0.6082 0.11767 0.80777 0.35924l1.81e-4 2.9e-4 2.7e-4 2.8e-4c0.18545 0.21961 0.2865 0.56492 0.2975 1.0337h-2.4048c0.02514-0.19843 0.0669-0.38064 0.13227-0.53955 0.08113-0.18354 0.18023-0.33837 0.29692-0.46578 0.12258-0.12778 0.25662-0.22205 0.40346-0.28499l1e-3 -5.7e-4 0.0011-5.6e-4c0.14732-0.0684 0.30102-0.10231 0.46427-0.10231zm-4.3348 8e-3v7e-5c0.22025 0 0.40291 0.0427 0.55216 0.12511l9.51e-4 5.6e-4 9.51e-4 5.7e-4c0.15116 0.0782 0.2719 0.18855 0.36613 0.33513l4.51e-4 5.6e-4 3.61e-4 5.7e-4c0.09473 0.14207 0.16442 0.31495 0.20773 0.52063l1.8e-4 1e-3 2.71e-4 7.3e-4c0.04903 0.20701 0.07379 0.43141 0.07379 0.67343 0 0.26855-0.03563 0.51328-0.10598 0.73515l-2.71e-4 5.7e-4 -1.8e-4 5.6e-4c-0.06516 0.21722-0.15669 0.40226-0.27398 0.55688-0.11712 0.1544-0.25655 0.27252-0.42032 0.35705-0.1632 0.0842-0.33806 0.12611-0.52876 0.12611-0.14424 0-0.31514-0.0365-0.51109-0.11271-0.1835-0.0713-0.38748-0.2467-0.60742-0.42118v-2.241c0.23324-0.19876 0.45085-0.38736 0.64934-0.49184l2.7e-4 -9e-5 3.61e-4 -2.7e-4c0.21035-0.11329 0.40804-0.16771 0.59504-0.16771zm12.824 0 7.1e-5 7e-5c0.22025 0 0.40291 0.0427 0.55216 0.12511l9.51e-4 5.6e-4 9.51e-4 5.7e-4c0.15113 0.0782 0.27188 0.18855 0.36611 0.33513l4.51e-4 5.6e-4 3.67e-4 5.7e-4c0.09468 0.14207 0.16439 0.31495 0.2077 0.52063l1.8e-4 1e-3 2.71e-4 7.3e-4c0.04903 0.20701 0.07379 0.43141 0.07379 0.67343 0 0.26855-0.03563 0.51328-0.10599 0.73515l-2.7e-4 5.7e-4 -1.81e-4 5.6e-4c-0.06518 0.21722-0.15669 0.40226-0.274 0.55688-0.1171 0.1544-0.25652 0.27252-0.4203 0.35705-0.16322 0.0842-0.33809 0.12611-0.52878 0.12611-0.14424 0-0.31512-0.0365-0.51109-0.11271-0.1835-0.0713-0.38748-0.2467-0.60739-0.42118v-2.241c0.23325-0.19876 0.45082-0.38736 0.64932-0.49184l2.7e-4 -1.9e-4 3.67e-4 -1.7e-4c0.21035-0.11329 0.40801-0.16771 0.59504-0.16771zm4.3365 0v7e-5c0.19067 0 0.36554 0.0419 0.52874 0.12616l0.0015 5.7e-4 0.0013 5.6e-4c0.1685 0.079 0.30954 0.19373 0.42604 0.34729l8.78e-4 1e-3 9.51e-4 1e-3c0.12254 0.14918 0.21929 0.32853 0.28977 0.53995 0.07 0.21004 0.10556 0.44598 0.10556 0.70875 0 0.257-0.03549 0.4901-0.10558 0.70034-0.07045 0.21139-0.16721 0.3907-0.28977 0.53987l-5.36e-4 7.3e-4 -4.51e-4 7.3e-4c-0.11662 0.14837-0.25848 0.26394-0.42816 0.34887-0.16337 0.079-0.33892 0.11844-0.53019 0.11844-0.19103 0-0.36644-0.0394-0.52967-0.1182-0.16408-0.0849-0.30658-0.20086-0.42922-0.35001-0.11708-0.1492-0.21126-0.32881-0.28178-0.54042-0.0701-0.21024-0.10565-0.44332-0.10565-0.70032 0-0.26274 0.03563-0.49869 0.10565-0.70875 0.07059-0.21185 0.16489-0.39165 0.28214-0.54095l9e-5 -8e-5 9e-5 -2.7e-4c0.12263-0.15455 0.26454-0.26986 0.42762-0.34877l9.51e-4 -5.7e-4 8.78e-4 -5.6e-4c0.1632-0.0843 0.33811-0.12619 0.52881-0.12619z" stroke-width=".023849"/>
 </g>
</svg>
