<svg width="180" height="180" viewBox="0 0 180 180" fill="none" xmlns="http://www.w3.org/2000/svg">
<rect width="180" height="180" fill="white"/>
<path fill-rule="evenodd" clip-rule="evenodd" d="M57.318 97.4932C56.1233 97.4932 54.9734 97.3326 53.8684 97.0116C52.7633 96.6905 51.8449 96.2462 51.1132 95.6788L52.2332 93.1924C53.7564 94.2526 55.4662 94.7828 57.3628 94.7828C58.3484 94.7828 59.1062 94.6222 59.6364 94.3012C60.1665 93.9801 60.4316 93.5358 60.4316 92.9684C60.4316 92.4606 60.1889 92.0649 59.7036 91.7812C59.2182 91.4974 58.3558 91.2212 57.1164 90.9524C55.7276 90.6686 54.6188 90.3252 53.79 89.922C52.9612 89.5188 52.3564 89.0222 51.9756 88.4324C51.5948 87.8425 51.4044 87.1145 51.4044 86.2484C51.4044 85.2926 51.6694 84.4414 52.1996 83.6948C52.7297 82.9481 53.4726 82.362 54.4284 81.9364C55.3841 81.5108 56.4892 81.298 57.7436 81.298C58.8636 81.298 59.9425 81.4622 60.9804 81.7908C62.0182 82.1193 62.8433 82.5598 63.4556 83.1124L62.3356 85.5988C60.887 84.5385 59.3638 84.0084 57.766 84.0084C56.855 84.0084 56.1382 84.1838 55.6156 84.5348C55.0929 84.8857 54.8316 85.3673 54.8316 85.9796C54.8316 86.338 54.9324 86.6329 55.134 86.8644C55.3356 87.0958 55.6716 87.3012 56.142 87.4804C56.6124 87.6596 57.2806 87.8462 58.1468 88.0404C60.1777 88.4884 61.6374 89.0633 62.526 89.7652C63.4145 90.467 63.8588 91.4377 63.8588 92.6772C63.8588 94.1705 63.2838 95.3465 62.134 96.2052C60.9841 97.0638 59.3788 97.4932 57.318 97.4932ZM71.9676 94.9844C72.311 94.9844 72.6694 94.962 73.0428 94.9172L72.8636 97.3812C72.4305 97.4409 71.9974 97.4708 71.5644 97.4708C69.8918 97.4708 68.671 97.1049 67.902 96.3732C67.1329 95.6414 66.7484 94.5289 66.7484 93.0356V88.8244H64.6652V86.2932H66.7484V83.0676H70.1308V86.2932H72.886V88.8244H70.1308V93.0132C70.1308 94.3273 70.743 94.9844 71.9676 94.9844ZM79.83 97.4708C78.6652 97.4708 77.6422 97.2356 76.7612 96.7652C75.8801 96.2948 75.2006 95.6302 74.7228 94.7716C74.2449 93.9129 74.006 92.9012 74.006 91.7364C74.006 90.5716 74.2449 89.5598 74.7228 88.7012C75.2006 87.8425 75.8801 87.1817 76.7612 86.7188C77.6422 86.2558 78.6652 86.0244 79.83 86.0244C80.9948 86.0244 82.0177 86.2558 82.8988 86.7188C83.7798 87.1817 84.4593 87.8425 84.9372 88.7012C85.415 89.5598 85.654 90.5716 85.654 91.7364C85.654 92.9012 85.415 93.9129 84.9372 94.7716C84.4593 95.6302 83.7798 96.2948 82.8988 96.7652C82.0177 97.2356 80.9948 97.4708 79.83 97.4708ZM79.83 94.8948C81.4726 94.8948 82.294 93.842 82.294 91.7364C82.294 90.6761 82.0812 89.8846 81.6556 89.362C81.23 88.8393 80.6214 88.578 79.83 88.578C78.1873 88.578 77.366 89.6308 77.366 91.7364C77.366 93.842 78.1873 94.8948 79.83 94.8948ZM95.0172 88.802L93.1132 89.0036C92.1724 89.0932 91.5078 89.3582 91.1196 89.7988C90.7313 90.2393 90.5372 90.8254 90.5372 91.5572V97.2916H87.1548V86.2932H90.4028V88.1524C90.9553 86.883 92.0977 86.1886 93.83 86.0692L94.8156 86.002L95.0172 88.802ZM104.845 86.3156H108.16L101.53 101.324H98.1028L100.208 96.6868L95.6836 86.3156H99.2004L101.978 93.3044L104.845 86.3156ZM116 86.0244C116.956 86.0244 117.8 86.2558 118.532 86.7188C119.263 87.1817 119.834 87.8425 120.245 88.7012C120.656 89.5598 120.861 90.5566 120.861 91.6916C120.861 92.8265 120.656 93.8308 120.245 94.7044C119.834 95.578 119.26 96.2574 118.52 96.7428C117.781 97.2281 116.941 97.4708 116 97.4708C115.239 97.4708 114.552 97.3102 113.94 96.9892C113.327 96.6681 112.857 96.2238 112.528 95.6564V97.2916H109.191V81.4996H112.573V87.7716C112.902 87.219 113.368 86.7897 113.973 86.4836C114.578 86.1774 115.254 86.0244 116 86.0244ZM115.015 94.8948C115.806 94.8948 116.418 94.6148 116.852 94.0548C117.285 93.4948 117.501 92.707 117.501 91.6916C117.501 90.691 117.285 89.9257 116.852 89.3956C116.418 88.8654 115.806 88.6004 115.015 88.6004C114.223 88.6004 113.611 88.8729 113.178 89.418C112.745 89.963 112.528 90.7358 112.528 91.7364C112.528 92.7518 112.745 93.5321 113.178 94.0772C113.611 94.6222 114.223 94.8948 115.015 94.8948ZM128.208 97.4708C127.044 97.4708 126.021 97.2356 125.14 96.7652C124.258 96.2948 123.579 95.6302 123.101 94.7716C122.623 93.9129 122.384 92.9012 122.384 91.7364C122.384 90.5716 122.623 89.5598 123.101 88.7012C123.579 87.8425 124.258 87.1817 125.14 86.7188C126.021 86.2558 127.044 86.0244 128.208 86.0244C129.373 86.0244 130.396 86.2558 131.277 86.7188C132.158 87.1817 132.838 87.8425 133.316 88.7012C133.793 89.5598 134.032 90.5716 134.032 91.7364C134.032 92.9012 133.793 93.9129 133.316 94.7716C132.838 95.6302 132.158 96.2948 131.277 96.7652C130.396 97.2356 129.373 97.4708 128.208 97.4708ZM128.208 94.8948C129.851 94.8948 130.672 93.842 130.672 91.7364C130.672 90.6761 130.46 89.8846 130.034 89.362C129.608 88.8393 129 88.578 128.208 88.578C126.566 88.578 125.744 89.6308 125.744 91.7364C125.744 93.842 126.566 94.8948 128.208 94.8948ZM140.82 97.4708C139.655 97.4708 138.632 97.2356 137.751 96.7652C136.87 96.2948 136.19 95.6302 135.712 94.7716C135.234 93.9129 134.996 92.9012 134.996 91.7364C134.996 90.5716 135.234 89.5598 135.712 88.7012C136.19 87.8425 136.87 87.1817 137.751 86.7188C138.632 86.2558 139.655 86.0244 140.82 86.0244C141.984 86.0244 143.007 86.2558 143.888 86.7188C144.769 87.1817 145.449 87.8425 145.927 88.7012C146.405 89.5598 146.644 90.5716 146.644 91.7364C146.644 92.9012 146.405 93.9129 145.927 94.7716C145.449 95.6302 144.769 96.2948 143.888 96.7652C143.007 97.2356 141.984 97.4708 140.82 97.4708ZM140.82 94.8948C142.462 94.8948 143.284 93.842 143.284 91.7364C143.284 90.6761 143.071 89.8846 142.645 89.362C142.22 88.8393 141.611 88.578 140.82 88.578C139.177 88.578 138.356 89.6308 138.356 91.7364C138.356 93.842 139.177 94.8948 140.82 94.8948ZM160.022 97.2916H155.878L151.667 92.386V97.2916H148.284V81.4996H151.667V90.9972L155.721 86.3156H159.753L155.139 91.5572L160.022 97.2916Z" fill="#333333"/>
<path d="M20.8904 101.13L20.023 78.0184C19.9943 77.2551 20.5796 76.6082 21.3419 76.5605L41.0002 75.3319C41.7761 75.2834 42.4445 75.8731 42.493 76.6491C42.4948 76.6783 42.4957 76.7076 42.4957 76.7369V101.921C42.4957 102.699 41.8655 103.329 41.088 103.329C41.0669 103.329 41.0459 103.329 41.0248 103.328L22.234 102.484C21.5021 102.451 20.9178 101.862 20.8904 101.13Z" fill="#FF4785"/>
<path d="M33.1645 86.1539C33.1645 86.7016 36.8538 86.4391 37.349 86.0544C37.349 82.3247 35.3477 80.3647 31.6831 80.3647C28.0184 80.3647 25.9651 82.3552 25.9651 85.3408C25.9651 90.5407 32.9826 90.6402 32.9826 93.4766C32.9826 94.2727 32.5927 94.7454 31.735 94.7454C30.6174 94.7454 30.1756 94.1747 30.2276 92.234C30.2276 91.813 25.9651 91.6818 25.8351 92.234C25.5042 96.9369 28.4342 98.2934 31.787 98.2934C35.0359 98.2934 37.5829 96.5617 37.5829 93.4268C37.5829 87.8537 30.4615 88.0029 30.4615 85.2412C30.4615 84.1216 31.2932 83.9724 31.787 83.9724C32.3068 83.9724 33.2425 84.064 33.1645 86.1539ZM36.7491 75.5976L39.4545 75.4285L39.5674 78.6596C39.5714 78.7755 39.4807 78.8727 39.3648 78.8768C39.3152 78.8785 39.2666 78.8626 39.2276 78.8319L38.1865 78.0117L36.9539 78.9468C36.8615 79.0169 36.7297 78.9988 36.6596 78.9064C36.6301 78.8675 36.6151 78.8195 36.6171 78.7707L36.7491 75.5976Z" fill="white"/>
</svg>
